<?xml version="1.0" standalone="no"?>
<!DOCTYPE svg PUBLIC "-//W3C//DTD SVG 20010904//EN"
 "http://www.w3.org/TR/2001/REC-SVG-20010904/DTD/svg10.dtd">
<svg version="1.0" xmlns="http://www.w3.org/2000/svg"
 width="440.000000pt" height="747.000000pt" viewBox="0 0 440.000000 747.000000"
 preserveAspectRatio="xMidYMid meet">

<g transform="translate(0.000000,747.000000) scale(0.100000,-0.100000)"
fill="black" stroke="none">
<path d="M1914 7434 c-31 -32 -39 -36 -55 -26 -27 17 -71 15 -98 -4 -17 -12
-43 -16 -98 -15 -60 1 -81 -2 -113 -20 -64 -36 -71 -63 -52 -197 15 -111 15
-113 -5 -140 -12 -16 -37 -61 -57 -100 -42 -83 -52 -87 -138 -47 -29 14 -68
27 -85 30 -18 3 -49 8 -69 11 -24 3 -52 20 -83 48 -62 58 -100 76 -161 76 -58
0 -106 -18 -134 -49 -12 -13 -31 -21 -51 -21 -17 0 -55 -12 -84 -26 -53 -27
-96 -76 -160 -182 -30 -51 -101 -105 -172 -131 -85 -32 -110 -66 -124 -169 -6
-47 -15 -62 -65 -118 -69 -76 -100 -138 -100 -198 0 -61 15 -90 53 -102 26 -7
32 -15 33 -37 1 -33 46 -83 90 -102 24 -10 42 -33 77 -96 25 -46 62 -100 82
-119 20 -19 51 -55 67 -79 l31 -43 51 6 c64 7 95 29 126 91 23 46 25 48 31 25
4 -14 7 -47 8 -74 1 -38 -4 -54 -24 -78 -15 -18 -25 -42 -25 -61 0 -21 -10
-45 -29 -67 -48 -59 -64 -99 -57 -142 4 -27 2 -46 -10 -63 -12 -18 -15 -48
-15 -122 1 -54 -1 -117 -5 -139 -6 -42 10 -88 44 -127 10 -12 17 -38 18 -70 1
-68 31 -125 100 -191 40 -39 54 -60 54 -81 0 -28 35 -95 50 -95 4 0 22 -13 39
-29 26 -24 31 -36 31 -75 0 -48 12 -66 71 -107 21 -14 22 -18 11 -60 -17 -66
1 -244 44 -454 l37 -180 -26 -105 c-18 -71 -28 -144 -31 -225 -5 -125 -22
-203 -52 -236 -16 -17 -26 -19 -86 -13 -103 10 -144 -16 -163 -103 -4 -21 -17
-39 -38 -52 -78 -48 -95 -95 -66 -190 12 -40 12 -45 -5 -55 -40 -24 -66 -48
-78 -74 -9 -17 -24 -28 -46 -33 -42 -8 -59 -32 -67 -89 -4 -25 -10 -54 -15
-65 -4 -11 -13 -76 -20 -144 -10 -106 -15 -129 -36 -157 -48 -63 -41 -149 14
-173 30 -14 32 -18 32 -65 1 -105 17 -194 47 -257 17 -35 36 -82 44 -103 15
-43 81 -92 134 -100 17 -3 76 -12 133 -21 56 -10 114 -15 127 -12 30 5 31 2 5
-30 -26 -34 -26 -94 1 -149 16 -35 31 -48 77 -70 50 -24 74 -29 197 -35 420
-22 1580 -35 2026 -22 297 9 307 10 354 33 26 14 62 42 79 63 27 34 31 47 36
123 l5 85 100 33 c55 18 114 40 130 48 54 28 122 96 128 127 4 16 20 43 37 61
16 17 30 39 30 49 0 10 8 25 19 35 13 12 20 37 25 94 10 111 22 148 56 172 28
20 30 26 30 84 0 59 -2 64 -35 93 -33 30 -35 34 -35 100 -1 44 -6 75 -15 87
-8 11 -15 32 -15 48 0 27 -30 68 -50 68 -5 0 -12 11 -16 24 -3 13 -17 34 -30
47 -13 12 -24 32 -24 43 0 12 -13 29 -30 41 -40 27 -55 57 -41 83 15 29 14 88
-3 120 -8 15 -28 37 -45 50 -20 14 -31 31 -31 47 0 13 -11 37 -25 53 -38 45
-83 62 -165 62 -39 0 -80 5 -92 11 -26 14 -58 85 -58 132 0 37 -25 115 -75
236 l-27 64 22 61 c60 164 64 188 65 411 2 263 0 250 30 263 18 9 25 19 25 40
0 16 9 41 20 55 11 14 17 32 14 41 -4 9 9 29 35 55 22 22 43 52 47 68 3 15 19
49 35 74 16 25 29 58 29 74 0 20 12 38 45 67 60 53 68 70 56 113 -8 30 -6 39
18 68 15 19 35 53 46 77 16 35 17 47 7 73 -10 27 -9 35 18 75 37 56 47 116 27
164 -10 25 -14 55 -10 95 4 50 1 65 -22 108 -16 30 -23 51 -16 53 20 7 12 53
-18 106 -16 28 -32 65 -35 81 -4 17 -22 50 -41 74 -42 53 -47 91 -11 91 31 0
42 -15 51 -68 6 -35 14 -48 46 -69 60 -40 87 -29 187 74 46 47 93 106 104 130
15 32 39 56 97 97 128 89 201 189 201 272 0 31 -9 53 -44 99 -24 33 -53 69
-66 80 -32 29 -49 66 -43 98 11 54 -7 117 -44 157 -39 44 -100 70 -205 90 -37
7 -71 17 -76 24 -5 6 -19 40 -32 76 -30 82 -109 163 -204 210 -60 30 -72 32
-133 28 -91 -7 -157 -41 -224 -118 -41 -46 -61 -61 -89 -65 -19 -3 -70 -15
-112 -27 -91 -24 -100 -21 -118 50 -7 30 -24 61 -48 85 l-37 38 -1 92 c0 90
-4 103 -44 167 -5 8 -12 31 -15 51 -7 45 -42 100 -75 116 -14 7 -62 13 -109
13 -74 0 -86 3 -113 25 -35 29 -74 32 -117 8 -29 -17 -32 -17 -64 0 -32 18
-37 18 -66 2 -30 -15 -33 -15 -60 4 l-29 21 -26 -21 c-26 -20 -28 -20 -53 -4
-15 11 -42 17 -65 16 -71 -4 -83 -3 -106 4 -18 6 -29 0 -58 -31z m436 -44 c28
-15 36 -75 16 -116 -35 -74 -24 -89 79 -115 70 -17 164 -61 203 -94 42 -35 62
-74 78 -152 7 -33 25 -78 39 -98 38 -57 33 -76 -41 -150 l-65 -65 -26 28 c-13
15 -40 51 -58 80 l-34 52 57 29 c47 24 107 71 91 71 -3 0 -38 -13 -79 -29 -97
-37 -151 -46 -195 -31 -64 21 -69 74 -14 150 35 48 88 74 130 65 16 -4 54 -29
84 -57 30 -27 55 -47 55 -44 0 19 -33 67 -69 99 -77 69 -156 60 -239 -27 -66
-70 -73 -96 -39 -157 15 -26 27 -60 27 -76 0 -24 -6 -31 -33 -41 -40 -14 -91
-16 -115 -3 -9 5 -25 12 -35 15 -29 9 -31 35 -7 92 15 38 20 65 16 87 -8 41
-49 105 -83 131 -33 24 -109 32 -157 16 -36 -11 -162 -118 -152 -128 3 -2 33
14 66 37 84 57 104 64 152 49 52 -15 78 -49 78 -103 0 -32 -6 -48 -26 -68 -40
-40 -79 -43 -181 -13 -92 27 -190 38 -108 12 22 -7 58 -25 79 -40 22 -14 57
-29 78 -32 l39 -7 -31 -18 c-17 -11 -38 -36 -47 -56 -10 -21 -27 -49 -38 -63
-36 -42 -46 -75 -30 -97 15 -19 20 -93 7 -93 -5 0 -19 11 -32 25 -12 13 -27
22 -32 19 -5 -4 3 -19 18 -35 25 -26 26 -32 20 -93 -8 -76 2 -90 65 -101 53
-9 93 -46 83 -78 -8 -26 -23 -47 -35 -47 -5 0 -20 17 -33 39 -21 32 -33 41
-76 51 -29 7 -54 20 -60 30 -13 24 -13 87 0 95 15 9 12 57 -5 79 -23 30 -18
59 15 91 24 23 30 37 30 70 0 39 -5 46 -60 94 -85 74 -90 125 -19 194 15 14
19 33 19 86 0 58 4 72 24 94 41 45 190 107 291 123 62 9 69 36 26 101 -34 50
-37 64 -21 94 15 28 74 26 94 -3 21 -29 20 -62 -1 -120 -9 -26 -15 -49 -12
-51 2 -2 21 -2 42 1 33 4 37 7 37 32 0 15 -7 41 -15 56 -19 37 -19 54 1 82 19
28 50 28 64 1 12 -22 9 -122 -4 -151 -7 -15 -3 -18 28 -18 40 0 46 16 21 60
-25 44 -15 120 19 142 14 10 14 10 36 -2z m168 -15 c4 -29 -62 -171 -83 -179
-69 -26 -56 134 14 182 40 26 65 25 69 -3z m-543 -11 c38 -15 57 -96 32 -143
-13 -26 -37 -40 -37 -22 0 6 -13 30 -30 53 -53 73 -33 138 35 112z m760 -28
c14 -9 25 -26 25 -37 0 -24 -50 -76 -99 -102 -39 -20 -36 -41 6 -45 19 -2 43
-16 64 -38 56 -57 71 -34 19 31 -41 52 -37 85 10 85 17 0 40 -32 40 -55 0 -13
10 -40 21 -60 28 -46 21 -106 -15 -144 -32 -33 -33 -43 -3 -36 18 5 31 -4 68
-47 56 -65 66 -100 44 -159 -9 -24 -19 -51 -21 -60 -4 -10 4 -20 21 -27 27
-12 27 -14 20 -76 -4 -45 -3 -70 6 -85 11 -16 11 -27 1 -56 -8 -19 -10 -40 -7
-45 4 -6 4 -18 1 -26 -5 -12 -10 -13 -27 -3 -20 10 -21 9 -15 -12 13 -42 12
-63 -5 -67 -10 -2 -21 8 -29 28 -14 35 -36 42 -25 8 4 -13 10 -47 12 -75 4
-48 3 -53 -15 -53 -24 0 -62 44 -62 72 0 10 -9 36 -20 58 -24 47 -26 93 -4
111 14 11 19 9 35 -11 14 -20 19 -21 19 -8 0 9 -7 24 -16 33 -24 23 -14 104
19 153 35 54 51 116 38 152 -5 16 -30 59 -56 96 -30 45 -44 75 -41 89 2 11 8
42 12 68 6 46 4 51 -27 83 -21 21 -42 34 -59 34 -14 0 -46 10 -70 23 -37 18
-46 28 -48 53 -4 42 27 69 79 68 42 -2 46 3 26 29 -21 29 -74 12 -102 -34 -31
-47 -42 -54 -54 -32 -19 37 36 114 95 133 40 13 109 6 139 -14z m-881 -18 c61
-50 98 -148 56 -148 -11 0 -20 4 -20 8 0 16 -72 92 -87 92 -10 0 -4 -13 21
-40 56 -62 47 -98 -10 -39 -44 46 -61 53 -89 35 -14 -9 -36 -16 -50 -16 -31 0
-31 -7 -3 -30 22 -18 23 -18 4 -39 -19 -21 -19 -21 12 -21 35 0 52 22 52 64 0
32 13 34 27 4 24 -50 22 -56 -37 -128 -65 -77 -74 -99 -68 -162 4 -34 -2 -55
-24 -97 -36 -69 -35 -110 2 -189 17 -35 30 -74 30 -85 0 -31 -15 -51 -33 -44
-9 3 -23 -6 -36 -24 -32 -43 -83 -66 -116 -51 -30 14 -32 33 -5 57 25 23 26
67 1 89 -10 9 -21 30 -24 45 -8 40 3 102 20 108 24 9 53 -27 53 -67 0 -45 29
-86 53 -77 40 15 8 120 -49 164 -50 38 -61 85 -39 167 10 36 26 73 36 82 18
16 20 16 39 -1 14 -12 20 -31 20 -59 l1 -41 19 35 c25 45 25 91 1 122 -34 43
-36 74 -7 99 34 30 33 42 -4 34 l-30 -7 0 51 c0 39 5 55 22 71 24 22 33 24 93
21 32 -2 45 3 64 23 32 34 58 33 105 -6z m-869 -373 c14 -13 25 -34 25 -45 0
-12 9 -33 20 -47 11 -14 20 -41 20 -59 0 -19 5 -43 12 -53 7 -11 8 -26 3 -37
-5 -11 -9 -30 -9 -44 -1 -17 -10 -29 -28 -38 -33 -16 -35 -28 -7 -58 26 -27
18 -44 -22 -44 -32 0 -37 -11 -13 -31 42 -34 60 -133 29 -159 -12 -10 -22 -8
-53 12 -51 34 -72 40 -72 24 0 -8 19 -29 41 -47 52 -41 71 -82 59 -132 -11
-52 -36 -87 -61 -87 -18 0 -20 4 -14 23 23 74 12 93 -59 106 -51 9 -76 30 -76
64 0 19 8 20 59 6 9 -2 19 7 25 23 13 36 -12 64 -67 75 -44 9 -63 33 -26 33
37 0 103 37 122 69 21 36 22 84 1 144 -18 52 -73 107 -107 107 -18 -1 -16 -3
10 -15 60 -26 95 -113 73 -179 -17 -51 -116 -107 -143 -80 -3 3 12 23 34 44
34 32 40 44 37 71 -4 42 -47 73 -123 89 -70 14 -105 48 -105 101 0 26 7 46 20
59 24 24 72 26 90 5 7 -8 16 -15 21 -15 18 0 8 30 -18 54 -21 20 -25 28 -15
38 9 9 18 7 42 -10 16 -12 34 -22 41 -22 6 0 38 18 71 40 74 49 125 54 163 15z
m2629 -16 c44 -12 96 -58 96 -84 0 -9 -9 -30 -21 -46 -14 -20 -16 -29 -7 -29
18 1 48 25 48 38 0 14 18 25 30 17 6 -4 6 -15 0 -30 -10 -26 -2 -33 17 -14 37
37 44 -81 7 -122 -16 -18 -27 -21 -76 -16 -66 6 -70 3 -78 -62 -6 -49 -24 -64
-35 -29 -7 22 -7 22 -14 -7 -5 -27 -14 -32 -75 -52 -82 -27 -106 -46 -106 -84
0 -15 -4 -39 -10 -53 -13 -34 -54 -35 -75 -2 -20 30 -9 81 27 129 42 56 68
107 62 122 -7 17 -23 20 -25 5 -1 -5 -2 -15 -3 -22 -2 -22 -24 -19 -44 7 -17
21 -19 30 -10 44 14 24 2 71 -19 71 -13 0 -15 -8 -10 -53 6 -44 3 -61 -16 -98
-25 -51 -55 -69 -114 -69 -59 0 -73 -8 -73 -41 0 -37 -22 -47 -56 -25 -45 30
-52 86 -11 86 11 0 34 15 51 34 24 25 43 35 79 40 57 9 95 39 104 85 4 25 3
32 -5 27 -7 -4 -12 -14 -12 -22 0 -16 -38 -34 -73 -34 -12 0 -49 -21 -81 -45
-63 -48 -83 -54 -92 -30 -17 42 40 116 134 176 44 28 51 29 112 23 36 -3 71
-11 78 -17 17 -14 28 2 36 52 10 67 109 139 191 141 17 0 48 -5 69 -11z
m-2416 -84 c28 -13 52 -29 52 -35 0 -6 -28 -10 -70 -10 -58 0 -71 3 -80 19
-30 56 10 67 98 26z m160 -21 c18 -13 62 -81 62 -98 0 -2 -22 8 -49 22 -32 17
-54 37 -64 59 -14 32 -14 33 7 33 12 0 32 -7 44 -16z m-71 -78 c29 -14 72 -43
97 -67 37 -33 46 -48 46 -74 0 -35 -19 -58 -37 -47 -7 4 -20 28 -31 52 -22 52
-73 110 -96 110 -24 0 -20 -13 15 -46 59 -56 93 -152 66 -188 -10 -14 -25 -19
-51 -18 -35 1 -36 0 -30 -26 4 -15 20 -40 35 -56 49 -49 29 -136 -31 -136 -17
0 -20 7 -20 45 l0 45 -42 6 c-32 6 -54 19 -95 60 -47 46 -53 56 -44 73 16 29
13 68 -5 97 -9 13 -14 27 -10 31 8 8 46 -26 46 -42 0 -6 10 -21 23 -33 19 -18
37 -22 102 -25 82 -2 95 5 71 38 -10 14 -32 21 -92 26 -68 7 -82 12 -102 34
-19 23 -22 34 -16 78 4 29 13 60 22 70 23 26 114 23 179 -7z m763 -50 c5 -70
15 -86 58 -86 12 0 40 -9 62 -20 48 -25 83 -25 121 -3 28 17 31 17 60 0 44
-25 80 -21 127 13 37 27 42 35 42 70 0 28 4 40 15 40 36 0 46 -77 15 -127 -38
-63 -117 -80 -199 -43 -24 11 -46 19 -48 17 -9 -10 39 -38 90 -51 72 -19 105
-10 164 45 48 44 71 42 59 -6 -27 -107 -201 -123 -325 -31 -39 29 -48 28 -32
-3 32 -58 178 -101 279 -80 42 8 58 18 80 46 15 20 36 45 46 56 l19 20 19 -23
c19 -23 24 -75 9 -85 -5 -3 -11 5 -13 17 -5 34 -23 28 -57 -19 -54 -74 -135
-101 -238 -80 -77 16 -128 50 -155 102 -19 37 -22 38 -32 20 -6 -11 -32 -41
-58 -66 -70 -68 -236 -124 -251 -84 -7 17 -4 19 53 36 37 11 41 13 20 16 -42
6 -120 34 -120 43 0 4 48 7 108 6 98 -1 112 1 169 27 36 17 63 37 66 48 7 25
-15 25 -37 0 -23 -25 -89 -41 -172 -41 -65 0 -68 1 -106 40 -21 23 -38 47 -38
55 0 26 28 16 56 -20 17 -23 40 -39 68 -46 75 -20 186 7 186 46 0 18 -24 31
-72 40 -48 9 -63 28 -78 97 -11 47 -11 60 0 73 23 28 35 10 40 -59z m418 -2
c3 -47 0 -54 -28 -78 -36 -29 -62 -33 -80 -11 -7 9 -11 16 -9 18 2 1 18 9 34
18 24 12 30 22 31 50 2 59 3 61 27 57 19 -3 22 -10 25 -54z m-1922 -5 c16 -17
57 -45 90 -61 89 -43 104 -90 39 -119 -11 -6 -31 -16 -45 -24 -14 -8 -46 -15
-72 -15 -27 0 -48 -4 -48 -10 0 -5 3 -10 8 -10 4 -1 33 -2 64 -3 67 -2 108
-28 124 -78 6 -19 19 -35 28 -37 19 -4 20 3 -4 -65 -25 -71 -25 -133 -1 -195
l19 -49 -25 -42 c-22 -37 -24 -49 -18 -101 l7 -58 -31 -7 c-44 -9 -78 -40 -92
-82 -10 -32 -13 -35 -24 -19 -11 15 -15 13 -33 -19 -19 -31 -26 -35 -62 -35
-38 0 -40 2 -40 30 0 17 9 49 20 70 19 38 23 40 66 40 36 0 50 5 70 27 16 17
23 34 20 47 -3 11 1 27 8 36 8 8 17 29 21 47 6 29 1 38 -52 96 -48 53 -80 97
-101 139 -2 4 15 0 37 -9 24 -9 50 -13 67 -9 35 9 84 59 84 85 0 27 -6 26 -42
-4 -21 -18 -41 -25 -71 -25 l-42 0 25 20 c23 17 23 19 7 26 -10 3 -51 4 -91 2
-54 -4 -82 -11 -104 -27 -40 -28 -102 -54 -102 -42 0 5 18 25 40 44 35 29 40
39 40 75 0 61 32 93 98 100 29 2 52 7 52 11 0 14 -17 29 -47 45 -18 9 -33 20
-33 25 0 5 -14 14 -32 20 -26 9 -36 8 -57 -6 -39 -25 -50 -44 -51 -83 0 -27 5
-38 23 -45 17 -8 23 -20 25 -51 3 -35 -1 -45 -24 -63 -15 -11 -32 -21 -39 -21
-20 0 -42 -32 -54 -77 -12 -45 -34 -63 -75 -63 -32 0 -61 40 -52 73 9 37 49
90 84 112 19 11 35 31 38 47 4 15 15 36 25 47 13 14 19 35 19 68 0 28 7 58 16
71 21 30 81 68 124 77 57 12 90 34 107 70 21 43 31 44 69 4z m1422 -56 c4 -26
53 -70 88 -79 34 -9 19 -24 -24 -24 -67 0 -141 65 -127 110 9 30 59 24 63 -7z
m1961 -14 c36 -16 97 -39 135 -50 39 -10 77 -27 85 -36 24 -32 41 -82 41 -121
0 -59 26 -109 82 -161 43 -40 51 -52 54 -91 8 -81 -48 -118 -76 -50 -17 41
-35 54 -88 60 -42 5 -47 8 -54 37 -5 18 -17 37 -28 43 -11 6 -20 15 -20 20 0
17 26 11 45 -10 27 -30 37 -24 29 15 -4 25 -1 43 10 60 42 64 -2 191 -59 169
-16 -7 -145 -179 -145 -194 0 -5 22 -21 50 -35 52 -26 64 -47 58 -101 -3 -28
-2 -29 53 -35 71 -8 143 -57 162 -111 13 -37 -16 -28 -68 21 -50 47 -85 64
-85 41 0 -5 20 -32 45 -60 49 -55 55 -70 27 -70 -11 0 -33 20 -51 45 -42 59
-57 67 -32 16 12 -22 24 -61 28 -86 5 -41 4 -45 -16 -45 -13 0 -25 9 -30 23
-5 13 -16 29 -24 36 -25 21 -79 110 -75 123 3 7 23 -15 46 -49 40 -59 62 -83
62 -67 0 38 -40 119 -80 163 -42 45 -51 51 -87 51 -38 0 -43 -4 -66 -42 -22
-40 -30 -60 -54 -143 -6 -23 -15 -31 -36 -33 -36 -4 -55 -41 -39 -76 17 -38
57 -59 124 -65 l60 -6 3 -37 c1 -20 9 -48 18 -62 10 -14 17 -32 17 -40 0 -28
-62 -46 -104 -30 -8 3 -20 22 -27 42 -15 47 -34 69 -81 93 -62 31 -68 49 -67
187 l2 123 41 -6 c39 -5 44 -3 101 52 46 43 54 55 35 50 -54 -16 -133 -28
-145 -23 -11 4 -11 13 -4 39 7 25 5 46 -6 77 -13 38 -13 46 -1 65 21 33 73 39
156 19 38 -10 73 -14 77 -11 10 10 -45 64 -79 78 -24 10 -37 10 -64 0 -46 -17
-68 -2 -84 55 -13 45 -12 48 9 66 13 10 29 18 36 18 7 0 23 16 35 36 20 32 48
52 75 53 6 1 39 -13 74 -30z m-2512 -175 c-16 -32 -16 -37 -1 -65 20 -40 15
-103 -8 -107 -13 -3 -18 3 -18 20 0 28 -42 93 -70 108 -28 15 -25 40 4 40 32
0 76 37 76 64 0 37 14 40 24 6 7 -23 5 -40 -7 -66z m2228 11 c0 -36 -3 -41
-37 -57 -40 -19 -98 -89 -98 -118 0 -17 18 -40 32 -40 4 0 8 9 8 20 0 28 47
70 78 70 23 0 24 -3 17 -32 -4 -18 -11 -55 -15 -82 -10 -70 -46 -97 -161 -120
-15 -3 -37 -14 -50 -25 l-24 -19 38 -22 c30 -18 35 -25 26 -36 -18 -22 -67
-17 -94 11 -32 31 -33 79 -4 146 22 51 45 63 69 34 16 -19 99 -20 125 -2 25
19 11 37 -30 37 -22 0 -41 8 -54 22 -22 22 -55 111 -49 129 2 5 30 21 62 34
34 14 73 39 92 60 44 48 69 44 69 -10z m-355 8 c0 -16 -11 -53 -23 -83 l-22
-55 -65 -5 c-62 -5 -66 -7 -80 -37 -8 -18 -19 -33 -24 -33 -20 0 -46 34 -46
60 0 26 42 80 61 80 5 0 9 11 9 24 0 22 4 24 65 28 50 3 70 9 87 26 29 29 38
28 38 -5z m-2919 7 c10 -6 19 -15 19 -20 0 -13 -37 -13 -62 1 -17 9 -18 13 -7
20 18 11 26 11 50 -1z m2332 -77 c3 -21 9 -50 12 -65 10 -40 -16 -75 -65 -88
-31 -8 -47 -21 -66 -52 -25 -39 -27 -41 -40 -23 -16 21 -19 85 -4 85 16 0 80
61 80 76 0 8 9 22 20 31 11 10 20 23 20 31 0 21 20 53 29 47 5 -3 11 -22 14
-42z m1411 15 c21 -35 -47 -108 -101 -108 -41 0 -36 22 18 76 55 56 65 60 83
32z m-2465 -39 c6 -18 11 -48 11 -67 0 -48 18 -29 22 23 2 27 8 40 18 40 17 0
18 -27 3 -122 -12 -78 -33 -103 -85 -103 -25 0 -38 5 -38 13 0 8 -20 33 -46
55 -43 40 -45 44 -42 89 l3 48 44 6 c29 4 50 13 60 27 22 30 37 27 50 -9z
m1368 -26 c-4 -21 -9 -65 -13 -98 -5 -46 -14 -68 -35 -93 -16 -18 -29 -40 -29
-48 0 -10 9 -5 26 15 14 17 30 31 35 31 22 0 8 -81 -25 -142 -40 -76 -52 -142
-31 -178 14 -24 15 -23 13 27 -1 42 5 60 32 103 36 56 59 62 74 18 14 -40 -12
-147 -42 -175 -26 -24 -43 -87 -32 -119 6 -16 10 -13 27 21 26 50 58 79 78 72
16 -7 21 -42 6 -51 -5 -3 -7 -14 -4 -24 2 -10 -3 -24 -11 -31 -9 -8 -16 -20
-16 -27 0 -8 -8 -22 -19 -33 -17 -17 -17 -23 -6 -67 l12 -49 21 40 c30 57 47
75 67 75 26 0 13 -48 -33 -129 -26 -46 -44 -66 -57 -66 -17 0 -21 9 -25 55 -4
42 -13 65 -36 95 -26 33 -33 55 -43 125 -7 59 -20 103 -41 143 -34 65 -36 87
-15 147 8 23 15 61 15 83 0 23 9 54 21 73 11 19 25 63 30 98 10 73 36 146 51
146 7 0 8 -15 5 -37z m-1897 -25 c0 -4 18 -12 39 -18 25 -7 42 -18 46 -31 4
-11 29 -36 56 -56 58 -41 64 -71 23 -114 l-27 -28 -21 32 c-15 22 -41 40 -86
58 -49 19 -67 32 -77 55 -17 40 -16 67 4 109 16 33 18 35 30 19 7 -10 13 -21
13 -26z m1132 12 c18 -11 45 -20 61 -20 56 0 19 -71 -45 -84 -18 -3 -28 -11
-26 -18 9 -26 38 -18 81 21 39 37 67 51 67 36 0 -13 -30 -61 -48 -78 -10 -10
-32 -19 -48 -21 -16 -2 -41 -10 -56 -16 -23 -11 -31 -10 -57 7 -39 24 -81 81
-81 108 0 28 25 50 75 68 22 8 41 15 42 16 2 0 17 -8 35 -19z m241 -52 c3 -13
9 -57 13 -99 5 -63 4 -80 -11 -102 -24 -38 -76 -67 -119 -67 -41 0 -46 11 -13
33 l22 16 -25 1 c-14 0 -35 3 -46 6 -19 5 -21 2 -17 -20 4 -20 1 -26 -20 -31
-13 -4 -38 -5 -53 -3 -26 3 -29 6 -26 36 2 33 2 33 -20 18 -12 -9 -37 -16 -55
-16 -18 0 -33 -4 -33 -10 0 -5 11 -10 25 -10 14 0 25 -4 25 -10 0 -17 -103
-12 -129 6 -40 29 -53 75 -41 152 20 135 28 140 88 60 72 -96 107 -118 192
-118 73 0 94 13 141 82 70 105 91 121 102 76z m830 -20 c33 -24 34 -38 5 -66
-29 -26 -70 -42 -128 -47 -77 -8 -111 -40 -78 -73 9 -9 6 -12 -15 -12 -20 0
-27 5 -27 20 0 11 -6 23 -14 26 -8 3 -17 13 -21 22 -10 26 99 123 160 143 55
18 76 16 118 -13z m-1912 -49 c11 -22 23 -63 26 -90 5 -41 3 -49 -11 -49 -9 0
-21 12 -27 28 -5 15 -20 36 -33 47 -35 30 -40 57 -15 89 24 31 33 28 60 -25z
m-987 22 c3 -5 -22 -44 -55 -87 -48 -63 -67 -80 -92 -84 -23 -4 -39 -16 -57
-44 -25 -38 -25 -39 -28 -13 -2 17 6 39 24 62 14 19 23 35 20 35 -16 0 -53
-24 -73 -49 -24 -28 -31 -14 -12 22 23 44 63 77 114 92 28 8 69 28 91 44 41
31 59 37 68 22z m367 -57 c16 -15 38 -28 51 -29 13 -1 26 -3 29 -4 4 0 10 -17
13 -36 5 -26 17 -43 46 -63 34 -24 39 -33 46 -81 9 -69 -2 -99 -45 -122 l-34
-18 24 -9 c54 -21 79 -78 59 -136 -18 -55 -71 -81 -124 -60 -14 5 -12 11 9 36
23 28 30 52 25 88 -1 8 -28 42 -60 76 -59 61 -75 92 -68 135 5 37 34 34 83 -8
33 -28 44 -45 45 -66 0 -37 17 -26 31 21 10 35 9 39 -23 76 -18 21 -50 55 -70
76 -35 34 -88 119 -88 141 0 17 24 9 51 -17z m2034 -25 c28 -25 35 -38 35 -68
0 -50 -43 -139 -73 -150 -13 -5 -41 -32 -61 -61 -30 -42 -41 -51 -63 -48 -33
4 -41 24 -13 31 26 7 22 28 -21 95 -44 69 -35 114 10 55 26 -32 35 -26 20 15
-15 43 -5 65 12 27 l13 -30 4 43 c2 23 7 42 12 42 14 0 30 -60 30 -112 0 -56
15 -56 24 0 6 34 0 67 -19 116 -7 16 -4 17 23 11 39 -8 42 6 7 29 -14 9 -23
21 -20 26 12 19 45 10 80 -21z m-1722 -14 c18 -23 36 -35 52 -35 15 0 25 -6
25 -14 0 -19 44 -46 76 -46 44 0 64 -26 64 -82 0 -44 -3 -50 -32 -68 -38 -23
-53 -15 -62 35 -8 42 -39 65 -86 65 -45 0 -80 24 -80 55 0 13 -4 27 -10 30 -6
4 -10 -11 -10 -38 0 -71 31 -106 120 -139 43 -16 85 -38 98 -53 44 -52 17
-125 -48 -128 -27 -2 -34 2 -31 13 15 57 15 56 -50 80 -87 31 -119 65 -119
126 0 29 -7 59 -20 79 l-20 33 26 31 c14 17 23 34 21 38 -3 5 -1 18 4 31 13
34 49 28 82 -13z m-601 -34 c47 -56 101 -148 95 -164 -3 -7 -30 -19 -62 -26
-31 -7 -59 -18 -61 -26 -7 -18 -97 -74 -132 -81 -29 -6 -52 9 -32 21 6 4 -2
18 -20 35 -16 15 -30 36 -30 46 0 15 5 13 29 -10 34 -32 50 -20 21 17 -11 14
-20 34 -20 44 0 67 68 6 71 -64 2 -26 2 -25 9 7 l7 35 13 -33 c12 -33 13 -33
34 -14 11 10 36 25 54 32 75 29 83 72 22 120 -22 17 -40 40 -40 50 0 10 -4 22
-10 25 -15 9 -12 25 4 25 8 0 29 -18 48 -39z m1219 9 c4 -14 7 -42 8 -62 1
-47 16 -56 30 -18 15 44 41 39 41 -7 l0 -36 23 21 c29 27 37 28 37 3 0 -37
-13 -53 -56 -72 -35 -15 -44 -23 -44 -44 0 -14 -9 -34 -20 -45 -17 -17 -24
-18 -41 -10 -22 12 -33 34 -48 95 -6 23 -24 53 -43 70 -35 33 -88 103 -88 117
0 18 28 6 70 -29 24 -21 45 -33 47 -28 2 6 12 25 23 43 24 39 51 39 61 2z
m2164 -88 c-30 -56 -55 -108 -55 -117 0 -26 40 -18 50 11 12 30 34 27 38 -5 3
-16 8 -20 23 -16 15 5 19 2 19 -14 0 -29 11 -26 41 11 24 28 29 31 44 18 15
-12 12 -17 -25 -49 -30 -27 -38 -40 -31 -50 8 -12 16 -9 46 17 39 35 50 38 61
20 5 -7 -9 -26 -34 -49 -23 -20 -42 -42 -42 -48 0 -22 -29 -11 -52 20 -48 64
-67 79 -97 79 -75 0 -109 44 -68 88 14 15 36 50 50 78 26 51 76 118 83 111 2
-2 -21 -49 -51 -105z m-3485 70 c0 -15 -78 -73 -85 -63 -3 5 12 23 32 40 38
31 53 38 53 23z m2886 -47 c16 -60 6 -75 -63 -101 -43 -17 -45 -19 -40 -50 5
-26 2 -33 -15 -38 -40 -10 -58 10 -58 65 0 27 6 62 14 77 28 53 98 104 135 99
9 -1 20 -23 27 -52z m352 5 c9 -90 -31 -151 -128 -194 -33 -15 -64 -35 -70
-46 -12 -22 -5 -46 16 -54 25 -9 15 -26 -15 -26 -24 0 -31 6 -45 40 -9 22 -16
45 -16 50 0 5 34 43 76 84 51 51 74 81 72 95 -2 13 11 31 42 55 25 20 50 34
55 33 6 -2 11 -19 13 -37z m-2250 -20 c17 -21 32 -48 32 -59 0 -11 5 -23 10
-26 6 -4 10 8 10 29 0 42 17 48 26 10 11 -44 -2 -163 -20 -183 -9 -10 -16 -35
-16 -58 0 -25 -6 -46 -16 -54 -9 -8 -25 -33 -35 -57 -10 -24 -23 -40 -29 -37
-5 3 -10 31 -10 61 0 35 -7 69 -20 94 -24 48 -25 66 -4 74 19 7 50 -17 59 -45
11 -34 25 -20 25 24 0 33 -6 49 -25 67 -19 17 -25 34 -25 64 0 22 -5 54 -12
72 -11 31 -6 64 9 64 4 0 23 -18 41 -40z m-1098 15 c0 -11 -41 -85 -47 -85
-11 0 6 73 19 82 15 9 28 10 28 3z m140 -5 c0 -12 -59 -50 -77 -50 -23 0 -13
20 20 40 35 22 57 26 57 10z m64 -42 c18 -25 20 -38 7 -38 -15 0 -41 30 -41
46 0 21 17 17 34 -8z m3480 1 c14 -11 26 -27 26 -36 0 -11 -8 -8 -31 11 -17
14 -35 26 -40 26 -6 0 -7 5 -4 10 9 15 19 12 49 -11z m-3536 -31 c17 -17 15
-28 -7 -28 -22 0 -35 15 -26 30 8 13 18 13 33 -2z m2172 -90 c0 -17 -4 -27
-10 -23 -12 8 -12 8 -1 -33 16 -54 -2 -87 -64 -118 -32 -15 -62 -23 -73 -19
-19 5 -19 7 -4 37 14 29 14 36 -2 81 -10 27 -15 51 -13 53 2 3 19 -7 37 -22
l32 -27 -3 36 c-4 47 4 54 27 20 l18 -28 7 25 c4 14 8 41 8 60 l2 35 19 -24
c11 -13 20 -36 20 -53z m-752 15 c2 -13 6 -23 9 -23 2 0 13 10 24 23 l18 22 1
-30 c1 -46 13 -58 33 -35 25 29 40 25 35 -10 -6 -40 5 -38 25 5 9 19 21 35 27
35 15 0 13 -9 -16 -58 -18 -31 -25 -53 -21 -75 6 -42 -8 -67 -38 -67 -34 0
-77 41 -90 86 -7 26 -19 43 -38 52 -22 11 -27 20 -27 51 0 44 6 53 35 49 12
-2 21 -12 23 -25z m1491 3 c22 -27 -16 -76 -91 -119 -29 -16 -37 -25 -32 -39
6 -20 -20 -68 -36 -68 -14 0 -40 55 -40 84 0 17 11 32 33 47 17 12 34 24 37
26 2 2 4 16 5 31 0 18 8 30 25 39 34 17 85 16 99 -1z m-2759 -25 c0 -11 -25
-21 -53 -21 -12 0 -50 -23 -85 -51 -34 -28 -67 -49 -72 -47 -16 5 17 45 72 88
41 33 58 40 94 40 24 0 44 -4 44 -9z m1511 -48 l19 22 6 -23 7 -23 28 27 c37
35 46 26 21 -20 -24 -44 -18 -74 14 -82 26 -7 33 -34 9 -34 -9 0 -27 -7 -40
-16 -23 -15 -28 -15 -69 6 -26 12 -48 31 -52 43 -11 33 -5 108 9 125 10 13 13
10 21 -16 l9 -31 18 22z m212 26 c12 -7 29 -21 38 -33 16 -20 17 -20 24 12 3
18 11 32 16 32 17 0 40 -70 37 -113 -3 -35 -8 -44 -33 -57 -36 -18 -119 -20
-136 -3 -9 9 -6 19 15 43 33 39 33 60 1 90 -14 13 -25 27 -25 32 0 12 38 10
63 -3z m-1252 -54 c22 -19 50 -35 63 -35 18 0 29 -13 56 -64 30 -59 31 -67 20
-101 -16 -47 -47 -62 -101 -48 -50 13 -52 -3 -4 -35 43 -27 70 -80 61 -116 -8
-31 -52 -56 -101 -56 -19 0 -35 -3 -35 -7 0 -3 20 -25 45 -49 25 -23 45 -51
45 -62 0 -28 -34 -67 -72 -82 -18 -8 -35 -15 -37 -16 -2 -2 8 -19 23 -38 14
-19 26 -42 26 -51 0 -44 -51 -95 -95 -95 -27 0 -16 -18 25 -41 59 -33 62 -74
12 -131 -28 -33 -42 -22 -35 27 7 55 -10 79 -69 97 -68 20 -96 78 -62 126 21
31 30 28 59 -18 28 -44 49 -51 65 -21 20 38 12 68 -29 103 -89 76 -68 165 27
111 38 -22 62 -12 62 26 0 24 -12 40 -60 82 -33 29 -60 56 -60 60 0 5 13 23
29 41 l30 33 34 -33 c38 -37 70 -39 75 -6 2 16 -10 33 -43 60 -25 20 -53 50
-60 65 -13 24 -12 29 6 53 35 45 55 50 95 25 24 -15 39 -18 46 -11 19 19 3 47
-39 66 -43 21 -57 41 -68 99 -6 32 7 77 22 77 3 0 23 -16 44 -35z m569 -28
c17 -30 9 -50 -42 -106 l-31 -35 -18 23 c-26 32 -24 44 17 101 39 55 51 58 74
17z m615 -7 c-5 -8 -11 -8 -17 -2 -6 6 -7 16 -3 22 5 8 11 8 17 2 6 -6 7 -16
3 -22z m1363 -3 c2 -10 -8 -36 -22 -57 -28 -42 -33 -79 -16 -111 13 -24 49
-25 66 -1 20 27 36 2 36 -59 -1 -54 10 -85 37 -106 14 -11 14 -12 -4 -13 -12
0 -39 18 -60 41 l-40 41 23 15 c32 22 29 47 -5 40 -36 -7 -88 15 -103 43 -27
50 -5 154 37 179 25 15 47 9 51 -12z m-747 -51 c20 -54 18 -66 -12 -66 -22 0
-39 35 -39 79 0 59 26 53 51 -13z m-2046 9 c19 -19 35 -36 35 -39 0 -3 -12 -6
-27 -8 -36 -4 -33 -33 5 -67 15 -13 39 -34 55 -47 57 -50 21 -138 -62 -152
l-44 -7 47 -38 c37 -31 46 -44 46 -71 0 -63 -60 -94 -125 -64 -46 21 -40 -3
13 -52 28 -26 52 -53 52 -59 0 -28 -27 -63 -62 -78 -37 -16 -50 -44 -28 -58 6
-3 10 -13 10 -22 0 -20 -39 -63 -57 -63 -17 0 -16 5 3 35 19 30 9 53 -44 92
-48 36 -52 42 -52 79 0 67 51 63 70 -6 12 -44 31 -51 62 -23 23 21 23 39 -2
70 -11 14 -20 31 -20 38 0 7 -16 29 -35 50 -36 40 -51 81 -40 115 11 34 41 23
88 -32 31 -36 49 -49 61 -45 22 9 20 50 -4 72 -38 34 -82 113 -78 141 4 39 19
39 65 -1 48 -41 70 -44 83 -12 7 19 0 29 -51 77 -57 53 -65 70 -61 125 3 26
39 85 52 85 6 0 26 -16 45 -35z m2545 5 c30 -30 26 -59 -12 -75 -43 -17 -82
-60 -75 -79 8 -20 21 -20 37 -1 7 8 27 15 44 15 17 0 48 9 69 20 47 26 57 25
57 -3 0 -31 -25 -63 -71 -93 -47 -29 -75 -80 -65 -119 9 -37 36 -29 51 15 8
25 20 38 43 45 17 6 41 20 54 32 17 16 27 19 41 12 30 -17 19 -48 -39 -103
-50 -49 -55 -58 -52 -92 6 -67 63 -73 80 -8 16 63 104 112 129 73 14 -23 10
-58 -8 -73 -10 -8 -33 -27 -50 -41 -19 -15 -38 -43 -44 -66 -13 -42 -32 -47
-37 -11 -3 18 -10 22 -41 22 -44 0 -53 8 -76 70 -11 28 -36 62 -67 90 -39 36
-50 53 -54 85 -3 22 -21 72 -40 111 -34 68 -35 72 -21 106 18 43 73 85 115 87
6 1 21 -8 32 -19z m-2052 -54 c-1 -23 9 -47 32 -79 l33 -46 -19 -28 c-36 -53
-44 -75 -44 -117 0 -23 -7 -52 -16 -65 -11 -15 -18 -49 -20 -98 -2 -41 -7 -80
-12 -86 -5 -7 -12 -29 -16 -50 -6 -34 -10 -38 -34 -35 -32 4 -41 31 -18 54 24
24 19 56 -15 102 -39 53 -29 72 37 72 54 0 57 16 15 69 -56 72 -68 124 -31
136 25 8 40 -1 40 -24 0 -29 25 -45 40 -26 10 13 10 19 -2 33 -9 10 -18 47
-21 92 -6 65 -3 81 13 108 24 39 40 34 38 -12z m468 -40 c-9 -42 -29 -61 -92
-87 -39 -15 -58 -19 -66 -11 -17 17 5 65 41 87 18 11 47 32 64 47 30 25 33 26
45 10 8 -10 11 -29 8 -46z m935 54 c41 -22 9 -110 -40 -110 -15 0 -18 8 -17
50 1 33 6 54 16 60 19 12 17 12 41 0z m-1231 -62 c0 -28 -18 -58 -35 -58 -19
0 -21 70 -3 88 15 15 38 -3 38 -30z m494 2 c45 -17 33 -48 -43 -120 -38 -36
-71 -74 -73 -85 -4 -27 -44 -32 -57 -7 -25 46 43 171 114 210 25 14 28 14 59
2z m922 -42 c45 -30 49 -36 49 -73 0 -38 -2 -40 -32 -43 -18 -2 -33 1 -33 7 0
6 -13 25 -29 43 -35 40 -41 58 -29 81 12 23 18 22 74 -15z m-725 12 c24 -13
24 -43 0 -96 -15 -33 -30 -47 -76 -69 -65 -32 -90 -63 -81 -101 6 -22 4 -25
-15 -22 -12 2 -31 15 -42 30 -21 28 -22 22 20 103 5 11 20 42 33 68 37 76 108
115 161 87z m217 -31 c15 -23 51 -68 81 -101 49 -56 53 -63 48 -100 -6 -48
-22 -68 -53 -68 -29 0 -38 14 -19 30 20 17 19 54 -2 72 -10 8 -37 22 -59 32
-47 20 -75 53 -93 108 -7 21 -17 40 -22 44 -20 12 4 24 47 24 41 0 46 -3 72
-41z m172 11 c12 -17 43 -42 70 -55 46 -23 90 -66 90 -88 0 -18 -42 -57 -62
-57 -14 0 -18 8 -18 34 0 39 -8 46 -72 70 -67 25 -119 92 -91 119 18 18 63 6
83 -23z m270 -60 c11 -15 20 -39 20 -53 0 -31 -42 -67 -77 -67 -25 0 -25 1 -9
25 23 35 20 52 -16 85 -31 29 -32 31 -15 44 25 19 70 3 97 -34z m-1270 -30 c0
-11 -18 -31 -45 -50 -25 -17 -45 -36 -45 -42 0 -7 -5 -6 -15 2 -25 21 -17 50
24 92 34 34 43 38 60 28 12 -6 21 -19 21 -30z m-142 -26 c3 -35 -28 -82 -46
-70 -13 8 -16 64 -6 91 4 9 15 15 28 13 15 -2 22 -11 24 -34z m1792 1 c12 -32
1 -59 -43 -110 l-35 -40 -11 29 c-10 24 -8 36 10 70 23 46 48 76 61 76 5 0 13
-11 18 -25z m-882 -50 c23 -21 54 -59 67 -86 20 -38 34 -52 70 -68 39 -17 45
-24 45 -50 0 -20 -11 -41 -34 -65 -49 -53 -82 -45 -78 18 3 39 -27 70 -110
112 -70 35 -98 64 -98 101 0 16 8 25 25 29 17 4 25 13 25 28 0 46 17 42 88
-19z m-591 9 c20 -41 24 -36 -71 -101 -34 -24 -46 -39 -46 -58 0 -33 -27 -33
-42 0 -17 38 6 102 57 152 53 54 79 55 102 7z m1233 -4 c44 -44 30 -112 -26
-126 -32 -8 -39 -1 -22 25 11 18 10 23 -10 36 -21 16 -31 63 -15 78 13 14 54
6 73 -13z m-277 -98 c40 -42 67 -79 67 -91 0 -32 -44 -71 -80 -71 -34 0 -34 0
-18 34 9 22 8 29 -8 47 -10 12 -35 29 -55 40 -40 20 -52 38 -38 60 5 8 9 29 9
47 0 32 0 32 28 18 15 -8 57 -46 95 -84z m-513 39 c26 -50 1 -103 -61 -127
-23 -10 -51 -33 -68 -56 -28 -39 -29 -43 -16 -74 12 -28 11 -33 -2 -38 -29
-11 -67 17 -83 62 -13 38 -13 46 0 69 8 14 33 36 55 48 29 17 44 33 53 61 7
21 20 46 29 56 22 25 79 24 93 -1z m662 -7 c30 -16 31 -17 25 -76 -3 -36 -12
-67 -21 -76 -15 -15 -16 -13 -16 20 0 30 -5 37 -29 47 -15 7 -34 24 -42 38
-12 23 -11 27 10 44 28 23 34 23 73 3z m-964 -10 c31 -22 27 -45 -14 -85 -31
-30 -35 -39 -32 -76 3 -47 -5 -52 -39 -28 -62 43 -41 165 32 196 28 11 28 11
53 -7z m1390 -25 c2 -17 -9 -45 -27 -75 -46 -71 -39 -124 15 -124 19 0 27 11
45 60 12 33 26 63 32 67 14 9 37 -26 37 -56 0 -36 -38 -133 -57 -148 -12 -10
-14 -23 -9 -63 8 -59 -9 -68 -44 -22 -18 22 -21 36 -17 73 5 44 3 48 -34 85
-22 22 -41 51 -45 69 -12 68 37 169 80 163 14 -2 22 -11 24 -29z m-1871 6 c6
-18 -25 -58 -38 -49 -13 8 -11 38 3 52 16 16 27 15 35 -3z m111 -43 c3 -32
-40 -122 -59 -122 -5 0 -9 24 -9 54 0 85 60 145 68 68z m1616 -13 c-2 -69 -9
-119 -16 -119 -20 0 -40 52 -35 91 9 71 53 95 51 28z m614 -13 c5 -44 -5 -70
-48 -122 -22 -27 -40 -56 -40 -66 0 -31 23 -32 47 -2 13 16 32 39 43 52 10 12
28 22 39 22 33 0 29 -65 -5 -93 -56 -47 -64 -58 -64 -87 0 -22 -4 -28 -16 -23
-8 3 -17 18 -20 32 -3 15 -19 36 -35 46 -15 11 -36 35 -46 53 -18 32 -18 34 6
75 33 58 112 148 125 144 6 -2 12 -16 14 -31z m-1139 -43 c30 -60 55 -88 94
-107 47 -24 24 -131 -26 -124 -18 2 -23 11 -25 41 -3 35 -8 41 -46 58 -41 18
-43 21 -50 71 -16 134 4 156 53 61z m397 19 c27 -18 35 -51 19 -82 -9 -16 -23
-30 -33 -30 -17 1 -62 61 -62 84 0 29 48 47 76 28z m-663 -60 c15 -6 41 -32
59 -57 20 -28 44 -49 65 -56 57 -19 71 -74 26 -108 -57 -46 -110 -36 -78 13
31 48 -10 96 -82 96 -39 0 -93 60 -93 104 0 45 26 63 55 37 11 -9 32 -22 48
-29z m-949 -15 c0 -25 -3 -49 -6 -53 -15 -15 -28 11 -28 57 0 43 3 50 18 47
13 -3 17 -14 16 -51z m322 16 c22 -30 16 -50 -32 -99 -34 -36 -45 -53 -41 -71
6 -31 -10 -39 -33 -18 -46 41 -32 100 38 162 26 23 49 42 51 43 2 0 10 -8 17
-17z m1165 -42 c33 -33 38 -74 13 -109 -19 -27 -34 -29 -27 -3 3 14 -7 26 -39
48 -46 30 -57 55 -38 78 20 24 59 17 91 -14z m-658 -27 c6 -55 41 -96 97 -113
42 -12 50 -20 65 -66 7 -22 24 -37 60 -55 54 -27 63 -47 46 -93 -6 -16 -21
-29 -36 -33 -33 -8 -40 -1 -25 26 10 18 6 26 -28 60 -21 21 -52 42 -68 45 -52
12 -77 29 -97 70 -60 125 -77 144 -77 82 0 -25 -10 -42 -45 -76 -32 -31 -45
-51 -45 -71 0 -59 -25 -77 -62 -43 -21 19 -22 49 -4 118 10 37 20 53 40 63 36
18 54 56 36 77 -23 28 8 41 126 54 6 0 14 -20 17 -45z m-307 -9 c27 -64 20
-89 -37 -130 -49 -35 -50 -37 -44 -76 6 -35 5 -39 -14 -39 -38 0 -82 106 -52
124 5 3 12 18 16 33 6 24 89 117 108 121 4 1 15 -14 23 -33z m1583 1 c19 -41
-1 -100 -51 -151 l-40 -40 5 -70 5 -70 -17 52 c-9 28 -25 60 -35 71 -22 25
-18 38 41 155 49 95 67 105 92 53z m-431 12 c10 -10 17 -10 32 0 28 17 70 15
70 -3 0 -9 -12 -34 -26 -56 -14 -22 -24 -45 -21 -52 2 -6 14 6 26 27 31 49 64
48 69 -4 2 -19 8 -40 13 -47 16 -18 13 -86 -4 -119 -8 -16 -30 -40 -47 -53
-31 -22 -32 -26 -27 -75 l6 -51 -24 28 c-42 48 -33 139 21 219 17 24 24 46 22
65 -4 25 -5 26 -12 8 -4 -11 -12 -30 -17 -42 -10 -26 -41 -30 -58 -9 -7 8 -15
41 -18 73 -4 40 -12 62 -25 71 -10 7 -18 17 -18 23 0 13 24 11 38 -3z m-1540
-36 c3 -25 -4 -41 -27 -67 -16 -19 -34 -42 -40 -52 -9 -16 -12 -16 -21 -3 -16
22 -5 72 25 120 32 50 58 51 63 2z m-358 -26 c10 -24 23 -47 29 -50 6 -4 11
-20 11 -36 0 -61 -99 -94 -151 -51 -19 16 -22 22 -12 32 10 10 19 9 43 -9 35
-27 39 -27 56 -4 18 23 17 57 -2 72 -24 21 -36 49 -29 70 11 33 35 22 55 -24z
m1417 2 c23 -24 43 -54 45 -67 2 -17 16 -32 48 -48 24 -13 48 -29 52 -36 24
-38 -6 -103 -62 -132 l-29 -15 6 48 c5 48 5 48 -46 94 -52 47 -63 71 -36 82
12 4 11 12 -10 42 -24 36 -33 74 -17 74 4 0 26 -19 49 -42z m425 5 c38 -44 50
-151 23 -203 -9 -17 -17 -30 -20 -30 -2 0 -3 30 -2 66 2 59 -1 68 -20 81 -13
9 -23 23 -23 33 0 10 -7 23 -15 30 -12 10 -13 16 -4 26 16 19 43 17 61 -3z
m-1744 -22 c5 -34 -11 -45 -33 -21 -15 16 -16 22 -5 35 17 21 34 14 38 -14z
m110 7 c7 -7 12 -23 12 -36 0 -18 -5 -23 -21 -20 -27 4 -44 30 -36 52 7 19 28
21 45 4z m1450 -89 c2 -26 10 -40 27 -49 29 -16 39 -51 23 -84 -14 -32 -24
-33 -32 -2 -3 13 -24 40 -46 60 -43 39 -49 59 -24 94 23 34 48 24 52 -19z
m-2211 -5 c10 -15 27 -37 39 -49 43 -47 64 -78 64 -96 0 -27 -36 -59 -65 -59
-29 0 -31 7 -9 31 19 21 13 47 -20 87 -13 15 -26 38 -30 52 -4 14 -10 33 -12
43 -8 26 13 21 33 -9z m2983 -37 c0 -15 -11 -43 -25 -61 -16 -22 -28 -54 -34
-92 l-8 -59 -22 49 c-28 60 -23 92 26 170 33 54 37 57 50 40 7 -10 13 -31 13
-47z m-1900 2 c15 -27 5 -65 -26 -102 -30 -36 -27 -50 12 -57 21 -4 30 -12 32
-30 6 -37 -15 -93 -43 -120 -27 -26 -39 -21 -49 21 -4 21 1 32 29 58 40 36 38
51 -6 51 -29 0 -29 1 -29 54 0 59 12 101 37 128 21 23 30 23 43 -3z m-135 -9
c11 -18 -71 -140 -95 -140 -16 0 -20 51 -6 84 21 51 83 85 101 56z m-285 -29
c26 -50 1 -93 -41 -71 -17 10 -19 7 -19 -21 0 -31 -27 -89 -42 -89 -4 0 -8 15
-8 33 0 36 -16 55 -62 75 -33 14 -35 27 -9 42 13 7 28 7 46 0 38 -14 42 -13
72 20 31 35 48 38 63 11z m1695 -11 c20 -38 19 -79 -1 -87 -21 -8 -34 14 -34
58 0 19 -5 40 -12 47 -9 9 -7 12 10 12 14 0 27 -11 37 -30z m-1591 5 c8 -21
-4 -72 -20 -85 -26 -23 -48 62 -22 88 16 16 35 15 42 -3z m1210 -51 c20 -36
52 -81 71 -99 40 -37 43 -53 15 -86 l-19 -24 -1 30 c0 40 -7 48 -65 82 -36 21
-52 38 -59 60 -9 34 0 103 14 103 4 0 24 -30 44 -66z m1115 35 c20 -37 7 -76
-41 -120 -38 -35 -41 -40 -30 -63 6 -14 16 -26 22 -26 5 0 10 -7 10 -15 0 -23
-47 -18 -64 7 -31 45 -16 108 40 170 26 29 33 45 28 60 -9 29 17 19 35 -13z
m-1791 8 c6 -7 14 -32 18 -55 5 -34 3 -47 -12 -63 -24 -27 -112 -72 -124 -64
-17 11 -11 61 10 80 11 10 34 40 51 66 33 52 40 57 57 36z m390 -47 c79 -52
82 -56 82 -92 0 -32 -3 -38 -21 -38 -48 0 -119 60 -119 101 0 14 -6 32 -14 38
-15 12 -29 54 -17 49 4 -2 44 -28 89 -58z m-1480 38 c7 -7 12 -20 12 -31 0
-10 20 -39 45 -64 49 -49 63 -82 49 -122 -8 -21 -17 -27 -47 -29 -36 -3 -37
-4 -37 -46 0 -47 -27 -86 -60 -86 -26 0 -25 12 0 28 13 8 20 23 20 42 0 24 -8
35 -39 54 -44 28 -73 86 -43 86 9 0 28 -12 41 -26 19 -20 32 -24 64 -22 25 2
44 10 51 21 9 15 4 24 -36 60 -46 42 -76 102 -64 132 7 18 28 19 44 3z m1363
-24 c14 -38 5 -56 -54 -110 -29 -27 -57 -61 -64 -76 -7 -16 -16 -28 -21 -28
-32 0 -47 85 -20 117 7 9 28 22 45 30 22 9 35 22 39 41 14 57 57 72 75 26z
m1127 -9 c18 -39 15 -57 -16 -95 -55 -67 -59 -91 -24 -132 14 -16 13 -18 -6
-18 -36 0 -59 36 -65 98 -2 31 0 66 5 77 12 23 79 95 88 95 4 0 12 -11 18 -25z
m-2029 -113 c19 -45 11 -97 -14 -97 -17 0 -20 6 -17 34 1 19 -5 45 -14 58 -8
14 -13 31 -10 39 8 22 40 2 55 -34z m1550 22 c33 -27 39 -52 19 -72 -18 -18
-36 -15 -43 7 -3 11 -15 21 -27 23 -30 4 -45 32 -29 52 19 23 45 20 80 -10z
m-1254 -48 c-12 -65 -56 -96 -85 -61 -16 19 -5 48 33 92 29 33 32 34 45 16 8
-11 11 -30 7 -47z m1520 10 c7 -32 6 -45 -12 -75 -11 -20 -23 -57 -27 -83 -4
-29 -12 -48 -20 -48 -7 0 -25 -14 -40 -31 -19 -21 -31 -28 -38 -21 -21 21 -10
62 27 108 33 40 37 50 31 83 -4 29 0 45 20 75 31 45 46 42 59 -8z m-135 -6
c15 -27 12 -56 -6 -74 -20 -20 -34 -12 -27 14 3 11 -2 32 -12 46 -22 33 -13
59 15 44 11 -6 24 -19 30 -30z m450 -15 c0 -12 -14 -43 -31 -69 -30 -44 -31
-51 -25 -111 6 -55 4 -64 -9 -59 -28 11 -55 69 -55 119 0 43 4 51 45 92 25 24
45 51 45 60 0 13 3 13 15 3 8 -7 15 -22 15 -35z m-2319 -16 c36 -38 49 -60 49
-81 0 -39 -22 -78 -58 -105 -23 -17 -29 -28 -25 -44 4 -15 -1 -27 -18 -40 -39
-30 -50 -25 -43 22 5 32 3 46 -15 69 -42 57 -18 95 29 45 27 -29 42 -31 64 -9
27 26 18 54 -35 115 -28 32 -48 63 -44 69 14 23 50 8 96 -41z m1252 -49 c33
-22 37 -30 37 -68 0 -53 -18 -62 -60 -32 -26 19 -30 26 -25 54 5 27 2 34 -25
54 -17 13 -28 27 -25 33 4 5 4 9 0 9 -3 0 -10 -11 -14 -24 -6 -15 -20 -25 -40
-29 -42 -9 -71 -58 -71 -119 0 -57 -16 -62 -55 -21 -34 37 -32 56 10 87 28 21
35 34 35 60 0 29 4 34 38 44 20 6 46 18 56 25 17 13 24 11 61 -17 22 -17 57
-42 78 -56z m-933 70 c19 -10 43 -67 34 -81 -18 -30 -74 12 -74 57 0 33 11 40
40 24z m520 -2 c-1 -60 -14 -90 -49 -107 -41 -22 -61 -63 -50 -104 4 -15 4
-27 0 -27 -15 0 -41 37 -47 68 -6 28 -2 36 35 68 32 29 41 44 41 70 0 26 5 34
23 37 41 8 47 7 47 -5z m619 -3 c31 -16 41 -33 41 -72 0 -13 12 -44 26 -68 17
-29 24 -55 22 -77 -4 -48 -34 -43 -76 11 -31 41 -33 49 -30 107 2 48 -2 67
-15 82 -9 10 -14 22 -10 25 9 9 10 9 42 -8z m-79 -35 c21 -21 23 -29 14 -54
-10 -27 -29 -18 -47 22 -9 21 -17 42 -17 45 0 14 31 6 50 -13z m701 -42 c2
-36 -2 -52 -16 -68 -21 -25 -25 -95 -7 -114 28 -27 6 -28 -27 -1 -39 34 -40
61 -1 143 30 64 49 79 51 40z m358 -32 c-6 -20 -26 -55 -45 -75 -37 -41 -43
-71 -19 -91 21 -17 19 -30 -4 -30 -33 0 -51 28 -51 77 0 42 4 50 49 92 26 25
51 55 55 65 13 37 26 3 15 -38z m-747 27 c23 -21 25 -99 2 -131 -22 -31 -35
-27 -27 8 3 20 -1 45 -12 70 -27 59 -5 91 37 53z m-1527 -30 c15 -17 23 -34
19 -43 -4 -8 -12 -30 -18 -48 -7 -20 -22 -37 -42 -47 -58 -27 -67 -17 -35 36
14 22 17 42 13 71 -3 28 -1 43 9 49 21 13 26 11 54 -18z m316 -17 c8 -17 8
-29 0 -44 -6 -11 -11 -35 -11 -52 0 -24 -4 -31 -17 -28 -25 5 -40 54 -25 78 7
11 12 28 12 38 0 38 25 43 41 8z m149 8 c0 -9 -10 -32 -21 -51 -16 -26 -20
-44 -16 -74 6 -48 -15 -54 -38 -9 -23 44 -19 64 23 109 41 44 52 49 52 25z
m1190 -39 c0 -13 -8 -38 -19 -55 -17 -29 -19 -30 -35 -14 -29 28 -4 94 35 94
14 0 19 -7 19 -25z m-945 -4 c8 -27 -4 -69 -24 -84 -36 -25 -54 -66 -48 -107
4 -34 2 -40 -13 -40 -24 0 -60 46 -60 77 0 14 14 42 30 63 17 21 30 42 30 48
0 12 57 62 70 62 5 0 11 -9 15 -19z m-604 -7 c7 -8 13 -32 13 -53 1 -25 11
-52 31 -81 29 -41 29 -46 27 -144 -4 -120 21 -349 50 -461 17 -68 18 -90 10
-145 -5 -36 -10 -79 -10 -97 1 -20 -13 -52 -40 -92 -28 -42 -42 -76 -47 -113
-8 -59 -33 -128 -46 -128 -4 0 -9 24 -11 53 l-3 52 -13 -60 c-8 -33 -22 -80
-33 -104 -11 -25 -19 -66 -19 -97 0 -41 -5 -59 -25 -82 -14 -17 -25 -43 -25
-59 0 -31 -38 -92 -93 -150 -26 -27 -28 -33 -13 -33 10 0 34 9 52 21 26 16 34
17 34 7 0 -25 -54 -65 -95 -73 -22 -3 -61 -20 -86 -36 -25 -16 -55 -29 -66
-29 -24 0 -50 -26 -32 -32 8 -3 6 -19 -6 -56 -15 -44 -21 -52 -42 -52 -24 0
-25 3 -20 38 4 20 15 44 26 53 22 18 34 109 14 116 -6 2 -13 -6 -15 -19 -4
-29 -28 -30 -39 -2 -11 31 15 64 50 64 39 0 43 9 21 38 -39 49 -17 102 34 82
69 -26 150 1 180 58 8 16 18 53 21 83 3 30 8 65 11 77 3 13 1 21 -4 18 -6 -3
-13 -25 -16 -49 -7 -45 -39 -107 -55 -107 -20 0 -20 38 -1 94 20 58 18 110 -4
103 -6 -2 -16 -41 -23 -87 -13 -94 -32 -125 -59 -98 -15 15 -15 20 0 60 23 61
48 177 41 188 -14 22 -23 7 -30 -47 -9 -79 -15 -103 -27 -103 -13 0 -3 116 17
191 8 30 15 71 15 92 0 21 18 92 41 159 60 179 67 246 44 415 -10 76 -19 189
-19 252 l-1 114 43 14 c31 11 47 24 60 49 10 19 40 52 67 72 37 28 52 47 60
77 17 66 31 79 56 49z m110 -40 c8 -45 4 -52 -19 -38 -18 12 -27 46 -18 71 10
26 31 8 37 -33z m739 11 c0 -29 -48 -110 -79 -132 -20 -15 -32 -35 -37 -59
-12 -66 -64 -49 -64 22 0 42 30 77 83 98 31 12 50 27 63 51 20 37 34 45 34 20z
m223 4 c25 -11 47 -47 47 -75 0 -19 -48 -64 -69 -64 -13 0 -16 14 -18 75 -1
41 2 75 7 75 5 0 20 -5 33 -11z m283 -14 c7 -30 1 -40 -21 -32 -20 8 -20 57 0
57 8 0 17 -11 21 -25z m-419 -25 c58 -35 79 -90 35 -90 -13 0 -9 -6 12 -23 32
-26 29 -47 -8 -47 -35 0 -73 48 -81 104 -3 27 -9 55 -12 62 -7 20 17 17 54 -6z
m771 -23 c13 -21 14 -29 4 -39 -25 -25 -76 29 -52 56 17 21 27 17 48 -17z
m205 19 c3 -8 -9 -27 -29 -45 -36 -34 -43 -61 -19 -81 14 -12 33 -11 105 7 41
10 80 6 80 -8 0 -6 -12 -26 -27 -45 -26 -34 -26 -36 -10 -64 22 -36 21 -50 -1
-50 -32 0 -62 29 -62 60 0 16 5 32 10 35 6 3 10 12 10 19 0 8 -18 12 -56 12
-65 -1 -84 16 -84 75 0 59 67 127 83 85z m-723 -17 c14 -24 9 -32 -14 -23 -17
7 -23 44 -6 44 5 0 14 -9 20 -21z m-1631 -13 c6 -7 14 -34 17 -60 8 -53 -12
-86 -51 -86 -33 0 -37 24 -10 50 23 22 23 24 10 57 -8 20 -12 39 -9 44 8 13
30 11 43 -5z m199 -8 c15 -15 15 -51 0 -66 -7 -7 -24 -12 -39 -12 l-26 0 21
45 c23 48 26 51 44 33z m1842 -43 c0 -6 22 -27 50 -46 27 -19 50 -38 50 -42 0
-4 29 -36 64 -71 43 -42 68 -75 76 -102 16 -58 40 -375 29 -396 -10 -19 -12
-80 -13 -358 0 -204 18 -347 55 -426 23 -48 45 -65 99 -73 31 -6 36 -11 48
-51 7 -25 16 -56 20 -70 4 -14 27 -38 54 -55 54 -35 61 -46 48 -80 -12 -32
-30 -32 -30 0 0 32 -41 55 -65 35 -8 -7 -15 -19 -15 -27 0 -8 -6 -13 -12 -10
-7 2 -12 15 -10 28 6 49 2 82 -15 117 -27 54 -41 52 -35 -7 16 -168 -49 -170
-161 -4 -18 27 -40 69 -50 94 -10 25 -29 61 -42 79 -19 26 -25 46 -25 86 0 29
-4 56 -10 59 -5 3 -10 26 -10 51 0 25 -9 62 -19 82 -11 20 -24 48 -30 62 -6
14 -22 40 -35 58 -14 18 -27 51 -31 75 -4 23 -16 59 -27 81 -30 59 -39 133
-21 184 10 31 12 62 8 106 -5 46 -3 72 9 100 11 27 16 70 16 147 0 61 7 136
15 173 13 57 14 69 1 89 -15 25 -30 122 -20 138 7 12 34 -8 34 -26z m-197 -12
c4 -2 7 -16 7 -31 0 -15 7 -52 15 -82 8 -30 15 -77 15 -104 0 -64 -53 -321
-85 -416 -53 -153 -56 -173 -39 -261 8 -44 30 -126 48 -183 37 -113 50 -226
28 -248 -6 -6 -12 -36 -12 -65 0 -50 2 -55 32 -71 64 -35 70 -47 63 -118 -8
-68 -3 -76 24 -43 16 20 17 20 39 2 27 -22 45 -119 21 -111 -9 3 -13 16 -11
35 3 33 -19 59 -42 50 -12 -5 -13 -13 -5 -39 12 -45 12 -48 -11 -48 -12 0 -20
7 -20 18 0 9 -5 24 -10 32 -8 13 -11 12 -25 -5 -14 -18 -14 -15 -8 38 5 51 3
60 -17 82 -12 13 -25 38 -29 56 -5 26 -14 34 -51 48 -36 14 -45 21 -45 41 0
14 -4 36 -9 49 -5 14 -9 45 -11 70 -1 25 -14 75 -30 111 -26 59 -28 78 -33
215 -5 163 -15 212 -27 124 -4 -30 -22 -135 -41 -234 -25 -128 -33 -193 -29
-226 5 -36 1 -58 -16 -99 -12 -28 -23 -72 -23 -96 -1 -34 -5 -44 -16 -41 -25
5 -15 91 17 147 27 48 27 49 10 85 -9 19 -17 47 -17 60 0 21 44 281 85 500 21
111 21 498 0 575 -13 50 -13 56 2 68 9 6 28 12 41 12 16 0 45 20 85 60 55 53
65 59 92 54 17 -4 33 -8 38 -11z m377 -8 c10 -12 9 -20 -5 -41 -16 -25 -17
-25 -36 -8 -19 17 -25 45 -12 57 11 12 40 8 53 -8z m-570 -24 c7 -14 7 -22 0
-26 -13 -8 -40 13 -40 31 0 21 28 17 40 -5z m-1035 -136 c-18 -333 -19 -344
-33 -300 -13 40 -39 199 -43 265 -3 31 10 78 43 160 10 24 10 24 25 5 11 -16
13 -42 8 -130z m167 116 c41 -9 105 -60 144 -113 23 -31 25 -39 21 -128 -2
-52 -10 -135 -17 -185 -20 -154 12 -370 72 -471 12 -21 18 -46 16 -71 l-3 -38
-17 38 c-9 20 -22 37 -27 37 -13 0 -13 -2 -1 -35 6 -15 20 -74 31 -132 18 -88
20 -112 10 -144 -7 -21 -16 -39 -21 -39 -5 0 -17 26 -25 58 -34 122 -52 145
-36 46 10 -64 2 -98 -25 -108 -9 -4 -18 -5 -20 -3 -2 2 -9 39 -15 83 -17 115
-29 114 -29 -1 l0 -99 -41 -63 c-34 -51 -46 -83 -61 -161 -11 -53 -21 -108
-22 -122 -2 -17 -10 -26 -25 -28 -35 -5 -47 13 -31 43 11 21 11 29 0 49 -16
30 -38 40 -56 25 -16 -13 -19 -65 -4 -74 15 -9 12 -45 -4 -45 -35 0 -46 12
-46 54 0 57 19 90 54 94 35 4 76 -31 76 -66 0 -35 14 -18 17 21 9 98 11 92
-25 95 -32 3 -32 4 -26 40 9 51 12 54 44 47 49 -11 76 43 96 194 5 35 4 52 -3
48 -6 -4 -13 -33 -16 -66 -6 -68 -34 -117 -73 -127 -34 -9 -39 0 -28 43 11 44
31 53 43 21 6 -12 10 -18 11 -13 1 6 1 156 0 335 -1 276 -4 339 -20 421 -11
52 -24 142 -29 200 -6 57 -15 120 -20 139 -14 45 -14 119 0 159 17 47 56 59
131 42z m536 -31 c3 -40 -29 -100 -53 -100 -19 0 -31 48 -16 63 6 6 11 20 11
32 0 54 54 59 58 5z m172 2 c0 -29 -16 -52 -36 -52 -9 0 -9 10 -2 40 12 46 38
55 38 12z m460 -37 c22 -59 23 -182 1 -381 -12 -109 -26 -219 -32 -244 -14
-66 -76 -193 -90 -184 -13 8 -5 133 16 256 7 43 11 87 8 98 -3 11 2 31 10 44
9 13 16 39 16 57 0 60 29 343 36 362 10 24 24 21 35 -8z m-1852 -42 c27 -57
27 -60 24 -243 -3 -204 -7 -240 -27 -240 -7 0 -16 12 -19 28 -20 96 -38 263
-38 357 -1 169 15 195 60 98z m1004 20 c21 -20 38 -43 38 -50 0 -8 -9 -43 -21
-79 -17 -52 -19 -70 -10 -96 28 -81 1 -377 -43 -475 -40 -85 -56 -65 -56 67 0
41 -9 172 -21 292 -21 211 -21 218 -4 283 17 61 41 95 69 95 6 0 27 -17 48
-37z m1223 -8 c0 -22 -14 -28 -34 -16 -12 8 -13 12 -1 26 16 20 35 14 35 -10z
m-915 -27 c0 -14 -30 -48 -42 -48 -10 0 -11 44 -1 53 11 12 43 8 43 -5z m124
-4 c3 -9 6 -43 6 -77 0 -43 6 -74 20 -99 19 -35 19 -41 4 -170 -23 -214 -41
-295 -59 -276 -4 3 -17 47 -30 96 -25 94 -40 208 -51 380 -7 113 -3 125 51
148 40 18 52 17 59 -2z m884 -112 c13 -30 16 -71 15 -217 -1 -156 -5 -203 -32
-352 l-32 -172 36 -107 c19 -59 35 -116 35 -128 0 -12 14 -50 30 -85 46 -97
31 -106 -30 -17 -19 28 -35 45 -38 38 -6 -20 18 -79 49 -118 36 -46 37 -51 0
-25 -71 51 -105 122 -131 281 -14 85 -8 231 16 400 24 167 34 403 20 465 -8
30 -9 61 -4 74 6 19 11 20 29 11 11 -7 28 -28 37 -48z m-1090 -22 c25 -16 37
-18 47 -10 8 7 15 7 19 1 4 -5 9 -108 12 -228 6 -240 12 -296 54 -458 23 -90
27 -118 20 -155 -5 -25 -9 -70 -10 -100 0 -40 -10 -77 -35 -135 -19 -44 -35
-87 -35 -95 0 -8 11 -39 25 -68 27 -59 32 -118 12 -145 -11 -15 -29 -17 -142
-15 l-130 3 3 27 c1 14 -7 42 -18 61 -18 30 -19 39 -8 62 9 21 9 33 -2 58 -9
21 -15 73 -16 147 -1 63 -5 143 -9 177 -9 76 8 203 37 280 21 53 21 59 8 268
-11 178 -11 223 1 274 13 60 21 69 48 52 8 -5 26 -4 45 5 40 17 35 17 74 -6z
m-691 -638 c0 -151 2 -172 22 -217 26 -58 22 -102 -14 -149 -12 -17 -26 -41
-30 -53 -5 -19 -13 -23 -49 -23 -23 0 -47 -5 -54 -12 -20 -20 -27 2 -10 35 39
76 58 132 58 171 0 23 11 80 25 127 19 64 25 107 25 185 0 97 4 119 20 109 4
-3 7 -80 7 -173z m1330 -68 c16 -45 32 -203 33 -321 0 -77 -1 -83 -20 -83 -12
0 -34 7 -50 15 -24 13 -30 23 -35 70 -4 30 -6 113 -3 184 3 101 7 134 21 155
23 35 37 30 54 -20z m-333 -86 c3 -24 10 -81 17 -128 13 -97 13 -195 -2 -221
-10 -20 6 -105 22 -115 4 -2 18 18 30 46 24 55 22 54 50 40 25 -14 24 -48 -3
-77 l-21 -23 38 0 c51 0 75 -23 75 -72 0 -47 -15 -78 -37 -78 -11 0 -14 6 -8
23 24 75 14 103 -33 90 -30 -7 -34 -29 -12 -65 21 -35 18 -48 -11 -48 -21 0
-39 35 -39 77 0 15 -11 36 -26 50 -33 30 -39 25 -18 -17 12 -23 14 -40 8 -58
-13 -36 -34 -40 -34 -7 0 34 -17 65 -35 65 -19 0 -27 -33 -15 -65 11 -29 6
-45 -15 -45 -28 0 -34 77 -10 124 19 36 19 45 -1 67 -13 14 -13 21 -3 40 l12
23 21 -27 c23 -28 39 -36 31 -14 -3 6 -12 43 -19 80 -11 52 -12 75 -4 93 9 19
8 37 -1 73 -12 46 -5 123 15 194 9 30 23 18 28 -25z m-1149 -38 c-7 -30 -16
-79 -20 -107 -9 -71 -25 -78 -25 -11 1 66 13 121 35 154 23 36 26 27 10 -36z
m600 -201 c17 -168 19 -211 6 -189 -30 53 -52 327 -33 411 6 31 7 29 10 -21 1
-30 9 -121 17 -201z m993 131 c27 -82 38 -150 25 -150 -22 0 -38 35 -44 99 -4
36 -10 82 -14 101 -12 56 10 24 33 -50z m-1118 -218 c0 -60 1 -63 22 -57 18 6
20 4 13 -11 -21 -53 -13 -73 15 -39 18 22 50 19 50 -5 0 -13 -9 -22 -27 -26
-43 -10 -63 -33 -63 -73 0 -46 -10 -81 -22 -81 -6 0 -7 16 -3 40 4 23 3 46 -3
53 -5 7 -13 28 -16 47 -9 46 -27 90 -36 90 -4 0 -12 -12 -19 -27 -7 -15 -21
-33 -32 -41 -27 -19 -24 -30 13 -40 23 -6 36 -17 42 -35 11 -31 -1 -78 -23
-85 -10 -3 -12 4 -6 35 7 45 -9 67 -47 61 -21 -3 -23 -7 -20 -51 2 -37 -1 -49
-13 -54 -32 -12 -47 47 -23 90 7 12 18 57 24 100 14 93 26 111 71 104 30 -5
33 -3 33 19 0 14 10 38 22 55 21 28 24 29 35 13 7 -10 13 -46 13 -82z m-515
-2 c-4 -17 -10 -30 -15 -30 -14 0 -17 33 -7 64 8 24 11 26 19 12 5 -9 6 -30 3
-46z m1475 -12 c0 -5 -6 -8 -14 -8 -20 0 -46 39 -39 57 5 11 11 8 29 -14 13
-15 23 -31 24 -35z m210 51 c0 -14 -69 -42 -88 -34 -13 5 -12 8 3 25 19 21 85
28 85 9z m-2320 -113 c-5 -32 -17 -70 -27 -85 -10 -14 -24 -39 -33 -56 -18
-36 -53 -44 -81 -19 -29 27 -24 44 14 44 45 0 63 22 81 98 25 109 63 123 46
18z m690 43 c0 -43 -26 -94 -55 -107 -13 -6 -34 -25 -46 -41 -29 -39 -39 -26
-39 52 0 43 4 57 14 57 8 0 18 -4 21 -10 15 -25 46 -9 67 35 26 53 38 57 38
14z m110 7 c0 -13 -18 -50 -40 -82 -30 -44 -40 -69 -40 -99 0 -46 -9 -85 -19
-85 -4 0 -7 21 -7 48 1 46 0 47 -31 50 l-33 3 0 -50 c0 -28 -4 -51 -9 -51 -22
0 -29 76 -8 103 7 10 30 24 52 31 43 15 48 21 64 83 12 45 34 73 57 73 8 0 14
-10 14 -24z m1538 -61 c-4 -59 -21 -44 -23 21 -1 50 0 54 12 38 8 -11 13 -36
11 -59z m-50 17 c2 -25 -1 -42 -7 -42 -6 0 -11 10 -11 23 0 12 -3 33 -7 46 -4
18 -2 23 8 19 8 -3 15 -22 17 -46z m-2144 20 c15 -18 15 -20 -4 -37 -17 -15
-20 -26 -15 -56 6 -32 3 -39 -25 -63 -18 -14 -35 -24 -39 -22 -4 3 -13 30 -20
61 -12 51 -11 58 9 89 30 50 65 60 94 28z m2076 -19 c0 -13 9 -46 21 -73 16
-37 25 -47 39 -43 10 3 20 0 24 -5 3 -5 -5 -13 -18 -16 -31 -8 -40 -33 -21
-62 19 -30 19 -34 -4 -34 -20 0 -25 9 -36 75 -4 21 -15 56 -26 77 -36 71 -40
86 -23 102 20 21 44 9 44 -21z m714 5 c9 -13 16 -43 16 -69 l0 -46 70 -38 c72
-39 90 -67 75 -115 -11 -33 -24 -23 -27 23 -3 37 -6 42 -28 42 -22 0 -25 -4
-24 -35 1 -19 5 -46 9 -58 7 -21 5 -23 -16 -20 -14 2 -23 9 -21 18 13 59 6 91
-31 128 -20 21 -37 43 -37 49 0 16 -51 117 -62 121 -21 9 -5 22 26 22 25 0 39
-7 50 -22z m-104 -26 c34 -17 35 -19 44 -97 12 -116 12 -165 1 -165 -5 0 -11
24 -13 54 -3 49 -6 56 -43 85 -39 32 -79 95 -79 126 0 20 45 19 90 -3z m-1560
-87 c7 -8 14 -37 17 -65 3 -41 1 -50 -12 -50 -12 0 -15 9 -13 41 2 30 -2 44
-14 52 -37 24 -68 -54 -33 -83 19 -16 19 -30 0 -30 -31 0 -49 112 -23 138 17
17 63 15 78 -3z m1141 -74 c9 -27 8 -36 -4 -48 -22 -22 -34 -10 -40 44 -3 27
-8 59 -12 73 -6 24 -6 24 19 -5 14 -16 31 -45 37 -64z m-431 11 c0 -24 -1 -25
-16 -10 -10 9 -14 24 -10 33 9 23 26 9 26 -23z m-1301 16 c0 -7 -4 -22 -9 -33
-7 -18 -8 -19 -15 -2 -4 9 -5 24 -1 32 7 18 26 20 25 3z m146 -11 c0 -26 -20
-25 -23 2 -3 16 1 22 10 19 7 -3 13 -12 13 -21z m205 -7 c0 -16 -4 -30 -10
-30 -5 0 -10 14 -10 30 0 17 5 30 10 30 6 0 10 -13 10 -30z m770 -2 c0 -5 -4
-8 -10 -8 -5 0 -10 10 -10 23 0 18 2 19 10 7 5 -8 10 -18 10 -22z m527 -21 c3
-22 2 -37 -4 -37 -15 0 -36 57 -29 76 9 25 25 5 33 -39z m-2299 27 c37 -25 45
-50 27 -83 -14 -29 -50 -49 -63 -37 -3 4 2 20 11 36 14 23 15 34 7 50 -14 26
-27 25 -36 -2 -6 -19 -7 -19 -16 -5 -12 22 7 57 30 57 10 0 28 -7 40 -16z
m1212 0 c0 -9 -5 -14 -12 -12 -18 6 -21 28 -4 28 9 0 16 -7 16 -16z m1699 -19
c22 -25 31 -45 30 -68 -1 -32 -1 -31 -9 6 -9 46 -46 89 -59 69 -6 -10 -10 -9
-14 7 -8 33 17 26 52 -14z m-769 4 c0 -5 -4 -9 -10 -9 -5 0 -10 7 -10 16 0 8
5 12 10 9 6 -3 10 -10 10 -16z m-2309 -12 c-1 -4 -1 -16 -1 -28 0 -11 -4 -17
-10 -14 -14 8 -13 58 1 53 6 -2 10 -7 10 -11z m72 -34 c9 -21 9 -27 -1 -31 -6
-2 -12 -14 -12 -27 0 -23 -20 -34 -52 -27 -24 5 -23 24 2 40 11 7 20 23 20 35
0 44 25 50 43 10z m3007 -16 c0 -25 -19 -60 -21 -39 -2 15 -2 48 0 63 2 19 21
-2 21 -24z m118 -18 c4 -40 -12 -30 -22 14 -5 21 -3 28 6 25 7 -3 14 -20 16
-39z m-2198 14 c0 -4 -12 -19 -26 -34 -14 -15 -29 -42 -33 -61 -5 -26 -12 -34
-33 -36 -14 -2 -33 4 -42 13 -15 15 -14 19 3 54 22 42 37 57 66 64 32 8 65 8
65 0z m201 -22 c-17 -16 -31 -38 -31 -49 0 -21 -32 -38 -50 -27 -18 11 -11 33
21 70 23 25 39 35 61 35 l30 0 -31 -29z m104 19 c3 -6 -11 -30 -32 -54 -32
-37 -40 -42 -51 -31 -11 10 -12 17 -2 36 23 45 71 72 85 49z m-460 -11 c4 -6
-2 -20 -13 -32 -11 -12 -24 -34 -27 -49 -7 -25 -11 -28 -51 -28 -43 0 -44 1
-38 28 11 45 24 63 57 77 39 17 64 19 72 4z m237 -18 c-20 -19 -32 -39 -32
-55 0 -23 -4 -26 -35 -26 -39 0 -42 7 -19 53 26 51 34 57 77 57 l41 0 -32 -29z
m1813 11 c0 -18 -20 -15 -23 4 -3 10 1 15 10 12 7 -3 13 -10 13 -16z m-2324
-10 c-5 -10 -17 -24 -25 -31 -8 -7 -18 -26 -21 -42 -5 -24 -12 -29 -36 -29
-33 0 -37 15 -14 60 18 36 52 60 83 60 19 0 21 -3 13 -18z m133 9 c3 -4 -3
-16 -13 -25 -11 -10 -22 -28 -25 -42 -5 -20 -13 -24 -41 -24 -46 0 -46 21 -1
66 32 32 69 44 80 25z m1376 -6 c24 -13 70 -78 70 -100 0 -3 -15 -5 -34 -5
-35 0 -46 13 -46 50 0 11 -8 24 -19 29 -25 14 -35 41 -15 41 8 0 28 -7 44 -15z
m-1610 -5 c0 -5 -6 -10 -14 -10 -24 0 -46 -29 -46 -61 0 -25 -4 -29 -29 -29
-16 0 -31 6 -34 13 -8 23 15 67 42 82 30 16 81 20 81 5z m1548 -27 c32 -35 22
-39 -23 -8 -21 14 -44 25 -52 25 -8 0 -11 5 -7 11 10 17 56 1 82 -28z m182 27
c20 -10 60 -70 60 -89 0 -6 -17 -11 -41 -11 -35 0 -40 2 -34 19 4 13 -4 31
-26 55 l-31 36 27 0 c14 0 35 -4 45 -10z m142 -30 c44 -44 45 -63 5 -68 -24
-3 -30 2 -43 35 -9 21 -25 46 -37 55 l-22 18 29 0 c20 0 40 -12 68 -40z m132
-2 c20 -23 35 -47 33 -52 -2 -6 -19 -11 -38 -11 -27 0 -35 4 -37 21 -2 12 -12
30 -23 40 -26 24 -24 44 5 44 16 0 37 -14 60 -42z m-2224 30 c0 -2 -6 -23 -14
-48 -11 -37 -17 -45 -37 -45 -37 0 -37 37 1 69 27 22 50 33 50 24z m2340 -11
c27 -20 50 -60 50 -84 0 -36 -47 -32 -61 5 -6 15 -24 42 -42 60 l-31 32 35 0
c18 0 41 -6 49 -13z m97 7 c23 -6 53 -58 53 -93 0 -15 -6 -21 -24 -21 -18 0
-29 12 -50 51 -32 63 -28 76 21 63z m-847 -33 c245 -85 406 -298 418 -556 5
-125 -13 -208 -70 -318 -74 -142 -201 -247 -368 -303 -83 -28 -262 -26 -355 3
-187 59 -330 198 -403 391 -22 58 -26 83 -26 192 -1 139 9 182 72 304 72 138
231 261 389 301 86 22 259 14 343 -14z m-1685 10 c3 -6 -4 -15 -15 -21 -12 -6
-20 -21 -20 -36 0 -22 -4 -25 -27 -22 -35 4 -40 27 -13 61 21 27 63 36 75 18z
m2683 -45 c28 -43 31 -51 17 -58 -26 -15 -49 0 -82 58 l-32 55 32 -3 c26 -2
38 -13 65 -52z m115 12 c14 -18 18 -34 13 -53 -8 -31 -39 -31 -44 0 -2 11 -20
35 -40 53 l-37 32 44 -2 c34 -2 48 -9 64 -30z m91 1 c31 -25 38 -83 9 -77 -10
2 -19 12 -21 23 -2 11 -16 32 -30 48 -24 25 -25 27 -5 27 11 0 32 -9 47 -21z
m-3024 -8 c-5 -11 -7 -27 -4 -35 4 -12 0 -16 -15 -16 -16 0 -21 6 -21 28 0 34
7 42 32 42 15 0 17 -3 8 -19z m3128 -13 c15 -15 16 -58 2 -58 -6 0 -13 8 -17
18 -3 9 -13 25 -21 35 -14 15 -13 17 4 17 11 0 25 -5 32 -12z m76 -4 c18 -18
21 -50 5 -60 -15 -9 -26 5 -34 44 -7 35 4 42 29 16z m-2250 -50 c23 -23 20
-42 -15 -76 -23 -24 -33 -28 -39 -18 -4 7 -13 9 -19 5 -8 -4 -9 -11 -2 -18 6
-8 -2 -21 -29 -41 -32 -24 -37 -32 -27 -46 13 -21 -14 -70 -38 -70 -8 0 -15
-7 -15 -15 0 -8 5 -15 11 -15 8 0 10 -12 6 -35 -4 -25 -2 -35 8 -35 26 0 34
-60 10 -80 -13 -10 -31 -9 -100 10 -47 13 -85 26 -85 30 0 11 -72 10 -92 -1
-12 -6 -18 -6 -18 1 0 5 -9 10 -20 10 -15 0 -23 13 -36 58 -9 31 -27 75 -40
97 -13 22 -30 69 -38 104 -14 60 -14 65 2 77 16 12 16 13 0 19 -10 4 -18 11
-18 15 0 18 215 37 432 39 121 1 149 -2 162 -15z m1493 -24 c-9 -33 -8 -42 7
-59 27 -30 54 -35 81 -17 20 13 25 25 25 57 0 36 2 39 20 29 11 -6 22 -26 26
-48 4 -20 13 -41 21 -47 10 -8 11 -18 2 -49 -7 -26 -7 -41 -1 -45 6 -4 7 -23
2 -51 -10 -56 -47 -90 -97 -90 l-35 0 22 -18 c19 -16 21 -22 11 -40 -15 -29
-7 -28 21 2 13 13 40 33 62 44 21 12 47 35 57 51 16 26 25 31 58 31 81 0 102
-52 46 -118 -30 -36 -31 -46 -4 -83 23 -33 42 -36 88 -13 41 20 106 12 152
-19 23 -16 39 -38 52 -75 16 -47 17 -61 7 -122 -9 -53 -16 -71 -31 -75 -10 -4
-19 -15 -19 -26 0 -10 -15 -36 -33 -56 -19 -21 -44 -65 -57 -98 -33 -82 -45
-95 -92 -95 -33 0 -38 3 -38 23 0 13 9 32 20 42 11 10 20 25 20 33 0 16 90
132 103 132 4 0 7 20 7 44 0 26 6 48 15 56 8 7 15 17 15 23 0 6 -15 -3 -32
-20 -18 -17 -50 -36 -72 -43 -44 -14 -119 -9 -141 10 -14 12 -14 15 4 34 28
30 41 70 41 124 0 67 -16 85 -23 28 -7 -52 -28 -97 -64 -140 -22 -26 -22 -30
-8 -46 21 -23 19 -41 -10 -110 -14 -33 -25 -79 -25 -103 0 -25 -3 -59 -6 -76
-6 -30 -8 -31 -57 -31 -48 0 -49 1 -34 18 20 22 22 83 5 100 -9 9 -8 12 4 12
9 0 18 -5 20 -12 2 -6 10 -8 16 -4 20 12 14 61 -13 100 -14 20 -25 47 -25 59
l0 21 -16 -22 c-9 -13 -13 -30 -10 -39 4 -8 2 -21 -2 -27 -5 -6 -12 -24 -16
-41 -4 -16 -25 -60 -47 -96 -36 -61 -43 -67 -80 -73 -59 -9 -66 1 -26 43 39
39 77 126 76 169 l-1 27 -10 -27 c-6 -17 -17 -28 -29 -28 -24 0 -25 -17 -2
-22 16 -3 15 -6 -5 -26 -12 -12 -21 -32 -19 -44 1 -18 -4 -23 -28 -28 -25 -5
-30 -10 -30 -35 l0 -30 -180 -2 c-160 -2 -177 -1 -155 12 14 7 36 11 48 8 20
-5 23 -2 20 15 -2 14 17 42 62 89 112 119 129 139 136 167 4 16 13 26 25 26
10 0 19 5 19 10 0 6 -4 10 -10 10 -16 0 -11 40 5 46 9 4 13 13 10 23 -3 9 2
55 10 101 8 47 15 100 15 119 0 29 2 32 15 21 18 -15 20 -60 3 -60 -8 -1 -6
-6 5 -14 9 -7 17 -18 17 -24 0 -5 -8 -13 -17 -17 -17 -6 -17 -7 0 -16 21 -12
23 -39 2 -39 -20 0 -19 -18 1 -22 16 -3 54 -88 54 -120 0 -10 7 -18 15 -18 9
0 20 -12 25 -26 7 -18 15 -24 26 -20 9 3 22 6 29 6 7 0 30 23 50 50 34 47 51
87 69 165 l7 30 -19 -30 c-10 -17 -27 -53 -36 -82 -9 -28 -28 -63 -41 -77 -26
-28 -55 -34 -55 -12 0 12 55 116 107 205 l15 26 -21 -24 c-12 -13 -40 -55 -64
-92 -43 -71 -68 -85 -86 -51 -8 15 1 30 52 83 34 36 71 81 81 99 14 26 2 16
-50 -37 -38 -40 -77 -73 -87 -73 -9 0 -17 2 -17 5 0 3 32 35 71 72 38 37 75
76 81 87 6 12 -21 -9 -59 -46 -38 -38 -76 -68 -86 -68 -26 0 -20 16 16 39 l32
21 -32 -6 c-43 -8 -41 1 5 43 l37 33 -36 -6 c-51 -8 -60 12 -15 31 19 8 45 15
57 15 27 0 20 24 -9 28 -12 2 -32 -4 -44 -12 -25 -18 -64 -21 -73 -7 -3 5 9
11 27 13 28 2 33 7 33 28 0 20 -6 26 -30 31 l-30 6 28 13 c30 15 34 25 12 34
-26 10 -19 83 10 110 29 27 31 39 10 56 -17 14 -20 50 -5 50 5 0 7 6 4 14 -5
14 28 56 45 56 4 0 3 -18 -2 -40z m-2205 -19 l-3 -45 21 27 c27 34 40 34 40 2
0 -17 4 -23 15 -19 23 9 29 -21 9 -51 -9 -14 -14 -29 -10 -33 4 -3 11 0 16 8
7 12 12 12 22 2 9 -9 7 -18 -10 -41 -14 -19 -18 -32 -11 -36 6 -4 16 1 24 11
13 18 14 18 20 2 4 -10 0 -24 -9 -33 -22 -23 -20 -28 9 -21 34 9 33 -16 0 -38
-32 -21 -23 -39 16 -31 23 5 29 3 29 -10 0 -9 -10 -25 -22 -36 -25 -20 -10
-26 23 -9 15 9 19 7 19 -5 0 -9 -13 -21 -30 -26 -39 -14 -30 -28 18 -29 20 0
55 -1 77 -1 22 -1 61 2 87 6 39 6 55 3 103 -20 61 -28 102 -29 141 -1 23 17
25 88 4 152 -13 40 -12 43 13 74 15 17 27 42 27 55 0 31 114 149 135 141 24
-9 18 -22 -27 -60 l-42 -36 22 -23 c29 -31 28 -51 -3 -65 -27 -13 -32 -27 -12
-36 9 -3 7 -9 -6 -19 -12 -10 -14 -17 -8 -22 16 -9 13 -41 -4 -55 -10 -9 -12
-16 -5 -25 5 -7 7 -29 2 -55 -10 -59 -38 -77 -139 -92 -46 -7 -83 -15 -83 -19
0 -4 7 -12 15 -19 9 -8 15 -29 15 -55 0 -35 8 -54 45 -104 26 -35 57 -66 73
-71 49 -17 77 -37 73 -51 -2 -8 -6 -22 -8 -31 -4 -14 1 -18 19 -18 31 0 68
-62 68 -113 0 -37 -12 -47 -56 -47 -21 0 -23 3 -14 19 17 33 11 54 -31 111
-45 60 -166 140 -211 140 -46 0 -127 31 -173 65 -25 19 -47 35 -50 35 -3 0 -5
-11 -5 -24 0 -29 -35 -57 -59 -49 -9 3 -32 20 -51 38 -19 18 -43 35 -53 38 -9
4 -27 22 -38 42 -12 19 -22 35 -24 35 -1 0 0 -23 3 -50 4 -48 3 -52 -39 -94
-35 -35 -54 -46 -91 -51 -68 -10 -85 -25 -69 -62 6 -16 10 -44 9 -63 -3 -31 0
-35 24 -38 18 -2 30 -12 38 -33 7 -16 10 -32 7 -35 -12 -13 -66 9 -93 37 -25
26 -29 39 -30 88 -1 32 -4 64 -8 70 -10 15 42 61 76 68 46 9 53 27 30 73 -26
52 -19 110 19 163 31 42 30 57 -3 57 -18 0 -19 5 -15 43 3 23 10 66 17 96 8
40 9 66 1 97 -6 24 -11 55 -11 69 0 14 -7 28 -15 32 -25 9 -26 0 -4 -45 l21
-42 -21 -40 c-12 -22 -21 -47 -21 -55 0 -24 -28 -17 -46 11 -15 21 -15 31 -6
58 7 18 12 46 12 64 0 17 5 34 10 37 6 3 8 16 4 29 -3 14 1 27 10 35 9 8 16
24 16 37 0 17 8 27 24 34 13 5 27 14 31 20 4 6 30 10 63 8 l57 -3 -3 -44z
m2102 15 c-4 -16 -1 -25 10 -29 20 -8 21 -27 1 -27 -8 0 -15 -7 -15 -15 0 -8
5 -15 10 -15 6 0 10 -9 10 -20 0 -11 -4 -20 -10 -20 -5 0 -10 -7 -10 -15 0 -8
4 -15 10 -15 18 0 -1 -94 -22 -112 -11 -10 -24 -18 -28 -18 -11 0 -43 108 -42
138 1 13 -4 22 -13 22 -15 0 -19 10 -16 43 1 9 -3 17 -10 17 -14 0 -38 30 -39
49 0 8 -8 20 -17 27 -15 11 -3 13 85 14 l102 0 -6 -24z m181 -16 c0 -33 -40
-41 -50 -11 -9 28 2 43 28 39 16 -2 22 -10 22 -28z m172 24 c13 -4 20 -11 16
-20 -3 -9 2 -14 17 -14 11 0 18 5 15 10 -3 6 1 10 9 10 9 0 16 -9 16 -20 0
-21 26 -28 32 -8 3 7 22 2 55 -17 38 -21 49 -33 45 -47 -5 -19 23 -27 30 -8 2
5 18 0 36 -11 33 -21 44 -59 17 -59 -8 0 -15 -7 -15 -16 0 -10 6 -14 15 -10
10 4 15 -1 15 -14 0 -11 -7 -20 -15 -20 -8 0 -15 -7 -15 -15 0 -9 6 -12 15 -9
10 4 15 0 15 -15 0 -12 -6 -21 -15 -21 -8 0 -15 -7 -15 -15 0 -8 7 -15 15 -15
8 0 15 -7 15 -15 0 -9 -7 -18 -15 -21 -17 -7 -21 -34 -5 -34 6 0 10 -7 10 -16
0 -14 -9 -16 -66 -11 -74 6 -82 10 -63 33 11 13 11 18 2 21 -15 5 -18 43 -3
43 16 0 12 27 -5 34 -8 3 -15 10 -15 16 0 5 7 10 15 10 21 0 19 19 -2 26 -87
29 -120 48 -116 65 6 20 -16 26 -33 9 -13 -13 -31 1 -39 33 -5 17 -3 27 4 27
6 0 11 7 11 15 0 8 -6 15 -14 15 -18 0 -30 71 -13 82 14 9 16 9 44 2z m-2896
-85 c39 -53 54 -177 54 -449 0 -244 -1 -258 -24 -325 -28 -82 -39 -75 -16 10
11 45 15 115 15 286 0 244 -14 369 -50 439 -34 67 -19 95 21 39z m3351 -74
c16 -86 17 -763 1 -810 -9 -28 -11 -25 -17 35 -20 192 -34 848 -19 863 11 12
21 -14 35 -88z m-3256 13 c14 -60 18 -133 22 -404 4 -351 -2 -423 -39 -466
l-20 -23 6 30 c31 158 31 643 -1 888 -9 74 12 57 32 -25z m3418 -82 c26 -125
32 -370 12 -496 -9 -58 -23 -127 -30 -155 l-13 -50 -6 35 c-3 19 -8 213 -11
430 -5 390 -4 394 14 355 10 -22 26 -75 34 -119z m-90 31 c10 -139 11 -597 2
-692 -17 -169 -27 -47 -32 390 -5 372 -4 418 10 402 8 -11 17 -51 20 -100z
m-3260 -82 c22 -129 24 -136 27 -85 l4 55 38 -40 c36 -37 38 -43 33 -86 -9
-84 -47 -148 -59 -101 -3 12 -5 9 -6 -8 -2 -24 -46 -89 -54 -80 -5 6 -27 413
-26 480 1 72 16 24 43 -135z m3456 9 c5 -49 10 -130 10 -181 0 -93 -25 -285
-41 -313 -5 -9 -9 85 -9 221 0 370 16 481 40 273z m-3646 -214 c1 -181 -2
-261 -11 -275 -9 -16 -12 42 -12 280 1 230 3 294 12 275 7 -16 11 -115 11
-280z m2576 146 c0 -3 -4 -8 -10 -11 -5 -3 -10 -1 -10 4 0 6 5 11 10 11 6 0
10 -2 10 -4z m40 -6 c0 -5 -4 -10 -10 -10 -5 0 -10 5 -10 10 0 6 5 10 10 10 6
0 10 -4 10 -10z m1100 -120 c0 -21 -6 -43 -14 -49 -12 -10 -15 -3 -21 38 -8
58 -1 78 21 60 8 -6 14 -28 14 -49z m-3760 -55 c0 -13 -8 -33 -17 -44 -18 -21
-18 -20 -19 46 l-2 67 19 -23 c10 -13 19 -33 19 -46z m-60 -2 c0 -20 -3 -24
-11 -16 -7 7 -9 19 -6 27 10 24 17 19 17 -11z m1280 -34 c0 -7 -8 -18 -17 -25
-17 -12 -16 -13 5 -14 13 0 22 -6 22 -15 0 -8 -7 -15 -15 -15 -8 0 -15 -7 -15
-15 0 -18 26 -20 33 -2 3 6 6 2 6 -10 1 -12 11 -44 24 -69 16 -35 19 -48 10
-51 -21 -7 -15 -21 11 -25 18 -2 43 -32 99 -116 51 -77 71 -115 62 -118 -7 -3
-34 -4 -61 -2 -45 3 -49 5 -52 31 -2 15 1 27 7 27 6 0 11 5 11 10 0 6 -8 10
-19 10 -22 0 -91 107 -91 142 0 18 -8 27 -33 36 -18 7 -39 12 -47 12 -20 0
-49 30 -44 45 3 7 -4 18 -15 25 -27 14 -27 30 -1 30 21 0 27 15 10 25 -6 4
-17 1 -25 -5 -12 -10 -15 -9 -15 3 0 8 -3 29 -6 46 -5 26 -3 32 17 40 35 14
139 14 139 0z m-870 -28 c0 -5 -9 -12 -19 -16 -13 -4 -21 -17 -23 -38 -3 -29
-6 -32 -38 -32 -29 0 -34 3 -32 20 2 11 13 32 24 47 15 21 28 28 54 28 19 0
34 -4 34 -9z m-35 -133 c7 -7 4 -14 -9 -22 -63 -38 -64 -41 -71 -143 -7 -93
-23 -143 -46 -143 -6 0 -5 9 3 23 9 14 13 65 13 152 0 72 3 135 8 142 8 13 86
6 102 -9z m285 -44 c26 -10 40 -23 40 -34 0 -16 11 -18 97 -19 119 -2 173 -14
173 -41 0 -14 7 -19 28 -18 35 0 81 -18 110 -44 29 -28 31 -92 3 -108 -12 -6
-123 -10 -291 -10 -299 0 -342 7 -337 52 1 14 -3 22 -11 20 -9 -1 -10 6 -6 24
6 25 5 26 -20 20 -23 -6 -26 -3 -26 18 0 42 10 55 60 71 26 9 63 31 82 50 38
40 43 41 98 19z m2610 -19 c0 -12 -63 -42 -80 -38 -10 3 -21 0 -24 -6 -4 -6 0
-11 8 -11 13 0 12 -7 -5 -47 -39 -93 -63 -133 -82 -133 -13 0 -17 -6 -15 -22
2 -17 -2 -23 -17 -23 -15 0 -19 6 -17 23 2 15 -2 22 -12 22 -21 0 -20 17 0 28
14 8 14 10 0 25 -22 21 -20 37 4 37 11 0 20 7 20 15 0 8 -7 15 -16 15 -10 0
-14 6 -11 14 3 8 11 32 16 53 l10 38 73 -3 c40 -2 84 1 98 7 28 11 50 14 50 6z
m-2123 -72 c16 -6 83 -93 83 -107 0 -6 -7 -29 -14 -51 -14 -41 -38 -54 -73
-40 -14 5 -12 10 12 35 21 22 26 34 21 55 -12 48 -54 100 -91 114 -19 7 -33
17 -30 22 4 5 22 2 43 -7 20 -9 42 -18 49 -21z m2257 -22 c26 -36 26 -41 13
-63 -9 -12 -19 -40 -22 -60 -4 -21 -13 -38 -20 -38 -7 0 -20 -3 -29 -6 -26
-10 -31 24 -7 50 23 24 27 57 10 84 -11 18 3 72 19 72 5 0 21 -18 36 -39z
m-540 -70 c-5 -22 -10 -29 -17 -22 -7 7 -6 18 3 36 17 32 22 27 14 -14z m456
16 c0 -7 -7 -22 -15 -33 -8 -10 -15 -32 -15 -47 0 -16 -4 -26 -10 -22 -14 9
-12 89 2 103 16 16 38 15 38 -1z m-2900 -120 c0 -7 -5 -18 -12 -25 -8 -8 -8
-15 2 -28 12 -14 11 -16 -9 -12 -13 1 -30 13 -38 25 -13 20 -12 23 14 37 35
19 43 20 43 3z m81 -31 c-8 -10 -9 -16 -1 -21 5 -3 10 -11 10 -16 0 -17 -42
-6 -54 14 -9 15 -7 22 13 38 28 23 53 11 32 -15z m83 15 c3 -5 -1 -14 -9 -21
-7 -6 -11 -18 -8 -26 6 -17 -9 -18 -25 -2 -16 16 -15 45 1 51 20 8 35 8 41 -2z
m90 0 c3 -5 -1 -12 -10 -15 -9 -4 -14 -13 -10 -21 8 -22 -18 -18 -40 6 -16 17
-16 22 -4 29 19 12 57 13 64 1z m111 -15 c-24 -20 -28 -27 -17 -37 18 -19 15
-29 -11 -29 -24 0 -67 33 -67 50 0 14 59 38 95 39 l30 1 -30 -24z m103 3 c-22
-17 -26 -24 -18 -39 14 -27 12 -40 -7 -40 -20 0 -53 28 -53 46 0 19 52 53 80
53 l25 0 -27 -20z m192 11 c0 -5 -8 -13 -17 -19 -17 -9 -17 -11 0 -39 23 -40
22 -42 -18 -42 -24 0 -37 6 -45 19 -15 29 -13 39 15 66 24 25 65 34 65 15z
m360 0 c17 -12 9 -20 -50 -52 -25 -14 -29 -22 -25 -41 5 -17 2 -26 -10 -31
-21 -7 -65 36 -65 64 0 11 1 20 3 20 1 0 29 11 62 25 69 28 66 28 85 15z
m1974 -9 c17 -18 15 -41 -3 -41 -7 0 -31 43 -31 55 0 11 18 3 34 -14z m-2439
-4 c-15 -12 -16 -19 -7 -45 10 -30 9 -32 -12 -32 -26 0 -46 17 -46 41 0 21 37
49 64 49 19 0 19 0 1 -13z m199 4 c3 -5 -3 -11 -14 -14 -22 -6 -26 -36 -10
-68 15 -26 -13 -26 -40 1 -27 27 -25 44 6 69 28 22 49 27 58 12z m405 0 c11
-7 1 -16 -37 -35 -59 -30 -67 -39 -52 -65 13 -26 -1 -35 -41 -26 -38 9 -60 49
-38 69 14 15 126 65 144 65 6 1 16 -3 24 -8z m-279 -10 c0 -5 -9 -12 -19 -16
-30 -9 -47 -33 -33 -47 21 -21 13 -38 -18 -38 -53 0 -70 69 -22 94 30 17 92
21 92 7z m2059 -13 c28 -29 14 -45 -15 -17 -13 12 -24 26 -24 31 0 15 19 8 39
-14z m-1721 4 c9 -6 5 -12 -14 -21 -23 -10 -26 -16 -21 -45 5 -31 3 -35 -21
-39 -20 -4 -32 0 -44 15 -25 29 -23 33 25 67 45 32 55 35 75 23z m1662 -17
c20 -22 21 -25 6 -31 -15 -6 -55 29 -56 49 0 16 28 6 50 -18z m-1580 -5 c0 -5
-4 -12 -10 -15 -5 -3 -7 -18 -4 -34 7 -33 -15 -47 -47 -31 -27 15 -24 51 8 76
26 20 53 22 53 4z m564 -1 c50 -39 57 -89 12 -89 -32 0 -49 15 -42 37 4 13 -1
26 -14 38 -11 10 -20 22 -20 27 0 15 37 8 64 -13z m95 -10 c18 -17 31 -41 31
-55 0 -20 -5 -24 -29 -24 -24 0 -28 3 -24 20 3 11 -4 30 -16 46 -41 52 -11 63
38 13z m521 -9 c17 -32 13 -70 -9 -70 -14 0 -17 6 -14 24 4 18 -2 32 -21 50
-18 16 -23 26 -14 29 18 6 45 -9 58 -33z m254 8 c5 -14 6 -34 2 -44 -7 -17 -9
-17 -21 6 -18 32 -19 73 -2 68 6 -3 16 -16 21 -30z m68 15 c22 -19 24 -53 3
-53 -16 0 -35 30 -35 54 0 20 9 20 32 -1z m-1018 -24 c14 -17 26 -34 26 -38 0
-15 -25 -31 -51 -31 -22 0 -26 4 -22 23 3 14 -3 29 -15 40 -19 17 -19 17 -18
-20 1 -34 -2 -38 -24 -41 -24 -3 -26 0 -27 38 -1 25 3 40 10 41 23 1 61 10 66
14 11 12 31 3 55 -26z m306 6 c20 -22 22 -28 12 -51 -10 -21 -18 -25 -45 -22
-27 2 -31 7 -29 25 2 12 -4 34 -14 48 l-16 25 34 0 c24 0 42 -8 58 -25z m88
-2 c40 -35 36 -73 -7 -73 -34 0 -44 9 -29 27 8 10 6 19 -11 36 -11 13 -21 26
-21 30 0 16 38 5 68 -20z m68 19 c18 -13 44 -56 44 -74 0 -13 -8 -18 -25 -18
-21 0 -25 5 -25 29 0 17 -4 33 -10 36 -12 7 -14 35 -2 35 4 0 12 -4 18 -8z
m144 -19 c29 -27 30 -29 15 -50 -9 -13 -27 -23 -41 -23 -20 0 -24 5 -24 28 0
16 -8 32 -20 40 -29 18 -25 32 10 32 18 0 41 -10 60 -27z m185 11 c19 -19 17
-79 -3 -79 -14 0 -54 80 -44 89 10 11 30 6 47 -10z m95 -3 c17 -32 12 -61 -10
-61 -21 0 -40 27 -40 59 0 27 35 28 50 2z m-1285 -41 c-1 -48 -7 -54 -40 -46
-30 8 -50 49 -36 75 7 12 19 16 43 13 32 -4 34 -6 33 -42z m102 20 c21 0 24
-4 21 -32 -3 -31 -6 -33 -37 -31 -37 1 -55 16 -66 52 -7 23 -5 24 25 17 18 -3
43 -6 57 -6z m139 -16 c9 -33 -6 -46 -47 -42 -27 2 -35 8 -37 27 -4 28 12 41
50 41 21 0 29 -6 34 -26z m-1063 -89 c1 -5 -11 -12 -27 -13 -27 -3 -28 -2 -16
13 14 17 40 17 43 0z m80 8 c11 -10 -13 -33 -34 -33 -21 0 -26 26 -6 33 18 8
33 8 40 0z m170 0 c12 -11 -14 -33 -39 -33 -26 0 -30 10 -12 28 13 13 41 16
51 5z m75 -10 c-4 -22 -58 -31 -58 -10 0 20 10 27 37 27 18 0 24 -5 21 -17z
m80 0 c-2 -11 -14 -19 -31 -21 -29 -4 -35 6 -15 26 19 19 50 15 46 -5z m80 0
c-4 -22 -58 -31 -58 -10 0 20 10 27 37 27 18 0 24 -5 21 -17z m100 0 c-2 -13
-15 -19 -46 -21 -41 -3 -43 -2 -32 17 14 28 83 31 78 4z m112 10 c-1 -26 -72
-54 -85 -34 -13 22 8 41 46 41 21 0 39 -3 39 -7z m100 -13 c-6 -11 -16 -20
-23 -21 -7 0 -21 -2 -31 -4 -29 -5 -37 4 -26 26 8 14 21 19 51 19 37 0 39 -2
29 -20z m131 8 c0 -10 2 -10 6 0 5 14 93 17 93 3 0 -31 -14 -41 -56 -41 -28 0
-44 4 -44 12 0 9 -3 9 -12 0 -14 -14 -98 -16 -98 -3 0 32 14 41 61 41 32 0 49
-4 50 -12z m187 -13 c-9 -19 -19 -25 -45 -25 -33 0 -38 6 -27 34 4 11 19 16
45 16 38 0 38 -1 27 -25z m90 4 c4 -23 -46 -35 -66 -16 -8 9 -11 20 -7 27 10
17 69 8 73 -11z m-1538 1 c0 -5 -4 -10 -10 -10 -5 0 -10 5 -10 10 0 6 5 10 10
10 6 0 10 -4 10 -10z m65 0 c-3 -5 -15 -10 -26 -10 -11 0 -17 5 -14 10 3 6 15
10 26 10 11 0 17 -4 14 -10z m60 0 c-3 -5 -15 -10 -26 -10 -10 0 -19 5 -19 10
0 6 12 10 26 10 14 0 23 -4 19 -10z m60 0 c-3 -5 -15 -10 -26 -10 -11 0 -17 5
-14 10 3 6 15 10 26 10 11 0 17 -4 14 -10z m70 0 c-3 -5 -15 -10 -26 -10 -10
0 -19 5 -19 10 0 6 12 10 26 10 14 0 23 -4 19 -10z m243 -2 c-7 -20 -58 -23
-58 -4 0 11 10 16 31 16 20 0 29 -4 27 -12z m1140 -5 c-4 -22 -44 -29 -64 -13
-24 21 -16 30 27 30 33 0 40 -3 37 -17z m102 3 c0 -18 -33 -30 -60 -21 -37 12
-23 35 20 35 28 0 40 -4 40 -14z m70 0 c0 -8 -7 -17 -16 -20 -22 -8 -22 -8
-34 14 -10 18 -8 20 20 20 19 0 30 -5 30 -14z m70 0 c0 -16 -19 -25 -37 -18
-23 8 -14 32 12 32 15 0 25 -6 25 -14z m80 0 c0 -19 -30 -29 -46 -15 -22 18
-16 29 16 29 19 0 30 -5 30 -14z m70 -1 c0 -9 -9 -15 -25 -15 -16 0 -25 6 -25
15 0 9 9 15 25 15 16 0 25 -6 25 -15z m78 -3 c3 -10 -4 -13 -24 -10 -15 2 -29
9 -32 16 -3 10 4 13 24 10 15 -2 29 -9 32 -16z m72 2 c0 -10 -7 -14 -22 -12
-32 5 -35 28 -4 28 17 0 26 -5 26 -16z m68 -2 c3 -9 -2 -13 -14 -10 -9 1 -19
9 -22 16 -3 9 2 13 14 10 9 -1 19 -9 22 -16z m67 7 c10 -15 -1 -23 -20 -15 -9
3 -13 10 -10 16 8 13 22 13 30 -1z m60 1 c3 -5 -3 -10 -15 -10 -12 0 -18 5
-15 10 3 6 10 10 15 10 5 0 12 -4 15 -10z m58 -7 c-7 -2 -19 -2 -25 0 -7 3 -2
5 12 5 14 0 19 -2 13 -5z m54 1 c-3 -3 -12 -4 -19 -1 -8 3 -5 6 6 6 11 1 17
-2 13 -5z m50 0 c-3 -3 -12 -4 -19 -1 -8 3 -5 6 6 6 11 1 17 -2 13 -5z m-2289
-73 c2 -12 1 -35 -3 -50 l-7 -26 -19 24 c-19 23 -25 61 -12 75 14 13 38 0 41
-23z m124 -10 c19 -38 14 -61 -13 -61 -23 0 -39 29 -39 70 0 42 29 37 52 -9z
m133 14 c3 -14 7 -36 10 -50 5 -21 2 -25 -19 -25 -27 0 -42 14 -51 52 -9 34 0
48 30 48 18 0 26 -7 30 -25z m131 -23 l22 -42 -25 -6 c-33 -9 -54 5 -66 40
-23 69 33 76 69 8z m113 34 c7 -8 15 -31 18 -51 l6 -36 -39 3 c-34 3 -39 7
-47 37 -4 18 -6 40 -3 47 7 18 50 18 65 0z m139 -13 c17 -23 15 -72 -3 -79
-33 -13 -61 5 -74 46 -6 22 -9 45 -5 51 9 15 66 3 82 -18z m908 -29 c9 -39 8
-46 -6 -54 -34 -18 -59 -1 -66 47 -7 50 2 63 40 56 17 -4 24 -15 32 -49z m662
28 c4 -28 -23 -62 -50 -62 -18 0 -18 2 -4 22 9 12 16 33 16 46 0 31 34 26 38
-6z m-2338 -9 c0 -16 -5 -35 -10 -43 -9 -13 -12 -12 -25 4 -26 34 -18 66 17
66 13 0 18 -7 18 -27z m1578 -25 l3 -48 -35 0 c-31 0 -36 4 -46 35 -17 52 -8
67 37 63 38 -3 38 -3 41 -50z m207 2 c0 -44 0 -45 -33 -45 -30 0 -35 4 -48 40
-7 22 -14 41 -14 42 0 5 39 11 65 10 29 -2 30 -4 30 -47z m119 44 c37 -14 4
-94 -39 -94 -19 0 -24 7 -30 40 -4 21 -4 44 0 50 7 11 44 13 69 4z m120 -16
c15 -57 3 -78 -45 -78 -16 0 -19 7 -19 50 0 48 1 50 29 50 21 0 30 -6 35 -22z
m-1104 -14 c0 -44 -17 -64 -55 -64 -32 0 -35 3 -35 29 0 50 9 61 51 61 35 0
39 -3 39 -26z m105 -14 c0 -28 -5 -36 -27 -44 -34 -12 -58 6 -58 44 0 36 8 42
50 38 33 -3 35 -5 35 -38z m115 13 c0 -35 -9 -48 -37 -55 -30 -8 -46 14 -38
52 6 26 11 30 41 30 30 0 34 -3 34 -27z m90 -14 c0 -39 -1 -40 -32 -37 -30 3
-33 6 -36 41 -3 36 -3 37 32 37 35 0 36 -1 36 -41z m126 17 c8 -32 -11 -66
-37 -66 -39 0 -59 19 -59 55 0 35 0 35 45 35 39 0 45 -3 51 -24z m104 5 c5
-11 10 -31 10 -45 0 -24 -4 -26 -39 -26 -35 0 -40 3 -50 31 -18 52 -15 59 29
59 29 0 42 -5 50 -19z m735 8 c13 -20 -5 -59 -31 -65 -33 -8 -37 -3 -29 40 6
29 12 36 31 36 12 0 26 -5 29 -11z"/>
<path d="M1898 6966 c-34 -18 -108 -78 -108 -88 0 -22 56 -5 91 27 23 21 49
35 65 35 15 0 39 -14 61 -35 31 -30 63 -46 63 -31 0 11 -45 82 -59 94 -20 16
-80 15 -113 -2z"/>
<path d="M2478 6954 c-30 -16 -80 -83 -72 -96 9 -15 23 -8 55 27 38 41 77 46
116 15 14 -11 35 -20 46 -20 19 0 18 3 -9 31 -26 28 -81 60 -101 59 -4 -1 -20
-7 -35 -16z"/>
<path d="M2200 6256 c0 -24 -22 -30 -36 -11 -19 25 -27 13 -13 -18 15 -34 40
-43 56 -21 15 21 17 64 3 64 -5 0 -10 -6 -10 -14z"/>
<path d="M2460 6162 c0 -15 -11 -43 -25 -62 -25 -34 -25 -53 0 -44 24 10 45
52 45 94 0 22 -4 40 -10 40 -5 0 -10 -13 -10 -28z"/>
<path d="M2011 6124 c-1 -19 6 -38 19 -49 28 -25 38 -10 13 18 -12 12 -23 31
-26 42 -3 14 -5 10 -6 -11z"/>
<path d="M2143 2480 c-312 -56 -523 -351 -469 -658 37 -213 190 -388 396 -453
92 -29 241 -29 330 -1 201 65 351 232 395 437 19 89 19 128 -1 222 -25 120
-66 196 -159 288 -80 81 -147 122 -244 151 -58 18 -184 25 -248 14z m87 -60
c13 0 32 8 43 18 20 17 20 16 13 -28 -18 -110 -36 -258 -36 -295 0 -49 -9 -85
-21 -85 -5 0 -9 17 -9 38 0 28 -35 275 -51 358 -4 22 2 26 19 11 10 -10 29
-17 42 -17z m-70 -33 c0 -38 29 -243 46 -324 13 -66 -13 -30 -55 75 -24 59
-61 142 -82 185 -22 43 -39 80 -39 83 0 2 18 1 39 -2 32 -5 42 -2 57 14 24 28
34 19 34 -31z m173 33 c19 -22 57 -26 75 -8 21 21 14 -1 -52 -166 -36 -89 -68
-174 -71 -191 -6 -29 -5 -28 15 8 26 46 116 274 125 316 6 30 25 44 25 19 0
-23 34 -48 65 -48 33 0 55 -15 55 -39 0 -24 31 -51 59 -52 l26 0 -29 -22
c-179 -136 -310 -247 -292 -247 10 0 192 140 259 199 58 51 80 58 70 22 -7
-27 14 -61 37 -61 42 0 16 -18 -92 -62 -62 -25 -147 -62 -190 -81 -72 -34 -77
-35 -92 -18 -15 16 -12 23 47 97 84 105 181 244 174 250 -6 6 -131 -152 -195
-248 -25 -38 -48 -68 -51 -68 -18 1 -50 13 -47 19 6 10 35 225 42 319 4 45 10
82 13 82 4 0 14 -9 24 -20z m-272 -126 c22 -53 57 -135 79 -182 37 -79 39 -87
24 -103 -15 -16 -23 -12 -139 76 -68 51 -141 106 -164 121 -43 28 -52 44 -24
44 24 0 53 30 53 55 0 24 23 40 52 36 25 -3 56 16 63 40 4 11 9 18 12 15 3 -3
23 -49 44 -102z m-160 -141 c41 -32 112 -85 157 -117 45 -32 80 -61 77 -66 -3
-5 -47 10 -98 34 -50 23 -135 57 -187 76 -52 18 -96 34 -98 35 -2 2 10 16 27
32 23 23 28 35 23 59 -4 24 -3 27 9 18 8 -6 48 -38 90 -71z m822 -72 c-4 -32
-1 -41 18 -54 12 -9 21 -19 18 -21 -2 -3 -61 -12 -129 -21 -69 -9 -159 -23
-200 -31 -89 -17 -82 -16 -78 -4 2 6 46 28 98 49 52 21 133 57 180 79 47 22
88 41 92 41 3 1 4 -16 1 -38z m-670 -102 c78 -28 88 -45 20 -35 -115 17 -281
35 -320 36 -48 0 -53 7 -23 33 21 18 27 61 10 72 -6 4 -8 10 -5 14 2 5 60 -15
127 -44 68 -29 153 -63 191 -76z m242 -4 c54 -54 13 -145 -65 -145 -32 0 -80
53 -80 88 0 72 94 109 145 57z m469 6 c3 -5 -1 -14 -9 -21 -20 -16 -19 -54 1
-75 24 -23 14 -26 -45 -15 -45 8 -321 40 -351 40 -5 0 -10 4 -10 9 0 4 48 14
108 21 59 7 148 20 197 30 50 10 93 18 97 19 4 1 9 -3 12 -8z m-864 -36 c58
-8 124 -15 147 -15 23 0 48 -3 57 -6 29 -11 17 -24 -21 -24 -21 0 -112 -11
-202 -25 -91 -14 -167 -23 -170 -20 -2 3 1 11 7 17 17 17 15 58 -5 81 -18 20
-17 20 32 13 28 -4 97 -13 155 -21z m600 -69 c63 -8 148 -17 188 -21 39 -4 72
-9 72 -11 0 -2 -9 -13 -20 -24 -22 -22 -25 -42 -10 -71 14 -26 9 -25 -88 17
-46 20 -129 53 -185 74 -56 21 -103 44 -105 50 -3 8 2 10 14 6 11 -3 71 -12
134 -20z m-380 6 c0 -5 -33 -21 -72 -37 -132 -51 -301 -129 -289 -133 14 -5
101 29 259 100 108 49 113 50 127 32 7 -10 10 -23 5 -29 -99 -126 -170 -221
-198 -262 -37 -56 -52 -66 -52 -34 0 26 -26 51 -55 51 -26 0 -39 22 -36 62 2
20 -5 31 -26 45 -39 24 -41 29 -35 78 4 36 1 45 -17 54 -11 7 -21 15 -21 19 0
4 53 13 118 20 64 8 149 19 187 26 89 17 105 18 105 8z m415 -95 c77 -30 152
-57 168 -61 28 -7 38 -26 14 -26 -22 0 -45 -32 -49 -68 l-3 -33 -85 68 c-47
38 -122 95 -167 127 -45 33 -80 63 -77 67 3 5 17 3 32 -5 15 -8 90 -39 167
-69z m-69 -58 c55 -42 118 -88 142 -104 44 -29 53 -45 25 -45 -24 0 -53 -30
-53 -55 0 -24 -23 -40 -52 -36 -24 3 -58 -17 -58 -34 0 -22 -29 -33 -71 -28
-29 4 -41 1 -55 -16 -10 -11 -21 -21 -25 -21 -3 0 -9 37 -12 83 -4 45 -16 136
-26 201 -11 66 -18 124 -15 128 3 5 29 -49 58 -119 79 -192 110 -257 114 -245
4 13 -77 220 -120 305 -28 56 -28 60 -12 78 16 18 18 18 39 1 12 -9 67 -51
121 -93z m-326 -26 c-26 -60 -60 -145 -76 -190 -16 -46 -32 -83 -36 -83 -4 0
-10 9 -13 20 -7 21 -46 36 -80 31 -15 -2 -17 0 -8 11 72 90 172 222 204 269
22 33 44 57 48 54 5 -3 -13 -53 -39 -112z m64 25 c-7 -40 -19 -131 -25 -203
-7 -71 -13 -132 -15 -133 -1 -2 -12 6 -23 17 -22 22 -65 28 -76 11 -4 -6 -10
-8 -15 -5 -4 3 13 53 39 113 27 59 61 144 77 189 37 105 55 110 38 11z m50 -5
c4 -43 16 -134 27 -201 20 -123 20 -147 -3 -124 -17 17 -59 15 -81 -5 -19 -18
-19 -17 -15 17 3 19 13 100 22 180 25 204 26 210 35 210 5 0 11 -35 15 -77z"/>
<path d="M1910 2323 c0 -19 239 -318 247 -309 6 6 -78 121 -175 239 -62 74
-72 85 -72 70z"/>
<path d="M2197 1952 c-23 -26 -21 -58 5 -76 29 -21 51 -20 71 2 22 24 21 55
-1 75 -24 22 -55 21 -75 -1z"/>
<path d="M2025 1764 c-132 -101 -207 -165 -201 -172 6 -6 204 142 276 207 74
66 32 46 -75 -35z"/>
<path d="M2310 1816 c-1 -21 238 -321 248 -312 6 6 -145 208 -207 276 -22 25
-40 41 -41 36z"/>
<path d="M1535 2380 c-3 -5 3 -10 15 -10 12 0 18 5 15 10 -3 6 -10 10 -15 10
-5 0 -12 -4 -15 -10z"/>
<path d="M1190 2371 c0 -5 7 -11 15 -15 9 -3 15 0 15 9 0 8 -7 15 -15 15 -8 0
-15 -4 -15 -9z"/>
<path d="M1270 2370 c0 -5 7 -10 15 -10 8 0 15 5 15 10 0 6 -7 10 -15 10 -8 0
-15 -4 -15 -10z"/>
<path d="M1320 2370 c0 -5 7 -10 15 -10 8 0 15 5 15 10 0 6 -7 10 -15 10 -8 0
-15 -4 -15 -10z"/>
<path d="M1370 2370 c0 -5 7 -10 15 -10 8 0 15 5 15 10 0 6 -7 10 -15 10 -8 0
-15 -4 -15 -10z"/>
<path d="M1410 2370 c0 -5 6 -10 14 -10 8 0 18 5 21 10 3 6 -3 10 -14 10 -12
0 -21 -4 -21 -10z"/>
<path d="M1470 2370 c0 -5 7 -10 15 -10 8 0 15 5 15 10 0 6 -7 10 -15 10 -8 0
-15 -4 -15 -10z"/>
<path d="M1025 2361 c-7 -12 12 -24 25 -16 11 7 4 25 -10 25 -5 0 -11 -4 -15
-9z"/>
<path d="M1087 2364 c-8 -8 1 -24 14 -24 5 0 9 7 9 15 0 15 -12 20 -23 9z"/>
<path d="M1147 2364 c-8 -8 1 -24 14 -24 5 0 9 7 9 15 0 15 -12 20 -23 9z"/>
<path d="M1320 2305 c0 -8 7 -15 15 -15 8 0 15 7 15 15 0 8 -7 15 -15 15 -8 0
-15 -7 -15 -15z"/>
<path d="M1370 2305 c0 -8 7 -15 15 -15 8 0 15 7 15 15 0 8 -7 15 -15 15 -8 0
-15 -7 -15 -15z"/>
<path d="M1415 2311 c-7 -12 12 -24 25 -16 11 7 4 25 -10 25 -5 0 -11 -4 -15
-9z"/>
<path d="M1020 2300 c0 -5 9 -10 20 -10 11 0 20 5 20 10 0 6 -9 10 -20 10 -11
0 -20 -4 -20 -10z"/>
<path d="M1090 2300 c0 -5 7 -10 15 -10 8 0 15 5 15 10 0 6 -7 10 -15 10 -8 0
-15 -4 -15 -10z"/>
<path d="M1140 2300 c0 -5 7 -10 15 -10 8 0 15 5 15 10 0 6 -7 10 -15 10 -8 0
-15 -4 -15 -10z"/>
<path d="M1200 2300 c0 -5 7 -10 15 -10 8 0 15 5 15 10 0 6 -7 10 -15 10 -8 0
-15 -4 -15 -10z"/>
<path d="M1260 2300 c0 -5 9 -10 20 -10 11 0 20 5 20 10 0 6 -9 10 -20 10 -11
0 -20 -4 -20 -10z"/>
<path d="M1270 2225 c0 -8 7 -15 15 -15 8 0 15 4 15 9 0 5 -7 11 -15 15 -9 3
-15 0 -15 -9z"/>
<path d="M1380 2225 c0 -9 5 -15 11 -13 6 2 11 8 11 13 0 5 -5 11 -11 13 -6 2
-11 -4 -11 -13z"/>
<path d="M1020 2220 c0 -5 9 -10 21 -10 11 0 17 5 14 10 -3 6 -13 10 -21 10
-8 0 -14 -4 -14 -10z"/>
<path d="M1090 2220 c0 -5 7 -10 15 -10 8 0 15 5 15 10 0 6 -7 10 -15 10 -8 0
-15 -4 -15 -10z"/>
<path d="M1140 2220 c0 -5 7 -10 15 -10 8 0 15 5 15 10 0 6 -7 10 -15 10 -8 0
-15 -4 -15 -10z"/>
<path d="M1200 2220 c0 -5 7 -10 15 -10 8 0 15 5 15 10 0 6 -7 10 -15 10 -8 0
-15 -4 -15 -10z"/>
<path d="M1320 2220 c0 -5 7 -10 15 -10 8 0 15 5 15 10 0 6 -7 10 -15 10 -8 0
-15 -4 -15 -10z"/>
<path d="M1080 2125 c0 -8 7 -15 15 -15 8 0 15 7 15 15 0 8 -7 15 -15 15 -8 0
-15 -7 -15 -15z"/>
<path d="M1147 2133 c-12 -11 -8 -23 8 -23 8 0 15 7 15 15 0 16 -12 20 -23 8z"/>
<path d="M1200 2125 c0 -8 7 -15 15 -15 8 0 15 7 15 15 0 8 -7 15 -15 15 -8 0
-15 -7 -15 -15z"/>
<path d="M1270 2125 c0 -9 5 -15 11 -13 6 2 11 8 11 13 0 5 -5 11 -11 13 -6 2
-11 -4 -11 -13z"/>
<path d="M1320 2125 c0 -9 5 -15 11 -13 6 2 11 8 11 13 0 5 -5 11 -11 13 -6 2
-11 -4 -11 -13z"/>
<path d="M1270 2055 c0 -8 7 -15 15 -15 8 0 15 4 15 9 0 5 -7 11 -15 15 -9 3
-15 0 -15 -9z"/>
<path d="M1090 2050 c0 -5 9 -10 20 -10 11 0 20 5 20 10 0 6 -9 10 -20 10 -11
0 -20 -4 -20 -10z"/>
<path d="M1150 2050 c0 -5 7 -10 15 -10 8 0 15 5 15 10 0 6 -7 10 -15 10 -8 0
-15 -4 -15 -10z"/>
<path d="M1200 2050 c0 -5 7 -10 15 -10 8 0 15 5 15 10 0 6 -7 10 -15 10 -8 0
-15 -4 -15 -10z"/>
<path d="M1320 2050 c0 -5 7 -10 15 -10 8 0 15 5 15 10 0 6 -7 10 -15 10 -8 0
-15 -4 -15 -10z"/>
<path d="M1270 2000 c0 -5 7 -10 15 -10 8 0 15 5 15 10 0 6 -7 10 -15 10 -8 0
-15 -4 -15 -10z"/>
<path d="M1320 2000 c0 -5 7 -10 15 -10 8 0 15 5 15 10 0 6 -7 10 -15 10 -8 0
-15 -4 -15 -10z"/>
<path d="M1380 2000 c0 -5 7 -10 15 -10 8 0 15 5 15 10 0 6 -7 10 -15 10 -8 0
-15 -4 -15 -10z"/>
<path d="M3115 2243 c-29 -7 -65 -43 -65 -66 0 -17 2 -18 17 -6 13 11 15 11 9
1 -5 -9 0 -21 13 -33 25 -23 55 -18 72 12 8 17 7 23 -8 34 -15 12 -16 17 -5
34 19 33 15 36 -33 24z m13 -85 c-6 -18 -28 -21 -28 -4 0 9 7 16 16 16 9 0 14
-5 12 -12z"/>
<path d="M3315 2029 c-4 -6 -5 -13 -2 -16 7 -7 27 6 27 18 0 12 -17 12 -25 -2z"/>
<path d="M2945 1730 c3 -5 13 -10 21 -10 8 0 14 5 14 10 0 6 -9 10 -21 10 -11
0 -17 -4 -14 -10z"/>
<path d="M2930 1650 c0 -5 9 -10 20 -10 11 0 20 5 20 10 0 6 -9 10 -20 10 -11
0 -20 -4 -20 -10z"/>
<path d="M2870 1580 c0 -5 7 -10 15 -10 8 0 15 5 15 10 0 6 -7 10 -15 10 -8 0
-15 -4 -15 -10z"/>
<path d="M2930 1580 c0 -5 7 -10 15 -10 8 0 15 5 15 10 0 6 -7 10 -15 10 -8 0
-15 -4 -15 -10z"/>
<path d="M2990 1580 c0 -5 7 -10 15 -10 8 0 15 5 15 10 0 6 -7 10 -15 10 -8 0
-15 -4 -15 -10z"/>
<path d="M2810 1515 c0 -8 7 -15 15 -15 8 0 15 7 15 15 0 8 -7 15 -15 15 -8 0
-15 -7 -15 -15z"/>
<path d="M2870 1515 c0 -8 7 -15 15 -15 8 0 15 7 15 15 0 8 -7 15 -15 15 -8 0
-15 -7 -15 -15z"/>
<path d="M2928 1508 c9 -9 15 -9 24 0 9 9 7 12 -12 12 -19 0 -21 -3 -12 -12z"/>
<path d="M2867 1444 c-8 -8 1 -24 14 -24 5 0 9 7 9 15 0 15 -12 20 -23 9z"/>
<path d="M2920 1435 c0 -9 5 -15 11 -13 6 2 11 8 11 13 0 5 -5 11 -11 13 -6 2
-11 -4 -11 -13z"/>
<path d="M2747 1433 c-12 -11 -8 -23 8 -23 8 0 15 7 15 15 0 16 -12 20 -23 8z"/>
<path d="M2810 1420 c0 -5 7 -10 15 -10 8 0 15 5 15 10 0 6 -7 10 -15 10 -8 0
-15 -4 -15 -10z"/>
<path d="M2685 1361 c-7 -12 12 -24 25 -16 11 7 4 25 -10 25 -5 0 -11 -4 -15
-9z"/>
<path d="M2750 1360 c0 -5 7 -10 15 -10 8 0 15 5 15 10 0 6 -7 10 -15 10 -8 0
-15 -4 -15 -10z"/>
<path d="M2800 1360 c0 -5 9 -10 20 -10 11 0 20 5 20 10 0 6 -9 10 -20 10 -11
0 -20 -4 -20 -10z"/>
<path d="M2870 1360 c0 -5 7 -10 15 -10 8 0 15 5 15 10 0 6 -7 10 -15 10 -8 0
-15 -4 -15 -10z"/>
<path d="M707 2336 c-4 -10 -5 -21 -2 -24 9 -9 17 6 13 25 -3 17 -4 17 -11 -1z"/>
<path d="M737 2323 c-10 -9 -8 -43 2 -43 5 0 9 11 9 25 0 27 -1 28 -11 18z"/>
<path d="M770 2285 c-8 -10 -10 -19 -4 -25 5 -5 14 1 21 16 12 27 2 32 -17 9z"/>
<path d="M800 2215 c-5 -14 -7 -32 -3 -41 4 -12 9 -8 19 16 17 39 17 50 4 50
-6 0 -15 -11 -20 -25z"/>
<path d="M836 2168 c-21 -33 -11 -60 11 -29 8 12 13 29 11 39 -3 14 -7 12 -22
-10z"/>
<path d="M872 2117 c-12 -13 -22 -32 -22 -43 1 -17 4 -15 25 9 14 15 25 35 25
43 0 19 -3 18 -28 -9z"/>
<path d="M888 2063 c-21 -25 -28 -48 -18 -64 7 -10 11 -7 19 13 5 14 15 29 20
33 13 7 15 35 3 35 -5 0 -16 -8 -24 -17z"/>
<path d="M906 1997 c-16 -23 -13 -57 5 -57 9 0 24 68 16 76 -3 3 -13 -5 -21
-19z"/>
<path d="M947 1973 c-11 -10 -8 -83 3 -83 6 0 10 20 10 45 0 46 -2 50 -13 38z"/>
<path d="M1000 1921 c0 -5 7 -14 15 -21 12 -10 15 -10 15 3 0 8 -7 17 -15 21
-8 3 -15 2 -15 -3z"/>
<path d="M2830 2365 c0 -8 7 -15 15 -15 8 0 15 7 15 15 0 8 -7 15 -15 15 -8 0
-15 -7 -15 -15z"/>
<path d="M2885 2371 c-3 -5 -1 -12 5 -16 12 -7 30 2 30 16 0 12 -27 12 -35 0z"/>
<path d="M2883 2298 c2 -7 10 -13 17 -13 7 0 15 6 18 13 2 7 -5 12 -18 12 -13
0 -20 -5 -17 -12z"/>
<path d="M2890 2235 c0 -8 7 -15 15 -15 8 0 15 7 15 15 0 8 -7 15 -15 15 -8 0
-15 -7 -15 -15z"/>
<path d="M2900 2155 c0 -8 7 -15 15 -15 8 0 15 7 15 15 0 8 -7 15 -15 15 -8 0
-15 -7 -15 -15z"/>
<path d="M3280 2355 c0 -8 7 -15 15 -15 8 0 15 7 15 15 0 8 -7 15 -15 15 -8 0
-15 -7 -15 -15z"/>
<path d="M3320 2286 c0 -10 9 -16 21 -16 24 0 21 23 -4 28 -10 2 -17 -3 -17
-12z"/>
<path d="M3370 2285 c0 -8 7 -15 15 -15 8 0 15 7 15 15 0 8 -7 15 -15 15 -8 0
-15 -7 -15 -15z"/>
<path d="M3440 2275 c0 -8 7 -15 15 -15 8 0 15 7 15 15 0 8 -7 15 -15 15 -8 0
-15 -7 -15 -15z"/>
<path d="M3380 2205 c0 -8 7 -15 15 -15 8 0 15 7 15 15 0 8 -7 15 -15 15 -8 0
-15 -7 -15 -15z"/>
<path d="M3440 2194 c0 -9 5 -14 12 -12 18 6 21 28 4 28 -9 0 -16 -7 -16 -16z"/>
<path d="M3510 2195 c0 -8 7 -15 15 -15 8 0 15 7 15 15 0 8 -7 15 -15 15 -8 0
-15 -7 -15 -15z"/>
<path d="M3520 2125 c0 -8 7 -15 15 -15 8 0 15 7 15 15 0 8 -7 15 -15 15 -8 0
-15 -7 -15 -15z"/>
<path d="M3520 2065 c0 -8 7 -15 15 -15 8 0 15 7 15 15 0 8 -7 15 -15 15 -8 0
-15 -7 -15 -15z"/>
<path d="M3520 2005 c0 -8 7 -15 15 -15 8 0 15 7 15 15 0 8 -7 15 -15 15 -8 0
-15 -7 -15 -15z"/>
<path d="M1410 1800 c0 -5 9 -10 20 -10 11 0 20 5 20 10 0 6 -9 10 -20 10 -11
0 -20 -4 -20 -10z"/>
<path d="M1480 1800 c0 -5 7 -10 15 -10 8 0 15 5 15 10 0 6 -7 10 -15 10 -8 0
-15 -4 -15 -10z"/>
<path d="M1480 1745 c0 -8 7 -15 15 -15 8 0 15 7 15 15 0 8 -7 15 -15 15 -8 0
-15 -7 -15 -15z"/>
<path d="M1550 1675 c0 -8 7 -15 15 -15 8 0 15 7 15 15 0 8 -7 15 -15 15 -8 0
-15 -7 -15 -15z"/>
<path d="M1490 1665 c0 -8 7 -15 15 -15 8 0 15 7 15 15 0 8 -7 15 -15 15 -8 0
-15 -7 -15 -15z"/>
<path d="M1620 1515 c0 -8 7 -15 15 -15 8 0 15 7 15 15 0 8 -7 15 -15 15 -8 0
-15 -7 -15 -15z"/>
<path d="M860 1585 c0 -8 7 -15 15 -15 8 0 15 7 15 15 0 8 -7 15 -15 15 -8 0
-15 -7 -15 -15z"/>
<path d="M920 1585 c0 -8 7 -15 15 -15 8 0 15 7 15 15 0 8 -7 15 -15 15 -8 0
-15 -7 -15 -15z"/>
<path d="M747 1533 c-13 -12 -7 -23 13 -23 11 0 20 7 20 15 0 15 -21 21 -33 8z"/>
<path d="M810 1520 c0 -5 7 -10 15 -10 8 0 15 5 15 10 0 6 -7 10 -15 10 -8 0
-15 -4 -15 -10z"/>
<path d="M860 1520 c0 -5 7 -10 15 -10 8 0 15 5 15 10 0 6 -7 10 -15 10 -8 0
-15 -4 -15 -10z"/>
<path d="M930 1520 c0 -5 7 -10 15 -10 8 0 15 5 15 10 0 6 -7 10 -15 10 -8 0
-15 -4 -15 -10z"/>
<path d="M980 1515 c0 -8 7 -15 15 -15 8 0 15 7 15 15 0 8 -7 15 -15 15 -8 0
-15 -7 -15 -15z"/>
<path d="M1040 1515 c0 -8 7 -15 15 -15 8 0 15 7 15 15 0 8 -7 15 -15 15 -8 0
-15 -7 -15 -15z"/>
<path d="M1080 1507 c0 -8 7 -14 15 -14 8 0 15 6 15 14 0 7 -7 13 -15 13 -8 0
-15 -6 -15 -13z"/>
<path d="M1142 1508 c6 -18 28 -21 28 -4 0 9 -7 16 -16 16 -9 0 -14 -5 -12
-12z"/>
<path d="M1190 1510 c0 -5 9 -10 20 -10 11 0 20 5 20 10 0 6 -9 10 -20 10 -11
0 -20 -4 -20 -10z"/>
<path d="M810 1455 c0 -8 7 -15 15 -15 8 0 15 7 15 15 0 8 -7 15 -15 15 -8 0
-15 -7 -15 -15z"/>
<path d="M870 1450 c0 -5 7 -10 15 -10 8 0 15 5 15 10 0 6 -7 10 -15 10 -8 0
-15 -4 -15 -10z"/>
<path d="M920 1440 c0 -5 7 -10 15 -10 8 0 15 5 15 10 0 6 -7 10 -15 10 -8 0
-15 -4 -15 -10z"/>
<path d="M980 1437 c0 -8 7 -14 15 -14 8 0 15 6 15 14 0 7 -7 13 -15 13 -8 0
-15 -6 -15 -13z"/>
<path d="M1040 1440 c0 -5 7 -10 15 -10 8 0 15 5 15 10 0 6 -7 10 -15 10 -8 0
-15 -4 -15 -10z"/>
<path d="M1090 1435 c0 -8 7 -15 15 -15 8 0 15 7 15 15 0 8 -7 15 -15 15 -8 0
-15 -7 -15 -15z"/>
<path d="M1143 1438 c2 -7 10 -13 17 -13 7 0 15 6 18 13 2 7 -5 12 -18 12 -13
0 -20 -5 -17 -12z"/>
<path d="M1190 1440 c0 -5 9 -10 20 -10 11 0 20 5 20 10 0 6 -9 10 -20 10 -11
0 -20 -4 -20 -10z"/>
<path d="M1253 1438 c2 -7 10 -13 17 -13 7 0 15 6 18 13 2 7 -5 12 -18 12 -13
0 -20 -5 -17 -12z"/>
<path d="M1320 1435 c0 -8 7 -15 15 -15 8 0 15 7 15 15 0 8 -7 15 -15 15 -8 0
-15 -7 -15 -15z"/>
<path d="M816 1393 c-11 -11 -6 -23 9 -23 8 0 15 4 15 9 0 13 -16 22 -24 14z"/>
<path d="M880 1375 c0 -8 7 -15 15 -15 8 0 15 7 15 15 0 8 -7 15 -15 15 -8 0
-15 -7 -15 -15z"/>
<path d="M930 1375 c0 -8 7 -15 15 -15 8 0 15 7 15 15 0 8 -7 15 -15 15 -8 0
-15 -7 -15 -15z"/>
<path d="M987 1384 c-13 -13 -7 -24 14 -24 11 0 19 5 17 12 -5 14 -22 21 -31
12z"/>
<path d="M1040 1375 c0 -8 7 -15 15 -15 8 0 15 7 15 15 0 8 -7 15 -15 15 -8 0
-15 -7 -15 -15z"/>
<path d="M1197 1384 c-13 -13 -7 -24 14 -24 11 0 19 5 17 12 -5 14 -22 21 -31
12z"/>
<path d="M1320 1375 c0 -8 7 -15 15 -15 8 0 15 7 15 15 0 8 -7 15 -15 15 -8 0
-15 -7 -15 -15z"/>
<path d="M1090 1370 c0 -5 7 -10 15 -10 8 0 15 5 15 10 0 6 -7 10 -15 10 -8 0
-15 -4 -15 -10z"/>
<path d="M1140 1370 c0 -5 9 -10 20 -10 11 0 20 5 20 10 0 6 -9 10 -20 10 -11
0 -20 -4 -20 -10z"/>
<path d="M1250 1370 c0 -5 9 -10 20 -10 11 0 20 5 20 10 0 6 -9 10 -20 10 -11
0 -20 -4 -20 -10z"/>
<path d="M3370 1545 c0 -8 7 -15 15 -15 8 0 15 7 15 15 0 8 -7 15 -15 15 -8 0
-15 -7 -15 -15z"/>
<path d="M3360 1475 c0 -8 7 -15 15 -15 8 0 15 7 15 15 0 8 -7 15 -15 15 -8 0
-15 -7 -15 -15z"/>
<path d="M3363 1423 c-18 -7 -16 -23 2 -23 8 0 15 7 15 15 0 8 -1 15 -2 14 -2
0 -9 -3 -15 -6z"/>
<path d="M1656 691 c-4 -5 8 -26 25 -46 28 -31 36 -35 64 -29 43 8 67 -6 106
-61 32 -45 70 -65 50 -26 -18 33 -113 131 -140 146 -38 19 -97 29 -105 16z"/>
<path d="M3542 691 c-11 -6 -7 -16 19 -45 27 -31 36 -36 60 -31 43 10 64 -1
105 -55 38 -49 76 -71 55 -31 -18 33 -113 131 -140 145 -37 19 -84 27 -99 17z"/>
<path d="M487 483 c-4 -3 -7 -17 -7 -30 0 -22 4 -23 60 -23 l60 0 0 -59 c0
-33 -4 -62 -9 -66 -5 -3 -21 0 -36 7 -21 10 -29 9 -42 -5 -14 -14 -15 -22 -4
-57 19 -64 168 -240 203 -240 34 0 20 21 -65 98 -43 39 -45 50 -14 102 25 46
31 47 72 20 20 -13 47 -20 83 -20 l52 0 0 -69 c0 -60 3 -74 26 -100 14 -17 30
-31 35 -31 5 0 9 90 9 210 l0 210 203 -2 202 -3 3 -36 c5 -55 -11 -62 -165
-68 -132 -6 -135 -7 -159 -34 -30 -35 -31 -77 -4 -133 24 -49 112 -144 134
-144 26 0 19 13 -34 65 -105 103 -66 195 83 195 52 0 54 -1 87 -46 18 -25 47
-54 64 -65 34 -21 106 -25 137 -9 17 10 19 7 19 -31 0 -41 38 -109 61 -109 5
0 9 84 9 210 l0 210 70 0 71 0 -3 -82 -3 -83 -30 -5 c-16 -3 -31 -12 -33 -21
-3 -16 58 -97 84 -112 28 -16 49 -3 54 33 l5 35 75 0 75 0 3 -70 c2 -55 8 -75
24 -93 12 -12 26 -21 31 -19 6 2 9 88 8 210 l-2 207 155 0 156 0 0 -60 c0 -33
-2 -60 -5 -60 -2 0 -19 9 -37 20 -47 29 -119 27 -154 -4 -74 -63 17 -216 121
-203 22 3 50 9 63 13 20 6 22 3 22 -33 0 -39 30 -93 51 -93 5 0 9 88 9 210 l0
210 25 0 c21 0 25 5 25 30 l0 30 -958 0 c-527 0 -962 -3 -965 -7z m353 -127
c0 -68 -2 -74 -22 -80 -37 -10 -148 -7 -149 4 -1 6 -1 17 -1 25 0 8 0 40 1 70
l1 55 85 0 85 0 0 -74z m650 9 c0 -36 -6 -80 -14 -99 -24 -57 -123 -86 -174
-50 -30 21 -28 41 7 49 47 10 54 27 46 100 l-7 65 71 0 71 0 0 -65z m430 -20
l0 -86 -82 3 -83 3 -3 83 -3 82 86 0 85 0 0 -85z m348 -51 c17 -5 22 -14 22
-38 0 -42 -43 -68 -113 -70 -42 -1 -52 2 -55 17 -14 69 59 114 146 91z"/>
<path d="M2600 460 l0 -30 195 0 195 0 0 -55 0 -55 -115 0 c-63 0 -115 -3
-115 -6 0 -4 16 -24 35 -45 55 -61 43 -119 -24 -119 -31 0 -78 46 -107 105
-14 30 -33 55 -40 55 -18 0 -18 0 10 -63 41 -94 121 -167 181 -167 66 0 89 50
57 124 -24 53 -20 56 64 56 l54 0 0 -103 c0 -103 0 -103 30 -125 16 -12 32
-22 35 -22 3 0 5 94 5 210 l0 210 84 0 c82 0 84 -1 90 -26 11 -41 -15 -70 -68
-78 -25 -4 -46 -11 -46 -15 0 -15 58 -97 90 -128 45 -44 111 -55 172 -28 15 6
17 1 16 -39 -2 -38 2 -50 27 -76 16 -16 32 -30 37 -30 4 0 8 94 8 210 l0 210
165 0 165 0 0 -55 0 -55 -90 0 c-60 0 -101 -5 -119 -15 -36 -18 -55 -64 -47
-109 8 -44 86 -150 129 -176 51 -31 45 -4 -11 54 -56 57 -70 92 -52 135 15 38
48 51 125 51 l65 0 0 -100 c0 -95 1 -100 27 -125 15 -14 31 -25 35 -25 5 0 8
94 8 210 l0 210 26 0 c22 0 25 4 22 28 l-3 27 -657 3 -658 2 0 -30z m800 -108
c0 -86 -11 -112 -60 -137 -48 -25 -119 -15 -142 19 -13 19 -9 24 21 31 16 3
37 15 46 25 15 16 15 26 6 70 -6 28 -11 55 -11 60 0 6 32 10 70 10 l70 0 0
-78z"/>
</g>
</svg>
