<?xml version="1.0" standalone="no"?>
<!DOCTYPE svg PUBLIC "-//W3C//DTD SVG 20010904//EN"
 "http://www.w3.org/TR/2001/REC-SVG-20010904/DTD/svg10.dtd">
<svg version="1.0" xmlns="http://www.w3.org/2000/svg"
 width="217.000000pt" height="232.000000pt" viewBox="0 0 217.000000 232.000000"
 preserveAspectRatio="xMidYMid meet">

<g transform="translate(0.000000,232.000000) scale(0.100000,-0.100000)"
fill="#000000" stroke="none">
<path d="M1057 2214 c-4 -4 -7 -36 -7 -71 l0 -63 -100 0 -100 0 0 -65 0 -65
-65 0 -65 0 0 -335 0 -335 -35 0 -35 0 0 70 0 70 -230 0 -229 0 -3 -67 -3 -68
-68 -3 -67 -3 0 -584 0 -585 1035 0 1035 0 0 720 0 720 -70 0 -70 0 0 65 0 65
-230 0 -230 0 0 -65 0 -65 -35 0 -35 0 0 200 0 200 -65 0 -65 0 0 65 0 65
-100 0 -99 0 -3 68 c-3 63 -4 67 -28 70 -14 2 -29 0 -33 -4z m193 -229 l0 -35
-165 0 -165 0 0 35 0 35 165 0 165 0 0 -35z m140 -770 l0 -665 30 0 30 0 0
465 0 465 300 0 300 0 0 -665 0 -665 -35 0 -35 0 0 165 0 165 -895 0 -895 0 0
-165 0 -165 -35 0 -35 0 0 535 0 535 300 0 300 0 0 -335 0 -335 30 0 30 0 0
665 0 665 305 0 305 0 0 -665z m530 370 l0 -35 -170 0 -170 0 0 28 c0 16 3 32
7 35 3 4 80 7 170 7 l163 0 0 -35z m-1332 -267 l-3 -33 -167 -3 -168 -2 0 35
0 35 171 0 170 0 -3 -32z m1330 -965 l-3 -68 -232 -3 -233 -2 0 35 c0 32 -2
35 -29 35 -26 0 -30 -4 -33 -32 l-3 -33 -300 0 -300 0 0 33 c0 30 -2 32 -32
32 -31 0 -33 -2 -33 -35 l0 -35 -232 2 -233 3 -3 68 -3 67 836 0 836 0 -3 -67z
m-1198 -168 l0 -35 -235 0 -235 0 0 35 0 35 235 0 235 0 0 -35z m665 0 l0 -30
-300 0 c-281 0 -300 1 -303 18 -9 48 -12 47 305 45 l298 -3 0 -30z m535 0 l0
-35 -235 0 -235 0 0 35 0 35 235 0 235 0 0 -35z"/>
<path d="M850 1785 l0 -35 100 0 100 0 0 35 0 35 -100 0 -100 0 0 -35z"/>
<path d="M1120 1785 l0 -35 100 0 100 0 0 35 0 35 -100 0 -100 0 0 -35z"/>
<path d="M850 1650 l0 -30 100 0 100 0 0 30 0 30 -100 0 -100 0 0 -30z"/>
<path d="M1120 1650 l0 -30 100 0 100 0 0 30 0 30 -100 0 -100 0 0 -30z"/>
<path d="M852 1518 l3 -33 98 -3 97 -3 0 36 0 35 -101 0 -100 0 3 -32z"/>
<path d="M1120 1515 l0 -36 98 3 97 3 3 33 3 32 -100 0 -101 0 0 -35z"/>
<path d="M850 1385 l0 -35 100 0 100 0 0 35 0 35 -100 0 -100 0 0 -35z"/>
<path d="M1120 1385 l0 -35 100 0 100 0 0 35 0 35 -100 0 -100 0 0 -35z"/>
<path d="M1520 1385 l0 -35 101 0 100 0 -3 33 -3 32 -97 3 -98 3 0 -36z"/>
<path d="M1787 1413 c-4 -3 -7 -19 -7 -35 l0 -28 100 0 100 0 0 35 0 35 -93 0
c-52 0 -97 -3 -100 -7z"/>
<path d="M850 1250 l0 -30 235 0 235 0 0 30 0 30 -235 0 -235 0 0 -30z"/>
<path d="M1520 1250 l0 -30 100 0 100 0 0 30 0 30 -100 0 -100 0 0 -30z"/>
<path d="M1780 1250 l0 -30 100 0 100 0 0 30 0 30 -100 0 -100 0 0 -30z"/>
<path d="M190 1121 c0 -35 11 -39 100 -36 103 3 99 2 98 35 l-1 30 -99 0 -98
0 0 -29z"/>
<path d="M450 1120 c0 -33 -7 -31 138 -34 l62 -2 0 33 0 33 -100 0 -100 0 0
-30z"/>
<path d="M852 1118 l3 -33 97 0 98 0 0 33 0 32 -101 0 -100 0 3 -32z"/>
<path d="M1120 1121 c0 -35 11 -39 100 -36 104 3 100 2 100 35 l0 30 -100 0
-100 0 0 -29z"/>
<path d="M1520 1121 c0 -24 5 -30 28 -34 23 -4 121 -3 160 2 6 0 12 14 12 31
l0 30 -100 0 -100 0 0 -29z"/>
<path d="M1782 1118 l3 -33 97 0 98 0 0 33 0 32 -101 0 -100 0 3 -32z"/>
<path d="M190 985 l0 -35 230 0 230 0 0 35 0 35 -230 0 -230 0 0 -35z"/>
<path d="M850 985 l0 -35 100 0 100 0 0 35 0 35 -100 0 -100 0 0 -35z"/>
<path d="M1120 985 l0 -35 100 0 100 0 0 35 0 35 -100 0 -100 0 0 -35z"/>
<path d="M1520 985 l0 -35 100 0 100 0 0 35 0 35 -100 0 -100 0 0 -35z"/>
<path d="M1784 1006 c-3 -8 -4 -23 -2 -33 3 -16 16 -18 101 -21 l97 -3 0 36 0
35 -95 0 c-74 0 -97 -3 -101 -14z"/>
<path d="M190 850 l0 -30 100 0 100 0 0 30 0 30 -100 0 -100 0 0 -30z"/>
<path d="M450 850 l0 -30 100 0 100 0 0 30 0 30 -100 0 -100 0 0 -30z"/>
<path d="M850 850 l0 -30 100 0 100 0 0 30 0 30 -100 0 -100 0 0 -30z"/>
<path d="M1120 850 l0 -30 100 0 100 0 0 30 0 30 -100 0 -100 0 0 -30z"/>
<path d="M1520 850 l0 -30 230 0 230 0 0 30 0 30 -230 0 -230 0 0 -30z"/>
<path d="M190 720 l0 -30 100 0 100 0 0 30 0 30 -100 0 -100 0 0 -30z"/>
<path d="M450 720 l0 -30 100 0 100 0 0 30 0 30 -100 0 -100 0 0 -30z"/>
<path d="M850 720 l0 -30 100 0 100 0 0 30 0 30 -100 0 -100 0 0 -30z"/>
<path d="M1120 720 l0 -30 100 0 100 0 0 30 0 30 -100 0 -100 0 0 -30z"/>
<path d="M1520 720 l0 -30 100 0 100 0 0 30 0 30 -100 0 -100 0 0 -30z"/>
<path d="M1782 720 l-1 -30 100 0 99 0 0 30 0 30 -98 0 -99 0 -1 -30z"/>
<path d="M190 585 l0 -36 98 3 97 3 0 30 0 30 -97 3 -98 3 0 -36z"/>
<path d="M450 585 l0 -35 100 0 100 0 0 35 0 35 -100 0 -100 0 0 -35z"/>
<path d="M850 585 l0 -35 235 0 235 0 0 35 0 35 -235 0 -235 0 0 -35z"/>
<path d="M1520 585 l0 -35 100 0 100 0 0 35 0 35 -100 0 -100 0 0 -35z"/>
<path d="M1784 606 c-3 -8 -4 -23 -2 -33 3 -16 16 -18 101 -21 l97 -3 0 36 0
35 -95 0 c-74 0 -97 -3 -101 -14z"/>
</g>
</svg>
