<?xml version="1.0" standalone="no"?>
<!DOCTYPE svg PUBLIC "-//W3C//DTD SVG 20010904//EN"
 "http://www.w3.org/TR/2001/REC-SVG-20010904/DTD/svg10.dtd">
<svg version="1.0" xmlns="http://www.w3.org/2000/svg"
 width="225.000000pt" height="225.000000pt" viewBox="0 0 225.000000 225.000000"
 preserveAspectRatio="xMidYMid meet">

<g transform="translate(0.000000,225.000000) scale(0.100000,-0.100000)"
fill="#000000" stroke="none">
<path d="M1031 2240 c-250 -53 -343 -330 -206 -618 41 -86 127 -181 193 -214
56 -26 149 -29 205 -5 21 9 64 42 97 73 117 112 188 320 162 475 -31 178 -149
284 -328 294 -44 2 -99 0 -123 -5z"/>
<path d="M978 1253 c-4 -46 -17 -81 -47 -128 -10 -16 -10 -30 -2 -61 37 -136
178 -199 294 -131 74 43 128 157 93 196 -22 24 -46 97 -46 138 0 32 -2 35 -22
29 -94 -27 -151 -27 -244 0 -19 5 -22 1 -26 -43z"/>
<path d="M697 1025 c-110 -31 -138 -46 -203 -107 -85 -80 -100 -127 -129 -395
-13 -125 -27 -261 -30 -300 l-7 -73 -128 0 c-114 0 -130 -2 -154 -21 -34 -27
-35 -71 -1 -104 l24 -25 1056 0 1056 0 24 25 c14 13 25 36 25 50 0 14 -11 37
-25 50 -23 24 -29 25 -154 25 l-129 0 -6 58 c-3 31 -15 151 -26 267 -24 246
-32 289 -64 353 -26 51 -104 130 -154 156 -29 15 -204 66 -227 66 -6 0 -19
-23 -29 -52 -25 -72 -113 -159 -183 -182 -67 -22 -149 -22 -215 0 -71 23 -159
110 -184 182 -12 33 -24 52 -34 51 -8 0 -54 -11 -103 -24z m1011 -287 c9 -9
12 -89 12 -300 l0 -288 -55 0 -55 0 0 250 0 250 -485 0 -485 0 0 -250 0 -250
-55 0 -55 0 0 288 c0 211 3 291 12 300 17 17 1149 17 1166 0z"/>
</g>
</svg>
