<svg xmlns="http://www.w3.org/2000/svg" shape-rendering="geometricPrecision" text-rendering="geometricPrecision" image-rendering="optimizeQuality" fill-rule="evenodd" clip-rule="evenodd" viewBox="0 0 512 489.552"><path d="M60.185 311.499c44.657-3.627 61.073-50.023 66.576-98.131 8.382-73.65-3.246-168.407 85.39-204.232 70.384-28.465 161.399 9.853 171.327 111.254-.415 68.908 18.965 186.102 80.637 191.109-4.236 11.921-23.139 20.259-46.403 23.906 74.922 23.887 97.119 64.908 94.007 154.147H256l77.601-90.944 72.102 25.025-47.386-89.159c-13.764-2.718-26.195-7.333-35.245-14.077l-1.776-.632c-3.007 34.963-38.459 103.38-65.296 159.386-26.323-54.934-60.931-121.807-65.084-157.338-10.327 8.768-24.322 14.117-39.343 16.63l-45.277 85.19 72.102-25.025L256 489.552H.28c-3.173-91.056 20.084-129.853 95.428-153.824-17.795-4.835-31.662-13.352-35.523-24.229zm257.466 4.179c-5.371-5.518-8.773-12.152-9.446-19.994-14.465 9.406-31.173 15.249-49.684 15.861-18.054.594-36.251-3.87-52.024-14.003-1.858 6.954-5.109 12.943-9.401 18.067 23.326 43.258 98.141 41.441 120.555.069zm-.739-42.603c39.176-43.33 45.124-86.94 33.96-142.596-26.935-12.485-44.551-39.925-53.575-81.156-10.783 78.494-107.18 75.126-131.422 89.407 0 48.262-2.907 97.87 32.652 136.216 32.391 34.925 87.77 30.551 118.385-1.871z"/></svg>