<?xml version="1.0" encoding="UTF-8"?>
<svg version="1.1" xmlns="http://www.w3.org/2000/svg" width="225" height="225">
<path d="M0 0 C74.25 0 148.5 0 225 0 C225 74.25 225 148.5 225 225 C150.75 225 76.5 225 0 225 C0 150.75 0 76.5 0 0 Z " fill="#363636" transform="translate(0,0)"/>
<path d="M0 0 C18.15 0 36.3 0 55 0 C54 5 54 5 50 10 C46.535 17.425 46.535 17.425 43 25 C28.81 25 14.62 25 0 25 C0 16.75 0 8.5 0 0 Z " fill="#5E5E5E" transform="translate(0,0)"/>
<path d="M0 0 C1.20970459 0.00523682 2.41940918 0.01047363 3.66577148 0.01586914 C4.97094727 0.0190918 6.27612305 0.02231445 7.62084961 0.02563477 C9.00952213 0.03399138 10.39819401 0.04245634 11.78686523 0.05102539 C13.17944179 0.05603873 14.57202005 0.06060193 15.96459961 0.06469727 C19.38453974 0.07653097 22.80445773 0.09446708 26.22436523 0.11352539 C26.22436523 8.36352539 26.22436523 16.61352539 26.22436523 25.11352539 C12.03436523 25.11352539 -2.15563477 25.11352539 -16.77563477 25.11352539 C-20.73563477 16.69852539 -20.73563477 16.69852539 -24.77563477 8.11352539 C-25.76563477 6.13352539 -26.75563477 4.15352539 -27.77563477 2.11352539 C-27.05384033 2.08846924 -26.3320459 2.06341309 -25.58837891 2.03759766 C-22.33809977 1.92201237 -19.08813788 1.79911765 -15.83813477 1.67602539 C-14.70182617 1.63670898 -13.56551758 1.59739258 -12.39477539 1.55688477 C-10.77539062 1.49404297 -10.77539062 1.49404297 -9.12329102 1.42993164 C-8.12305908 1.39327393 -7.12282715 1.35661621 -6.09228516 1.31884766 C-3.18626508 1.06129018 -3.07021042 0.12557374 0 0 Z " fill="#616161" transform="translate(198.775634765625,-0.113525390625)"/>
</svg>
