<?xml version="1.0" encoding="UTF-8"?>
<svg version="1.1" xmlns="http://www.w3.org/2000/svg" width="512" height="512">
<path d="M0 0 C1.17466196 -0.00384115 2.34932392 -0.00768229 3.5595817 -0.01163983 C5.52004044 -0.01034011 5.52004044 -0.01034011 7.52010441 -0.00901413 C8.90960064 -0.01159556 10.29909614 -0.01460809 11.68859059 -0.01801753 C15.52480409 -0.02611683 19.36099892 -0.02787872 23.19721997 -0.028615 C27.32748205 -0.03046046 31.45773432 -0.03800516 35.58799076 -0.04475021 C44.62703242 -0.0583544 53.66606965 -0.06436137 62.70511985 -0.06876087 C68.34402133 -0.07151953 73.98292109 -0.07575616 79.6218214 -0.08026505 C95.21988759 -0.09245997 110.8179524 -0.10275914 126.41602325 -0.10614014 C127.41507 -0.1063597 128.41411675 -0.10657927 129.44343764 -0.10680549 C130.44493609 -0.10702377 131.44643455 -0.10724204 132.47828144 -0.10746694 C134.50785252 -0.10791041 136.53742359 -0.10835697 138.56699467 -0.10880661 C140.07711525 -0.10913875 140.07711525 -0.10913875 141.61774332 -0.10947761 C157.94109526 -0.11342802 174.26440261 -0.13088846 190.58773731 -0.15416613 C207.32778412 -0.17784632 224.06780852 -0.19034045 240.80787235 -0.19150805 C250.21446093 -0.19242665 259.62099142 -0.19822515 269.02756405 -0.21632767 C277.03546907 -0.23168372 285.04329806 -0.23687583 293.05121499 -0.22858956 C297.14054008 -0.22466714 301.22971187 -0.22568963 305.31901836 -0.23964691 C309.05764446 -0.25229117 312.79600056 -0.25127286 316.53462578 -0.2390562 C318.53830936 -0.23614281 320.5419972 -0.24810631 322.5456447 -0.26047826 C323.72291441 -0.25388841 324.90018412 -0.24729857 326.11312866 -0.24050903 C327.13555316 -0.24110612 328.15797766 -0.24170321 329.21138471 -0.24231839 C330.00605778 -0.11898216 330.80073084 0.00435407 331.6194849 0.13142776 C334.00592195 3.71108335 333.8823953 5.31773958 333.91001225 9.57136917 C333.91672947 10.22059341 333.92344669 10.86981766 333.93036747 11.53871536 C333.94937474 13.68688483 333.95327396 15.8347419 333.9554224 17.98299026 C333.96185201 19.48171999 333.9685805 20.98044846 333.97559452 22.47917557 C333.98757661 25.62484517 333.99127475 28.77040492 333.99009037 31.91609573 C333.98988794 35.92748648 334.0171062 39.93816268 334.05163479 43.94938469 C334.07399435 47.0482792 334.07792505 50.1470048 334.07687092 53.24597168 C334.0792165 54.72341609 334.08798077 56.2008659 334.10353565 57.67823029 C334.17392308 65.05889816 334.2330922 71.66362856 330.58127689 78.29091263 C328.79330968 81.71242243 328.36020094 85.47971578 327.7444849 89.25642776 C327.58576908 90.16674759 327.42705326 91.07706741 327.26352787 92.01497269 C326.16557936 98.45031433 325.1990857 104.90413396 324.2444849 111.36189651 C319.37324206 144.24791212 313.44964743 176.49904555 297.6194849 206.13142776 C297.26660404 206.80834671 296.91372318 207.48526566 296.55014896 208.1826973 C291.13440041 218.27476555 291.13440041 218.27476555 285.4085474 220.22517776 C281.9944849 220.69392776 281.9944849 220.69392776 278.8304224 220.76033401 C275.45179684 220.91918708 275.45179684 220.91918708 272.41300297 223.12546158 C268.57751127 225.38724674 265.10221757 225.67885116 260.71225834 225.5979805 C259.95527653 225.60028671 259.19829472 225.60259293 258.41837406 225.60496902 C256.78750289 225.60758432 255.15659703 225.6012274 253.52578831 225.58671761 C250.94485584 225.56473185 248.36508862 225.56857785 245.78409672 225.57919693 C239.38106407 225.60080433 232.9782965 225.58343238 226.57529545 225.5576973 C221.1505239 225.53632684 215.72650202 225.53428936 210.30174351 225.56061363 C207.75806723 225.56497148 205.21568751 225.54031575 202.67215824 225.5150795 C201.11781066 225.5203481 199.56346709 225.52706911 198.00913334 225.5354805 C197.30155888 225.52057068 196.59398441 225.50566086 195.8649683 225.49029922 C193.66199972 225.4668532 193.66199972 225.4668532 190.6194849 226.13142776 C188.51131838 228.34816587 188.51131838 228.34816587 187.6194849 231.13142776 C187.83797699 234.36698976 187.83797699 234.36698976 188.6194849 237.13142776 C192.00797685 238.14938462 195.14338999 238.28569912 198.67319584 238.33675003 C199.89415958 238.35669525 201.11512333 238.37664047 202.37308598 238.39719009 C203.68674137 238.41390259 205.00039677 238.43061508 206.3538599 238.44783401 C207.71578426 238.46841695 209.07770242 238.48941378 210.4396143 238.51080704 C214.01683362 238.56588942 217.59410928 238.61535941 221.17142582 238.66365433 C224.82473584 238.71397065 228.47796448 238.76960373 232.13120365 238.82478714 C239.29389507 238.93219939 246.45665436 239.03368161 253.6194849 239.13142776 C250.36793619 242.98961092 247.11154769 246.76695406 243.49057865 250.28767776 C242.765481 251.00052933 242.04038334 251.71338089 241.29331303 252.44783401 C239.80042661 253.905517 238.30562729 255.36124341 236.80893803 256.81502151 C236.08512943 257.52787308 235.36132084 258.24072464 234.61557865 258.97517776 C233.55077274 260.0152095 233.55077274 260.0152095 232.4644556 261.07625198 C230.69855985 263.04334348 229.77331633 264.75606116 228.6272974 267.10799026 C227.47177982 268.81404495 227.47177982 268.81404495 225.6194849 270.13142776 C220.10119389 271.13841806 214.65013718 271.06801462 209.0569849 271.00642776 C206.77774734 271.01316893 204.49876368 271.02952153 202.21959782 271.04845047 C200.80501993 271.05671965 199.3903535 271.05604273 197.97579288 271.04521561 C194.70212172 271.03175687 191.75007074 271.12091906 188.6194849 272.13142776 C187.51892156 276.81156715 187.51892156 276.81156715 188.61899662 281.32991409 C191.56927107 283.98674533 194.53420655 283.71559696 198.3147974 283.70564651 C199.06284641 283.7198111 199.81089542 283.73397568 200.58161259 283.74856949 C202.96938321 283.79049327 205.35639786 283.80571666 207.7444849 283.81892776 C210.13936203 283.8479464 212.53404562 283.8824351 214.92878056 283.92142105 C216.418865 283.94397676 217.90906973 283.95975446 219.39930058 283.96826553 C224.50990411 284.02184698 224.50990411 284.02184698 225.6194849 285.13142776 C225.0989268 291.63840409 223.67868462 297.96963709 222.3382349 304.35017776 C221.59184485 308.27683847 221.07612858 312.16214038 220.6194849 316.13142776 C219.32530643 316.15330154 219.32530643 316.15330154 218.00498295 316.17561722 C214.80098843 316.2367053 211.59763865 316.31086326 208.3941431 316.39387894 C207.00819113 316.42711325 205.62210429 316.45515002 204.23593998 316.47786331 C202.24241647 316.51143393 200.24926749 316.56530777 198.25620365 316.61970901 C197.05697269 316.6458931 195.85774174 316.67207718 194.62217045 316.69905472 C191.63698129 316.8818144 191.63698129 316.8818144 189.75547123 318.54231644 C188.37439649 320.47427764 187.83519219 321.75864757 187.6194849 324.13142776 C188.60973583 326.79748795 189.0472802 327.84532542 191.6194849 329.13142776 C194.09781149 329.28769352 196.55259821 329.38955975 199.0335474 329.44783401 C199.76318699 329.46861511 200.49282658 329.48939621 201.24457645 329.51080704 C203.57778253 329.57624693 205.91110211 329.63516144 208.2444849 329.69392776 C209.82522586 329.73711829 211.40595529 329.78073276 212.9866724 329.82478714 C216.86415994 329.93192257 220.74176175 330.03320559 224.6194849 330.13142776 C224.93764164 330.93966995 225.25579838 331.74791214 225.58359623 332.58064651 C226.0143848 333.64927933 226.44517338 334.71791214 226.88901615 335.81892776 C227.31029789 336.87466995 227.73157963 337.93041214 228.16562748 339.01814651 C229.97619827 342.89529156 232.3032253 345.95629457 235.06870365 349.19392776 C236.6194849 351.13142776 236.6194849 351.13142776 237.70932865 353.31502151 C238.91470679 355.72060449 240.19367664 356.06121824 242.6194849 357.13142776 C244.8694849 358.63142776 244.8694849 358.63142776 246.6194849 360.13142776 C246.6194849 360.79142776 246.6194849 361.45142776 246.6194849 362.13142776 C245.50389037 362.13381612 244.38829584 362.13620447 243.23889542 362.1386652 C216.12422155 362.1973968 189.009637 362.27324013 161.89506149 362.36714268 C148.78278436 362.41215449 135.67053471 362.45155666 122.5582056 362.47786331 C111.13271921 362.50079984 99.70731942 362.53414896 88.28190166 362.58012933 C82.22931802 362.60412028 76.17682047 362.62281051 70.12419033 362.62904167 C64.432 362.63506603 58.7400301 362.65496939 53.04792118 362.68570328 C50.9544849 362.69452617 48.86101986 362.69819736 46.76756573 362.69643593 C43.91758832 362.69479451 41.06829198 362.71138515 38.21840763 362.73270035 C36.96501175 362.72542898 36.96501175 362.72542898 35.68629473 362.71801072 C31.51580326 362.65833674 31.51580326 362.65833674 27.91194659 364.46797532 C26.36013188 366.18301781 26.36013188 366.18301781 26.1819849 369.13142776 C26.31235641 372.17895535 26.31235641 372.17895535 28.35810232 373.79568172 C30.91829436 375.30792756 32.29096501 375.50556131 35.23910618 375.50336456 C36.1677034 375.50995441 37.09630063 375.51654425 38.05303717 375.52333379 C39.06975862 375.51527738 40.08648007 375.50722098 41.13401127 375.49892044 C42.21674808 375.50218928 43.29948489 375.50545812 44.41503191 375.50882602 C48.05558956 375.51612887 51.69574848 375.50192801 55.33628178 375.48787308 C57.94118665 375.48866363 60.54609141 375.49075992 63.1509943 375.49406815 C69.4992435 375.4997044 75.847372 375.48938127 82.19560063 375.47378018 C89.58598794 375.45625211 96.97635176 375.45482116 104.36675662 375.45416459 C117.55177418 375.45247609 130.73673672 375.43665583 143.921731 375.41267776 C156.72023824 375.3894194 169.5187106 375.37525308 182.31723881 375.37166214 C183.10548013 375.37143937 183.89372145 375.37121661 184.70584887 375.37098709 C186.2937437 375.37054449 187.88163853 375.37010247 189.46953335 375.36966102 C190.2528036 375.36944145 191.03607385 375.36922189 191.84307957 375.36899567 C192.62435304 375.36877968 193.40562652 375.36856369 194.21057495 375.36834116 C206.40101435 375.36464073 218.5914481 375.35328099 230.7818813 375.34086527 C235.20237699 375.33642926 239.62287214 375.33299129 244.04336917 375.33024314 C251.71021007 375.3253975 259.37701895 375.31528884 267.04384518 375.29941559 C269.59323158 375.29488675 272.14262162 375.29205255 274.69201183 375.291008 C278.16302136 375.28926644 281.63396292 375.28139437 285.10495853 375.27186966 C286.12167999 375.27273614 287.13840144 375.27360262 288.18593264 375.27449536 C289.11452986 375.27065422 290.04312709 375.26681307 290.99986362 375.26285553 C291.80118355 375.26160903 292.60250348 375.26036253 293.42810583 375.25907826 C295.66928778 375.12852669 297.5172134 374.93123128 299.6194849 374.13142776 C300.85706367 371.16882251 300.85706367 371.16882251 301.6194849 368.13142776 C302.6194849 367.13142776 302.6194849 367.13142776 305.2991724 366.82283401 C309.48064806 367.21146528 311.37140734 368.59618294 314.7444849 371.06892776 C315.75768803 371.7998262 316.77089115 372.53072464 317.8147974 373.28377151 C318.37820835 373.7274054 318.9416193 374.17103928 319.52210331 374.62811661 C321.69513393 376.25627734 321.69513393 376.25627734 324.58966923 377.70810318 C332.80447574 382.57948803 332.80447574 382.57948803 334.25681782 387.12703133 C335.12688944 392.80165289 334.71343281 398.48904329 334.3694849 404.19392776 C334.3092092 405.93527977 334.25447068 407.67683274 334.2054224 409.41853714 C334.07396678 413.661177 333.86748822 417.89406853 333.6194849 422.13142776 C295.98771499 422.20014003 258.35595456 422.25297997 220.72413458 422.28462375 C216.2782812 422.28837574 211.83242794 422.29225872 207.38657475 422.29622269 C206.05897745 422.29740308 206.05897745 422.29740308 204.70456001 422.29860733 C190.38605819 422.3116504 176.06759262 422.33529819 161.74911228 422.36288615 C147.04985529 422.39097093 132.35061724 422.40761052 117.65133452 422.41369325 C108.58589053 422.41780332 99.52054901 422.43077041 90.45513657 422.45517717 C84.23310422 422.47107229 78.0111246 422.47581959 71.78907344 422.4719319 C68.20279471 422.47001621 64.61669467 422.47288954 61.03044796 422.48904419 C57.13283622 422.50647216 53.23545398 422.5003599 49.33780766 422.49219131 C48.21715011 422.50092984 47.09649256 422.50966836 45.9418757 422.51867169 C30.71462828 422.43274074 17.97535365 418.04216537 6.8772974 407.51814651 C-1.38970739 398.7791501 -6.50466047 387.75916296 -6.50635624 375.69181156 C-6.50780968 375.04422541 -6.50926312 374.39663925 -6.51076061 373.72942927 C-6.51442191 371.55056454 -6.51093358 369.3717697 -6.50749874 367.19290543 C-6.5086505 365.61861659 -6.51023839 364.04432802 -6.51222599 362.47004002 C-6.51641163 358.13700115 -6.51433206 353.80398421 -6.51123977 349.47094524 C-6.50898286 344.80087627 -6.5124667 340.13081116 -6.51521969 335.46074295 C-6.51967292 326.31015092 -6.51870298 317.15956707 -6.51580705 308.00897471 C-6.51355168 300.57582002 -6.51324107 293.14266764 -6.51433086 285.70951271 C-6.5144841 284.65293076 -6.51463733 283.59634881 -6.51479521 282.50774923 C-6.51511492 280.36158409 -6.51543913 278.21541896 -6.5157678 276.06925382 C-6.51862117 255.93239699 -6.51533757 235.79554471 -6.50996743 215.65868863 C-6.50549758 198.3617576 -6.50627709 181.06483328 -6.51088619 163.76790237 C-6.51623112 143.70006407 -6.51834855 123.63222975 -6.51527393 103.56439084 C-6.51495536 101.4268924 -6.51464099 99.28939396 -6.51433086 97.15189552 C-6.51417659 96.10009017 -6.51402231 95.04828483 -6.51386336 93.96460659 C-6.5129981 86.53458455 -6.51446123 79.10456503 -6.51681042 71.67454338 C-6.51960762 62.62842099 -6.51887177 53.58230729 -6.51352967 44.5361859 C-6.51089187 39.91639647 -6.50988894 35.29662154 -6.51317883 30.6768322 C-6.51614007 26.45488104 -6.51455189 22.23295794 -6.50920127 18.01100936 C-6.50807637 16.47680123 -6.50866987 14.94259077 -6.51107706 13.40838412 C-6.51408032 11.33672832 -6.51103737 9.26517103 -6.50635624 7.19352055 C-6.50619389 6.03868099 -6.50603153 4.88384143 -6.50586426 3.69400674 C-6.28007255 -0.92197224 -4.09673974 0.00499537 0 0 Z M29.87339115 36.09236526 C26.32970922 41.85498821 25.1742751 46.66606221 25.21543217 53.40242386 C25.20856892 54.19853577 25.20170567 54.99464767 25.19463444 55.81488419 C25.17643772 58.42839627 25.1801941 61.04130385 25.18589115 63.65486526 C25.18132548 65.48418242 25.17601876 67.31349785 25.17000675 69.14281082 C25.1610893 72.97079322 25.16348267 76.79856684 25.17343998 80.62654495 C25.18491983 85.51442346 25.16472636 90.40157845 25.13552284 95.28936195 C25.11711036 99.06595254 25.11746347 102.84237142 25.12316036 106.61899567 C25.123313 108.42019159 25.11731631 110.22139957 25.10486889 112.02255249 C25.04400131 122.27465132 25.05711814 130.85684411 31.29526615 139.43611526 C31.83538334 139.95431839 32.37550053 140.47252151 32.9319849 141.00642776 C33.46436771 141.54009964 33.99675053 142.07377151 34.54526615 142.62361526 C40.65277723 147.06335025 46.14368791 147.56906146 53.46733952 147.52583694 C54.44223385 147.53192805 55.41712818 147.53801915 56.42156476 147.54429483 C59.67947062 147.56090783 62.93698492 147.55615134 66.19492435 147.55134964 C68.53438567 147.55869098 70.87384337 147.56727739 73.21329594 147.57701492 C79.562556 147.59923371 85.91168629 147.60216137 92.26097989 147.60026741 C96.89538147 147.60016281 101.52975621 147.60660654 106.16415116 147.61389497 C106.82617278 147.61493445 107.48819441 147.61597394 108.1702773 147.61704493 C108.83475167 147.61808845 109.49922604 147.61913198 110.18383601 147.62020713 C122.74125634 147.63909527 135.29861822 147.63806382 147.85604688 147.6312378 C159.3302558 147.62566454 170.80424129 147.64648096 182.27839801 147.67959827 C194.07375657 147.71337708 205.86900822 147.72849833 217.66441602 147.72388124 C224.2811216 147.72164063 230.89764628 147.72728164 237.51431561 147.75177383 C243.73853676 147.77405212 249.96229339 147.77215344 256.18651676 147.75184631 C258.46731967 147.74843815 260.74815391 147.75351687 263.02891445 147.7678299 C266.15004136 147.78606086 269.26959881 147.77324353 272.39067936 147.75288773 C273.28671275 147.76540557 274.18274614 147.77792342 275.10593206 147.7908206 C282.50685468 147.68780467 288.91017126 145.37305897 294.53708822 140.45560217 C303.03617205 131.65300371 302.06527967 119.85225506 302.0179224 108.50642776 C302.01994695 106.79207104 302.02286156 105.07771516 302.02661991 103.36336136 C302.03102533 99.78271096 302.02466999 96.20228616 302.01059818 92.62166214 C301.99350731 88.05229607 302.0033581 83.4834588 302.02131557 78.91411209 C302.0322018 75.37772577 302.02868498 71.841463 302.0209322 68.30507278 C302.01894354 66.62111217 302.02134209 64.93714002 302.02837086 63.2531929 C302.06814699 51.04770044 301.62183545 40.3850067 292.6194849 31.13142776 C287.92944492 27.61897358 283.26447045 26.01340657 277.45390987 25.99441338 C276.62654792 25.98933883 275.79918596 25.98426429 274.94675243 25.97903597 C274.04307025 25.97853822 273.13938806 25.97804046 272.20832157 25.97752762 C271.24415762 25.97314536 270.27999367 25.96876311 269.28661263 25.96424806 C266.0471449 25.95086486 262.80770438 25.94468225 259.56821537 25.93855667 C257.24890361 25.93065532 254.92959309 25.92238635 252.61028385 25.9137764 C244.98575864 25.88755988 237.36122795 25.87224902 229.7366724 25.85799026 C227.11185674 25.85263042 224.48704112 25.84725291 221.86222553 25.84185791 C210.94355285 25.82022966 200.02488146 25.80134194 189.10619259 25.79023552 C186.27403478 25.78730598 183.441877 25.7843443 180.60971928 25.78133011 C179.55388339 25.78021103 179.55388339 25.78021103 178.47671749 25.77906935 C167.07993163 25.76642186 155.683302 25.73320535 144.28658913 25.69152828 C132.57722469 25.64906001 120.86794012 25.62553486 109.15849888 25.62031496 C102.5875391 25.61666203 96.01684422 25.60464619 89.44595814 25.57221222 C83.26202635 25.54212581 77.07851967 25.53582221 70.8945303 25.54759598 C68.6282305 25.54781666 66.36191095 25.53951615 64.09567928 25.52194214 C60.99412744 25.49920488 57.89411123 25.50756758 54.79255009 25.52342606 C53.45710331 25.50260292 53.45710331 25.50260292 52.09467781 25.48135912 C43.09015996 25.59428235 35.62129841 29.12624483 29.87339115 36.09236526 Z M29.2444849 185.63142776 C26.59328808 189.7101921 25.37055496 192.38057585 25.34533024 197.30409622 C25.33535511 198.34980286 25.32537998 199.39550949 25.31510258 200.47290421 C25.3144379 201.61479706 25.31377323 202.75668991 25.31308842 203.93318558 C25.3047649 205.14011566 25.29644138 206.34704575 25.28786564 207.59054947 C25.26789541 210.89866648 25.25712412 214.20653176 25.25203919 217.51468754 C25.24839237 219.58386259 25.24215053 221.65301356 25.2350378 223.72217941 C25.2105471 230.94796178 25.19749288 238.17367243 25.19394779 245.39949417 C25.19031594 252.12290618 25.16044532 258.84586074 25.11854321 265.56913304 C25.08378334 271.35019841 25.06839835 277.13111265 25.06770176 282.91228175 C25.06691066 286.36116526 25.05825111 289.80958295 25.02970409 293.258358 C24.99853723 297.1097803 25.00761036 300.96055217 25.02011967 304.81209183 C25.00528538 305.94588776 24.99045109 307.07968369 24.97516727 308.24783707 C25.03841982 315.09538951 25.81664682 320.03292586 30.6194849 325.13142776 C36.40925042 330.41964591 42.03519815 330.84731259 49.62192631 330.74666214 C50.6961031 330.75221115 51.77027988 330.75776016 52.87700748 330.76347733 C56.40881545 330.77523714 59.9393302 330.75103689 63.4710474 330.72517776 C65.93388657 330.72346587 68.39672756 330.72353315 70.85956669 330.72529984 C76.01246496 330.72364875 81.16492705 330.70498602 86.31772709 330.67341995 C92.91977087 330.63370198 99.52124481 330.62938104 106.12338543 330.63688278 C111.2054856 330.63995297 116.28745785 330.62783075 121.36952686 330.61075211 C123.80396949 330.60372632 126.2384266 330.60059706 128.67287922 330.60144424 C132.0741301 330.5996452 135.47469961 330.57825427 138.87583256 330.55134964 C140.3815205 330.55574554 140.3815205 330.55574554 141.91762638 330.56023026 C148.11834135 330.48460973 152.62537654 329.77366441 157.4476099 325.51814651 C158.15143803 324.67703323 158.15143803 324.67703323 158.8694849 323.81892776 C159.34901615 323.26591995 159.8285474 322.71291214 160.3226099 322.14314651 C164.25383936 316.04500444 163.91019971 309.64399542 163.8941431 302.65340042 C163.89925404 301.50469971 163.90436497 300.35599899 163.90963078 299.17248917 C163.9235161 295.38010301 163.9225707 291.58789881 163.92026615 287.79549026 C163.92415375 285.15522062 163.92848855 282.51495159 163.93325138 279.87468338 C163.94145531 274.34175889 163.94056255 268.80888549 163.93515873 263.27595901 C163.92912174 256.89457665 163.9414264 250.51341492 163.9627288 244.13207018 C163.98251542 237.97684667 163.98551299 231.82172582 163.98199368 225.66647339 C163.98250652 223.05504081 163.98773735 220.44360468 163.9978056 217.83219147 C164.01016701 214.17737042 164.00337932 210.52305733 163.99179935 206.86824417 C163.99944309 205.79369476 164.00708683 204.71914536 164.0149622 203.61203384 C163.96717848 196.7751205 163.46188047 190.62043465 158.9710474 185.10799026 C158.40128178 184.66197464 157.83151615 184.21595901 157.2444849 183.75642776 C156.39757084 183.0642012 156.39757084 183.0642012 155.5335474 182.35799026 C149.87613596 178.73262865 144.70647979 178.83491085 138.1729517 178.84090042 C136.59642323 178.83082458 136.59642323 178.83082458 134.98804569 178.8205452 C131.51488353 178.80155363 128.04191451 178.79764031 124.56870365 178.79549026 C122.15120712 178.78906292 119.73371137 178.7823346 117.31621647 178.77531815 C112.24809815 178.7633423 107.18004801 178.75963762 102.11191654 178.7608223 C95.62542391 178.76102544 89.1393696 178.73372842 82.6529808 178.69927788 C77.6591832 178.67701321 72.66549113 178.67298464 67.67164898 178.67404175 C65.28070217 178.67168495 62.88975249 178.66285706 60.49885464 178.64737701 C57.15032707 178.62772768 53.8027453 178.63355187 50.4542017 178.64558792 C49.47158863 178.63434891 48.48897556 178.62310989 47.47658634 178.6115303 C40.0746464 178.67895754 34.44232639 180.16001568 29.2444849 185.63142776 Z M187.6194849 182.13142776 C186.53143344 184.48805036 186.53143344 184.48805036 186.6194849 187.13142776 C188.37062015 190.84404004 188.37062015 190.84404004 191.6194849 193.13142776 C193.01677093 193.22938351 194.41857864 193.26643919 195.81928349 193.27186966 C196.69973835 193.2775798 197.58019321 193.28328995 198.48732853 193.28917313 C199.93985775 193.29084991 199.93985775 193.29084991 201.421731 193.29256058 C202.43972279 193.29752548 203.45771458 193.30249039 204.5065546 193.30760574 C207.88535066 193.32225065 211.26409978 193.32903305 214.6429224 193.33455276 C216.9846074 193.34030205 219.32629238 193.3460598 221.66797733 193.35182571 C226.58247949 193.36234216 231.49696526 193.3681807 236.41147709 193.37166214 C242.71564042 193.37714994 249.0195881 193.40118155 255.32368374 193.42963409 C260.16204306 193.44823655 265.00035018 193.45346479 269.83874226 193.45499802 C272.16321461 193.45803019 274.48768592 193.46607762 276.8121233 193.4791832 C280.06106682 193.49619439 283.30948004 193.49437541 286.55844975 193.48787308 C287.5227541 193.49708786 288.48705845 193.50630264 289.48058414 193.51579666 C290.36667866 193.51022751 291.25277317 193.50465836 292.16571903 193.49892044 C292.93374033 193.500387 293.70176163 193.50185356 294.4930563 193.50336456 C297.20564828 193.02890105 298.60034737 191.97024499 300.6194849 190.13142776 C301.24671698 188.19717291 301.24671698 188.19717291 301.1194849 186.13142776 C301.1297974 185.45080276 301.1401099 184.77017776 301.1507349 184.06892776 C300.39286215 181.30492126 299.01447889 180.62831834 296.6194849 179.13142776 C294.47707742 178.6866865 294.47707742 178.6866865 292.17917728 178.75047684 C290.85437099 178.73778763 290.85437099 178.73778763 289.50280094 178.72484207 C288.54163868 178.73091476 287.58047642 178.73698746 286.59018803 178.74324417 C285.57190418 178.73798721 284.55362034 178.73273026 283.50447941 178.727314 C280.13640883 178.71410345 276.76881034 178.72285607 273.4007349 178.73299026 C271.06190748 178.73096984 268.72308067 178.72805867 266.38425541 178.72429276 C261.48164722 178.71986796 256.57920295 178.72630562 251.67661381 178.74031448 C245.38816371 178.75740626 239.10009772 178.74756593 232.81166172 178.72959709 C227.9818618 178.71876357 223.15215315 178.72220366 218.3223505 178.72998047 C216.00347187 178.73198366 213.68458498 178.72951905 211.36571598 178.72254181 C208.12651419 178.71493464 204.88793698 178.72652182 201.64878178 178.74324417 C200.68761951 178.73717148 199.72645725 178.73109879 198.73616886 178.72484207 C197.85296467 178.73330154 196.96976048 178.74176102 196.05979252 178.75047684 C195.29436886 178.75160791 194.5289452 178.75273899 193.74032688 178.75390434 C191.02473168 179.23729764 189.6419523 180.28661035 187.6194849 182.13142776 Z " fill="#000000" transform="translate(6.380515098571777,44.86857223510742)"/>
<path d="M0 0 C2.78089648 1.27121338 4.83087084 2.58063616 6.99097061 4.73928833 C7.5562781 5.29938032 8.12158558 5.85947231 8.7040236 6.43653679 C9.31492396 7.05189859 9.92582432 7.6672604 10.55523682 8.30126953 C11.54041593 9.28176867 11.54041593 9.28176867 12.54549766 10.28207588 C14.74898825 12.47757764 16.94524761 14.68017303 19.14160156 16.8828125 C20.7181113 18.45661283 22.29504634 20.02998722 23.87237549 21.60296631 C28.15769342 25.87915355 32.43664525 30.16165878 36.71423054 34.44557953 C41.18489593 38.92129959 45.6604288 43.39214799 50.13519287 47.86376953 C58.12891457 55.85361747 66.11757557 63.8485016 74.10427329 71.84536862 C81.35152772 79.10156472 88.60401865 86.35249233 95.86035156 93.59960938 C104.28325666 102.01182204 112.7028062 110.42737083 121.11740851 118.84789085 C125.57317266 123.30678012 130.03029386 127.76429027 134.49091339 132.21832275 C138.68144383 136.40309705 142.86709197 140.5926929 147.04894257 144.78614044 C148.58880156 146.32865499 150.13038545 147.86944971 151.67376709 149.40843964 C153.77138318 151.50063424 155.86281029 153.59882002 157.95269775 155.69873047 C158.88243263 156.62177318 158.88243263 156.62177318 159.83095002 157.56346321 C164 161.77169967 164 161.77169967 164 164 C157.34525806 165.56143115 150.71151128 166.71670766 143.94921875 167.69921875 C141.79738588 168.01997585 139.64569821 168.34170818 137.49414062 168.66430664 C136.38143799 168.83092804 135.26873535 168.99754944 134.12231445 169.16921997 C107.70694279 173.15504214 81.75697185 177.54468551 57 188 C56.27280762 188.30518555 55.54561523 188.61037109 54.79638672 188.92480469 C44.06000685 193.51015834 34.50723014 199.24668368 25 206 C20.36145443 202.12207556 15.95753022 198.09963668 11.69750977 193.81103516 C10.81815514 192.93189957 10.81815514 192.93189957 9.92103577 192.03500366 C8.00877556 190.12205396 6.10006914 188.20560087 4.19140625 186.2890625 C2.85641541 184.95220405 1.52120173 183.61556808 0.18577576 182.27914429 C-3.30983017 178.77974021 -6.80242114 175.2773423 -10.29437256 171.77429199 C-13.8656407 168.19275135 -17.43978002 164.61407844 -21.01367188 161.03515625 C-28.01191241 154.0262261 -35.00696815 147.01412676 -42 140 C-41.52219589 139.25297821 -41.04439178 138.50595642 -40.55210876 137.73629761 C-39.92381668 136.75194733 -39.2955246 135.76759705 -38.64819336 134.75341797 C-38.02601425 133.77952118 -37.40383514 132.80562439 -36.76280212 131.80221558 C-14.99745856 97.20321894 -9.02484016 57.31954905 -3.32275391 17.62060547 C-3.10285294 16.09932793 -3.10285294 16.09932793 -2.87850952 14.5473175 C-2.60007423 12.61661773 -2.32474415 10.68546696 -2.05288696 8.75382996 C-1.92876434 7.89284195 -1.80464172 7.03185394 -1.67675781 6.14477539 C-1.5697052 5.38967178 -1.46265259 4.63456818 -1.35235596 3.85658264 C-1 2 -1 2 0 0 Z " fill="#000000" transform="translate(348,132)"/>
<path d="M0 0 C1.43778209 -0.00339833 1.43778209 -0.00339833 2.90461028 -0.00686532 C6.13666506 -0.01322723 9.36867815 -0.01237456 12.60073853 -0.0115509 C14.90978551 -0.01454103 17.21883199 -0.01794322 19.52787781 -0.02172852 C25.81502019 -0.0305877 32.10214898 -0.03290744 38.38929701 -0.0335443 C43.63057908 -0.03449186 48.87185795 -0.0381684 54.11313879 -0.0417164 C65.76822442 -0.04940218 77.4233034 -0.05238436 89.07839136 -0.05171105 C90.12803475 -0.05165111 90.12803475 -0.05165111 91.19888306 -0.05158997 C91.89949728 -0.05154909 92.60011151 -0.0515082 93.32195647 -0.05146609 C104.67759503 -0.0510596 116.03320043 -0.06062903 127.3888294 -0.07472833 C139.04160279 -0.08908269 150.69435849 -0.09581577 162.34714091 -0.09513456 C168.89213138 -0.09487908 175.43708436 -0.09775764 181.98206711 -0.10831261 C188.13630692 -0.11796586 194.29047316 -0.11809187 200.4447155 -0.11079597 C202.70706858 -0.10974666 204.96942617 -0.11213342 207.23177147 -0.11815643 C210.31321194 -0.12583048 213.39439546 -0.12126202 216.47583008 -0.11352539 C217.82786594 -0.12124074 217.82786594 -0.12124074 219.20721567 -0.12911195 C220.03254442 -0.12451315 220.85787318 -0.11991435 221.7082119 -0.1151762 C222.41948309 -0.11539357 223.13075429 -0.11561094 223.86357915 -0.11583489 C226.25643079 0.18253352 227.82093213 0.86232085 229.86489868 2.13371277 C232.80620801 6.63733815 233.30279163 10.6300311 233.26895142 15.87980652 C233.27581467 16.63182343 233.28267792 17.38384033 233.28974915 18.15864563 C233.3079615 20.62969663 233.30418826 23.10010945 233.29849243 25.57121277 C233.30305648 27.29704493 233.30836272 29.02287528 233.31437683 30.748703 C233.32329665 34.35986226 233.32089721 37.97080022 233.3109436 41.58195496 C233.29944729 46.20225327 233.31968096 50.82178805 233.34886074 55.44198608 C233.36723284 59.0040011 233.36692843 62.5658334 233.36122322 66.12788391 C233.36107017 67.83108085 233.36710093 69.53429031 233.37951469 71.23744202 C233.39444493 73.62131788 233.38373469 76.00378627 233.36660767 78.38761902 C233.38110962 79.43515854 233.38110962 79.43515854 233.39590454 80.50386047 C233.32145482 85.46923377 231.97237441 88.30678583 228.86489868 92.13371277 C225.43027654 93.85102384 221.47867635 93.28165044 217.69856262 93.28088379 C216.25571356 93.28639882 216.25571356 93.28639882 214.78371602 93.29202527 C211.54018241 93.30309394 208.2966808 93.30691131 205.0531311 93.31071472 C202.73585406 93.31697691 200.41857802 93.32362348 198.1013031 93.33062744 C191.79137319 93.34805855 185.48145087 93.35859468 179.17150283 93.36683297 C175.23262826 93.371978 171.29375608 93.37805392 167.35488319 93.3843441 C156.45257803 93.40121599 145.5502758 93.41585149 134.64795971 93.42309284 C131.81817308 93.42500278 128.98838645 93.42692311 126.15859985 93.42887878 C125.10358606 93.42960439 125.10358606 93.42960439 124.02725885 93.43034466 C112.63022746 93.4386473 101.23330094 93.46398795 89.83631536 93.49645946 C78.13946552 93.52951407 66.44267442 93.54720722 54.7457779 93.55073708 C48.17666739 93.55309235 41.60772263 93.56211484 35.03865623 93.58719826 C28.86055332 93.61040734 22.68272613 93.61474102 16.50459099 93.60443687 C14.23458695 93.60393968 11.96456966 93.61031388 9.69460678 93.62399292 C6.60013237 93.64160009 3.50665953 93.63466047 0.41218567 93.62145996 C-0.49014968 93.63242921 -1.39248503 93.64339845 -2.32216388 93.6547001 C-6.46263856 93.6119355 -8.5872172 93.47778457 -12.16930676 91.22822857 C-15.62896332 87.54203192 -15.29463441 84.37333996 -15.31210327 79.55046082 C-15.31867447 78.76816101 -15.32524567 77.98586121 -15.33201599 77.17985535 C-15.35176347 74.58504648 -15.36341477 71.99029552 -15.37338257 69.39543152 C-15.3774581 68.50986887 -15.38153362 67.62430622 -15.38573265 66.71190834 C-15.40659956 62.02479408 -15.42089859 57.33770915 -15.43026733 52.65055847 C-15.44133322 47.80816874 -15.47573325 42.96623835 -15.51543903 38.12401104 C-15.5415792 34.40165347 -15.54995685 30.67940578 -15.55354881 26.95696449 C-15.55842151 25.17197886 -15.57005492 23.38699836 -15.58858681 21.60210228 C-15.61292354 19.10274701 -15.6120236 16.60458569 -15.60507202 14.10514832 C-15.61788208 13.36885696 -15.63069214 12.63256561 -15.64389038 11.8739624 C-15.59467921 7.01558161 -14.59340685 4.54029695 -11.13510132 1.13371277 C-7.70775549 -0.57996014 -3.77147355 -0.00644777 0 0 Z M0.86489868 19.13371277 C0.55833536 21.545887 0.55833536 21.545887 0.60610962 24.37785339 C0.5998053 25.47238831 0.59350098 26.56692322 0.58700562 27.69462585 C0.59105408 28.88108704 0.59510254 30.06754822 0.59927368 31.28996277 C0.59736023 32.503172 0.59544678 33.71638123 0.59347534 34.96635437 C0.59211234 37.5353262 0.59581676 40.10430489 0.60415649 42.67326355 C0.61485408 46.6172678 0.60426475 50.56081652 0.59146118 54.50480652 C0.59278276 56.99569295 0.5953451 59.48657909 0.59927368 61.97746277 C0.59522522 63.16392395 0.59117676 64.35038513 0.58700562 65.57279968 C0.59330994 66.66733459 0.59961426 67.76186951 0.60610962 68.88957214 C0.60770081 69.8561676 0.60929199 70.82276306 0.6109314 71.81864929 C0.6418347 74.32783642 0.6418347 74.32783642 2.86489868 76.13371277 C5.36489868 76.4670461 5.36489868 76.4670461 7.86489868 76.13371277 C10.05792125 74.35769434 10.05792125 74.35769434 10.09194946 72.07072449 C10.08147583 71.2433075 10.0710022 70.4158905 10.06021118 69.56340027 C10.05376587 68.66750183 10.04732056 67.77160339 10.04067993 66.84855652 C10.02392212 65.91140808 10.00716431 64.97425964 9.98989868 64.00871277 C9.98087524 63.06382996 9.97185181 62.11894714 9.96255493 61.14543152 C9.9389439 58.80793985 9.90601384 56.47095153 9.86489868 54.13371277 C10.78271118 54.18011902 11.70052368 54.22652527 12.64614868 54.27433777 C22.93802852 54.63021037 22.93802852 54.63021037 31.86489868 50.13371277 C36.28504381 45.88015602 38.01599078 42.05200897 38.23989868 35.94621277 C38.16172695 30.02861265 36.76257887 26.52554659 32.86489868 22.13371277 C26.83713002 16.87889572 21.25139514 16.43406951 13.48989868 16.69621277 C11.99523071 16.70491394 11.99523071 16.70491394 10.47036743 16.71379089 C5.12311683 16.48626046 5.12311683 16.48626046 0.86489868 19.13371277 Z M46.86489868 19.13371277 C46.55833536 21.545887 46.55833536 21.545887 46.60610962 24.37785339 C46.5998053 25.47238831 46.59350098 26.56692322 46.58700562 27.69462585 C46.59105408 28.88108704 46.59510254 30.06754822 46.59927368 31.28996277 C46.59736023 32.503172 46.59544678 33.71638123 46.59347534 34.96635437 C46.59211234 37.5353262 46.59581676 40.10430489 46.60415649 42.67326355 C46.61485408 46.6172678 46.60426475 50.56081652 46.59146118 54.50480652 C46.59278276 56.99569295 46.5953451 59.48657909 46.59927368 61.97746277 C46.59522522 63.16392395 46.59117676 64.35038513 46.58700562 65.57279968 C46.59330994 66.66733459 46.59961426 67.76186951 46.60610962 68.88957214 C46.60770081 69.8561676 46.60929199 70.82276306 46.6109314 71.81864929 C46.6418347 74.32783642 46.6418347 74.32783642 48.86489868 76.13371277 C51.36489868 76.4670461 51.36489868 76.4670461 53.86489868 76.13371277 C56.05792125 74.35769434 56.05792125 74.35769434 56.09194946 72.07072449 C56.08147583 71.2433075 56.0710022 70.4158905 56.06021118 69.56340027 C56.05376587 68.66750183 56.04732056 67.77160339 56.04067993 66.84855652 C56.02392212 65.91140808 56.00716431 64.97425964 55.98989868 64.00871277 C55.98087524 63.06382996 55.97185181 62.11894714 55.96255493 61.14543152 C55.93894537 58.8080845 55.90307362 56.47086727 55.86489868 54.13371277 C59.16489868 54.13371277 62.46489868 54.13371277 65.86489868 54.13371277 C66.11110962 54.96257996 66.35732056 55.79144714 66.61099243 56.64543152 C68.04783019 60.64261568 69.89814073 64.2253015 71.92739868 67.94621277 C72.29155884 68.62619324 72.65571899 69.30617371 73.03091431 70.00675964 C74.65760352 73.27347095 74.65760352 73.27347095 76.86489868 76.13371277 C79.32299866 76.38379007 79.32299866 76.38379007 81.86489868 76.13371277 C82.52489868 75.47371277 83.18489868 74.81371277 83.86489868 74.13371277 C83.63453023 68.24073906 81.53029337 63.84576181 78.80239868 58.69621277 C78.4253479 57.9646698 78.04829712 57.23312683 77.65982056 56.47941589 C76.73730572 54.69277324 75.80236748 52.91255448 74.86489868 51.13371277 C75.47978149 50.85398621 76.09466431 50.57425964 76.72817993 50.28605652 C80.5398983 48.23037659 82.51891734 45.17165681 83.86489868 41.13371277 C84.60686948 34.28568723 83.92405279 28.80864667 79.86489868 23.13371277 C75.49359614 18.98097535 71.77598731 16.88344154 65.73208618 16.86808777 C64.27609009 16.86422058 64.27609009 16.86422058 62.79067993 16.86027527 C61.78392212 16.86800964 60.77716431 16.87574402 59.73989868 16.88371277 C58.2181604 16.87211121 58.2181604 16.87211121 56.66567993 16.86027527 C55.69759399 16.86285339 54.72950806 16.86543152 53.73208618 16.86808777 C52.84633911 16.87034363 51.96059204 16.87259949 51.04800415 16.87492371 C48.6558546 16.93012252 48.6558546 16.93012252 46.86489868 19.13371277 Z M92.86489868 19.13371277 C92.5445299 21.53820158 92.5445299 21.53820158 92.57437134 24.36198425 C92.56161163 25.45329147 92.54885193 26.54459869 92.53570557 27.66897583 C92.53347992 28.85229996 92.53125427 30.03562408 92.52896118 31.25480652 C92.52230438 32.46564407 92.51564758 33.67648163 92.50878906 34.92401123 C92.49864845 37.48876929 92.49397248 40.05355382 92.49429321 42.61833191 C92.48992045 46.55163342 92.45361429 50.48381314 92.41567993 54.41691589 C92.40981216 56.90454225 92.4058425 59.39217395 92.40396118 61.87980652 C92.38959015 63.06110641 92.37521912 64.24240631 92.3604126 65.45950317 C92.36656586 66.55396255 92.37271912 67.64842194 92.37905884 68.77604675 C92.3762088 69.7404216 92.37335876 70.70479645 92.37042236 71.69839478 C92.65366286 74.27038461 92.65366286 74.27038461 94.7331543 75.9433136 C99.01858652 78.3363655 104.07737233 77.60226394 108.86489868 77.57121277 C110.50458618 77.60118347 110.50458618 77.60118347 112.17739868 77.63175964 C113.22927368 77.63111511 114.28114868 77.63047058 115.36489868 77.62980652 C116.80349243 77.63258606 116.80349243 77.63258606 118.27114868 77.63542175 C121.55109948 77.00098097 122.75027465 75.64763418 124.86489868 73.13371277 C123.777049 69.88388142 123.777049 69.88388142 121.86489868 67.13371277 C120.37618009 67.04701845 118.88345369 67.02667783 117.39224243 67.03605652 C116.04356079 67.0408905 116.04356079 67.0408905 114.66763306 67.04582214 C113.72210571 67.05420105 112.77657837 67.06257996 111.80239868 67.07121277 C110.85300415 67.07572449 109.90360962 67.08023621 108.92544556 67.08488464 C106.57190337 67.09671149 104.21839336 67.11464756 101.86489868 67.13371277 C101.86489868 61.19371277 101.86489868 55.25371277 101.86489868 49.13371277 C106.74771118 49.28019714 106.74771118 49.28019714 111.63052368 49.42668152 C115.10954264 49.11155299 116.45239047 48.61078932 118.86489868 46.13371277 C119.44840373 43.59080652 119.44840373 43.59080652 118.86489868 41.13371277 C115.12811439 38.64252324 113.12038049 38.92719017 108.67739868 39.00871277 C107.40509399 39.02675964 106.13278931 39.04480652 104.82192993 39.06340027 C103.84610962 39.08660339 102.87028931 39.10980652 101.86489868 39.13371277 C101.86489868 34.84371277 101.86489868 30.55371277 101.86489868 26.13371277 C108.79489868 26.13371277 115.72489868 26.13371277 122.86489868 26.13371277 C125.34446186 21.4958319 125.34446186 21.4958319 123.86489868 18.13371277 C119.40211558 15.90232122 113.26579537 16.94871578 108.36489868 16.94621277 C107.10290649 16.93396667 105.84091431 16.92172058 104.54067993 16.90910339 C102.73663696 16.906203 102.73663696 16.906203 100.89614868 16.90324402 C99.78819946 16.89913513 98.68025024 16.89502625 97.53872681 16.89079285 C94.71183912 16.85995322 94.71183912 16.85995322 92.86489868 19.13371277 Z M135.48989868 23.25871277 C132.78157369 28.05036468 132.16422867 32.9554736 133.35317993 38.34855652 C135.92899927 44.70875498 141.01323153 47.11874784 146.86489868 50.13371277 C148.04741976 50.77281423 149.22834503 51.41487501 150.40786743 52.05949402 C153.54889926 53.77243573 156.70338925 55.45880652 159.86489868 57.13371277 C159.98989868 60.50871277 159.98989868 60.50871277 159.86489868 64.13371277 C157.86489868 66.13371277 157.86489868 66.13371277 154.55239868 66.57121277 C148.27490566 66.46678128 142.54936896 63.56001106 136.86489868 61.13371277 C135.54489868 62.45371277 134.22489868 63.77371277 132.86489868 65.13371277 C133.80256769 68.50932119 134.69933489 69.99641597 137.42739868 72.25871277 C144.57818552 76.15914195 150.78181169 78.26551593 158.86489868 76.13371277 C164.19775233 74.24900947 167.24067946 71.11369084 169.98208618 66.21183777 C171.98596318 61.49474677 171.2954675 58.20077463 169.42739868 53.57121277 C164.64707438 46.11855439 155.08102659 42.53175205 147.48989868 38.55168152 C144.86489868 37.13371277 144.86489868 37.13371277 143.86489868 36.13371277 C143.82396931 33.80073844 143.82248145 31.46666052 143.86489868 29.13371277 C147.05143349 27.22179189 149.01475116 26.96747301 152.67739868 27.44621277 C153.55138306 27.55062683 154.42536743 27.65504089 155.32583618 27.76261902 C156.87756279 27.98940983 158.42622216 28.24117804 159.96646118 28.53605652 C163.54325639 29.24262353 163.54325639 29.24262353 166.86489868 28.00871277 C168.02094283 26.12569488 168.02094283 26.12569488 168.11489868 23.69621277 C166.37146769 20.12217923 164.30524807 19.28708433 160.66958618 17.86418152 C150.71080445 15.27045981 143.08600221 16.46219908 135.48989868 23.25871277 Z M182.61489868 22.44621277 C179.36659709 27.43467593 178.58370432 31.31161032 179.28286743 37.10636902 C180.72448788 42.12785232 183.09692616 44.64014753 187.65151978 47.16496277 C188.56151733 47.64449402 188.56151733 47.64449402 189.48989868 48.13371277 C190.11074341 48.47402527 190.73158813 48.81433777 191.37124634 49.16496277 C192.61561847 49.84599774 193.86281958 50.52189196 195.11294556 51.19230652 C197.50467857 52.47749639 199.87146784 53.80618466 202.23989868 55.13371277 C203.44771918 55.8013081 204.65581966 56.46839945 205.86489868 57.13371277 C205.98989868 60.50871277 205.98989868 60.50871277 205.86489868 64.13371277 C203.86489868 66.13371277 203.86489868 66.13371277 200.55239868 66.57121277 C194.27490566 66.46678128 188.54936896 63.56001106 182.86489868 61.13371277 C181.54489868 62.45371277 180.22489868 63.77371277 178.86489868 65.13371277 C179.94298576 69.01482625 181.41325415 71.12707363 184.90005493 73.21574402 C191.7840062 76.43190415 198.4514751 78.01848148 205.86489868 76.13371277 C210.16355764 73.81905025 213.34309179 71.33672426 215.86489868 67.13371277 C217.13187389 62.52574131 217.10724066 58.98903739 215.80239868 54.38371277 C211.87632297 47.79803739 205.69462201 44.74729389 199.05239868 41.38371277 C197.52430724 40.59870819 195.99692354 39.81232386 194.47036743 39.02433777 C193.80158569 38.68434753 193.13280396 38.3443573 192.4437561 37.99406433 C190.86489868 37.13371277 190.86489868 37.13371277 189.86489868 36.13371277 C189.82396931 33.80073844 189.82248145 31.46666052 189.86489868 29.13371277 C193.05143349 27.22179189 195.01475116 26.96747301 198.67739868 27.44621277 C199.55138306 27.55062683 200.42536743 27.65504089 201.32583618 27.76261902 C202.87756279 27.98940983 204.42622216 28.24117804 205.96646118 28.53605652 C209.54325639 29.24262353 209.54325639 29.24262353 212.86489868 28.00871277 C214.06097711 26.12023238 214.06097711 26.12023238 213.86489868 23.63371277 C212.53848338 20.31767451 211.05884972 19.61927139 207.86489868 18.13371277 C199.21128942 15.38289658 189.08952768 15.79173297 182.61489868 22.44621277 Z " fill="#000000" transform="translate(61.135101318359375,84.86628723144531)"/>
<path d="M0 0 C1.33763901 -0.00856522 1.33763901 -0.00856522 2.70230103 -0.01730347 C3.68314667 -0.01842133 4.66399231 -0.01953918 5.67456055 -0.02069092 C6.70551849 -0.02565582 7.73647644 -0.03062073 8.79867554 -0.03573608 C12.21955016 -0.05037869 15.64037845 -0.05716228 19.0612793 -0.06268311 C21.4301758 -0.06843166 23.79907229 -0.07418943 26.16796875 -0.07995605 C31.13794167 -0.09047123 36.10789838 -0.0963109 41.07788086 -0.09979248 C47.4607101 -0.10528632 53.84332699 -0.1293313 60.22608948 -0.15776443 C65.11926917 -0.1763418 70.01239714 -0.18159373 74.90560913 -0.18312836 C77.25964523 -0.18616519 79.6136802 -0.19422807 81.96768188 -0.20731354 C85.25295431 -0.22427591 88.5377002 -0.22251811 91.82299805 -0.21600342 C92.80384369 -0.2252182 93.78468933 -0.23443298 94.79525757 -0.243927 C96.13289658 -0.23557327 96.13289658 -0.23557327 97.49755859 -0.22705078 C98.27479782 -0.22851734 99.05203705 -0.2299839 99.85282898 -0.2314949 C100.47849258 -0.10875576 101.10415619 0.01398338 101.7487793 0.14044189 C103.90561354 3.37569326 103.99949482 4.23808985 104.00274658 7.96748352 C104.00838623 8.96158737 104.01402588 9.95569122 104.01983643 10.97991943 C104.01578796 12.06937866 104.0117395 13.15883789 104.00756836 14.28131104 C104.011073 15.42945786 104.01457764 16.57760468 104.01818848 17.76054382 C104.02700997 21.56562295 104.02115543 25.37051704 104.0144043 29.17559814 C104.01575073 31.81210872 104.01769108 34.44861906 104.02020264 37.08512878 C104.02384174 42.61408505 104.01904413 48.14298788 104.00952148 53.67193604 C103.99863163 60.06866961 104.00216653 66.46527575 104.0131743 72.86200625 C104.02333366 79.01136346 104.02227154 85.16066406 104.01641083 91.31002617 C104.0150729 93.92920385 104.016727 96.54838476 104.02136993 99.16755867 C104.02642555 102.82145036 104.0187386 106.47509415 104.00756836 110.12896729 C104.01161682 111.22045074 104.01566528 112.3119342 104.01983643 113.43649292 C104.01419678 114.42777695 104.00855713 115.41906097 104.00274658 116.44038391 C104.00199253 117.30481645 104.00123848 118.16924898 104.00046158 119.05987644 C103.7487793 121.14044189 103.7487793 121.14044189 101.7487793 123.14044189 C99.8344183 123.38933086 99.8344183 123.38933086 97.4528656 123.38768005 C96.55124695 123.39187454 95.6496283 123.39606903 94.72068787 123.40039062 C93.72892044 123.39477112 92.73715302 123.38915161 91.71533203 123.38336182 C90.67301422 123.38526016 89.63069641 123.38715851 88.55679321 123.38911438 C85.09857756 123.39283045 81.64057016 123.38210677 78.18237305 123.37091064 C75.78866094 123.36971929 73.39494835 123.36926559 71.00123596 123.36952209 C65.97996096 123.36795583 60.95875711 123.35965473 55.9375 123.34625244 C49.48514357 123.32925327 43.03286536 123.32543827 36.58048916 123.32619762 C31.63673652 123.32592636 26.69300114 123.3204523 21.74925423 123.31319618 C19.36928501 123.31000308 16.98931382 123.30804062 14.60934258 123.30730247 C11.29047145 123.30514621 7.9716851 123.29641776 4.65283203 123.28570557 C3.16214455 123.28638535 3.16214455 123.28638535 1.64134216 123.28707886 C0.74254333 123.28281387 -0.15625549 123.27854889 -1.08229065 123.27415466 C-2.2605937 123.2716409 -2.2605937 123.2716409 -3.46270084 123.26907635 C-5.2512207 123.14044189 -5.2512207 123.14044189 -6.2512207 122.14044189 C-6.34713269 120.57156555 -6.37310066 118.99836397 -6.37147522 117.42655945 C-6.37353722 115.89732849 -6.37353722 115.89732849 -6.37564087 114.33720398 C-6.37204559 113.20935989 -6.36845032 112.08151581 -6.36474609 110.91949463 C-6.36489212 109.73916656 -6.36503815 108.5588385 -6.3651886 107.34274292 C-6.36460965 104.09702081 -6.35958057 100.85134134 -6.35261464 97.60562778 C-6.34638032 94.21701157 -6.34577724 90.82839461 -6.34458923 87.43977356 C-6.34147615 81.01888385 -6.33326307 74.59801109 -6.32323974 68.17712885 C-6.3120779 60.86890365 -6.30656798 53.56067765 -6.30154431 46.25244606 C-6.29108043 31.21510188 -6.27348143 16.17777358 -6.2512207 1.14044189 C-3.92958655 -0.02037518 -2.58502411 0.00989345 0 0 Z " fill="#000000" transform="translate(52.251220703125,237.85955810546875)"/>
<path d="M0 0 C2.71026849 1.86846291 4.91878623 4.14894463 7.20458984 6.50756836 C8.22783859 7.52709343 8.22783859 7.52709343 9.27175903 8.56721497 C11.51613706 10.81067692 13.73842853 13.07473213 15.9609375 15.33984375 C17.51671332 16.90427587 19.07374888 18.46745614 20.63198853 20.0294342 C24.72547352 24.14013632 28.80019591 28.26897408 32.8717041 32.40142822 C36.2054973 35.77887107 39.55233569 39.14321713 42.89995384 42.50694942 C46.88291417 46.50948502 50.8603445 50.51749158 54.8359375 54.52734375 C55.59776714 55.29559919 56.35959679 56.06385464 57.14451218 56.85539055 C59.28990479 59.02169684 61.43154768 61.19163126 63.57177734 63.36303711 C64.21173645 64.00882721 64.85169556 64.65461731 65.51104736 65.31997681 C70.74105281 70.64052724 70.74105281 70.64052724 71.5 74.625 C70.95264491 78.31964689 70.37510616 79.04685979 67.94946289 81.71313477 C67.31178986 82.4161673 66.67411682 83.11919983 66.01712036 83.84353638 C60.68208527 89.54711724 55.20232683 95.10350817 49.70239258 100.64770508 C48.18530363 102.18147432 46.67361719 103.72060515 45.16723633 105.26489258 C42.9763597 107.51041638 40.76958929 109.73914821 38.55859375 111.96484375 C37.55523232 113.00220924 37.55523232 113.00220924 36.53160095 114.06053162 C35.89396317 114.69531937 35.25632538 115.33010712 34.59936523 115.98413086 C34.04756088 116.54402206 33.49575653 117.10391327 32.92723083 117.68077087 C30.19658572 119.54995359 28.31020343 119.939121 25 120 C22.08282471 118.404953 22.08282471 118.404953 19.03613281 115.94213867 C18.19906233 115.26717614 18.19906233 115.26717614 17.34508133 114.578578 C10.3083535 108.78788825 3.86525965 102.35810842 -2.578125 95.92578125 C-3.92457605 94.58899813 -5.27123955 93.25242898 -6.61810303 91.9160614 C-9.41329419 89.1386698 -12.20238471 86.35531608 -14.98779297 83.56811523 C-18.55356683 80.00203395 -22.13970165 76.45719255 -25.73118973 72.9170351 C-28.50724683 70.17431437 -31.26958105 67.41808604 -34.02822113 64.65785789 C-35.34548475 63.34412519 -36.6675949 62.0352329 -37.99466705 60.73140907 C-39.8420799 58.91341266 -41.66948685 57.07735953 -43.49316406 55.2355957 C-44.03954025 54.70607803 -44.58591644 54.17656036 -45.14884949 53.6309967 C-48.74166569 49.94700376 -50.04241866 47.16244661 -50 42 C-48.84944153 39.85411072 -48.84944153 39.85411072 -47.06567383 38.07397461 C-46.41442535 37.40357147 -45.76317688 36.73316833 -45.0921936 36.04244995 C-44.40176971 35.36844147 -43.71134583 34.69443298 -43 34 C-42.04182877 33.00965256 -42.04182877 33.00965256 -41.06430054 31.9992981 C-39.04750344 29.9158462 -37.00256114 27.86382193 -34.94921875 25.81640625 C-34.2092012 25.07543198 -33.46918365 24.3344577 -32.70674133 23.57102966 C-31.1575284 22.02114141 -29.60707273 20.47249442 -28.05541992 18.92504883 C-25.67314495 16.54817751 -23.29631503 14.16595354 -20.91992188 11.78320312 C-19.4091751 10.27311635 -17.89811859 8.76333938 -16.38671875 7.25390625 C-15.67529221 6.54045547 -14.96386566 5.8270047 -14.23088074 5.0919342 C-13.57292007 4.4371257 -12.91495941 3.7823172 -12.23706055 3.10766602 C-11.65860886 2.53000992 -11.08015717 1.95235382 -10.48417664 1.35719299 C-7.027933 -1.80334029 -4.39277287 -1.11300845 0 0 Z " fill="#000000" transform="translate(294,279)"/>
<path d="M0 0 C2.66268298 0.85221114 4.35117122 1.83466224 6.56787109 3.52124023 C7.31625244 4.08270752 8.06463379 4.6441748 8.83569336 5.22265625 C9.63031982 5.83165771 10.42494629 6.44065918 11.24365234 7.06811523 C12.95396497 8.35410297 14.66491757 9.63923994 16.37646484 10.92358398 C17.24174805 11.57633301 18.10703125 12.22908203 18.99853516 12.90161133 C22.83645683 15.77748811 26.72434181 18.58182148 30.61865234 21.38061523 C32.09261259 22.44311258 33.56657092 23.50561259 35.04052734 24.56811523 C37.36365453 26.24060364 39.68726925 27.91241092 42.01123047 29.58374023 C43.66581429 30.77390217 45.32003478 31.9645694 46.97387695 33.15576172 C48.5259277 34.27363699 50.07877588 35.39040628 51.63256836 36.50585938 C62.21008945 44.12598944 62.21008945 44.12598944 63.55615234 46.81811523 C63.93115234 50.13061523 63.93115234 50.13061523 63.55615234 53.81811523 C61.01478076 56.97765829 59.40992575 58.5335241 55.55615234 59.81811523 C45.78143565 60.63267496 39.83661127 55.45660283 32.24365234 49.88061523 C30.64218174 48.71382243 29.04061661 47.54715936 27.43896484 46.38061523 C26.62717773 45.78764648 25.81539063 45.19467773 24.97900391 44.58374023 C21.9376597 42.36739588 18.88378319 40.16881122 15.82836914 37.97192383 C13.61273882 36.37635666 11.40245376 34.77360645 9.19287109 33.16967773 C5.87870476 30.76549312 2.54400175 28.39250532 -0.79931641 26.02905273 C-2.55608378 24.77159915 -4.31260041 23.51379517 -6.06884766 22.25561523 C-6.90536865 21.67175049 -7.74188965 21.08788574 -8.60375977 20.48632812 C-9.36825439 19.93452881 -10.13274902 19.38272949 -10.92041016 18.81420898 C-11.94255615 18.08995728 -11.94255615 18.08995728 -12.98535156 17.35107422 C-14.44384766 15.81811523 -14.44384766 15.81811523 -14.44384766 11.81811523 C-12.60918542 9.5328342 -10.82652887 7.55152703 -8.75634766 5.50561523 C-7.96067383 4.66160156 -7.96067383 4.66160156 -7.14892578 3.80053711 C-3.12563463 -0.23262715 -3.12563463 -0.23262715 0 0 Z " fill="#000000" transform="translate(349.44384765625,394.181884765625)"/>
<path d="M0 0 C3.85231026 1.58729516 6.29838891 4.04469425 9.22753906 6.96875 C9.73530884 7.47301514 10.24307861 7.97728027 10.76623535 8.49682617 C12.43775439 10.15956536 14.1018785 11.82948623 15.765625 13.5 C16.92546837 14.65849607 18.0856085 15.81669512 19.24603271 16.97460938 C21.67347353 19.39910436 24.09726634 21.82717362 26.51855469 24.2578125 C29.62795697 27.37863442 32.74628512 30.49035864 35.86737442 33.5994873 C38.26266783 35.98756925 40.65319644 38.38037493 43.04228973 40.7746582 C44.19072252 41.92442814 45.34065105 43.07270602 46.49207306 44.21948242 C48.09627409 45.81862719 49.69396192 47.4240025 51.29003906 49.03125 C52.20174866 49.94455078 53.11345825 50.85785156 54.05279541 51.79882812 C56 54 56 54 56 56 C44.74293414 59.39367427 33.23255926 56.74733943 23.08984375 51.4921875 C11.24591266 44.48683624 3.58047724 34.21239273 -0.375 21 C-1.79459706 14.16012324 -1.54972856 6.78161217 0 0 Z " fill="#000000" transform="translate(242,346)"/>
<path d="M0 0 C5.68734493 3.34339733 10.1691156 8.59834174 13.25 14.375 C14.33870116 21.31546987 14.74335342 28.08877931 11.75 34.5625 C8.85984919 33.25245776 6.78557826 31.85005525 4.54199219 29.61328125 C3.94167175 29.01926514 3.34135132 28.42524902 2.72283936 27.81323242 C2.08727112 27.17361572 1.45170288 26.53399902 0.796875 25.875 C0.13665344 25.21669189 -0.52356812 24.55838379 -1.20379639 23.88012695 C-2.59470501 22.49057708 -3.98310008 21.09850726 -5.36914062 19.70410156 C-7.49909741 17.56340714 -9.63954496 15.4336209 -11.78125 13.3046875 C-13.13085039 11.95376613 -14.47983059 10.60222482 -15.828125 9.25 C-16.47179016 8.6103833 -17.11545532 7.9707666 -17.77862549 7.31176758 C-22.25 2.79242911 -22.25 2.79242911 -22.25 0.5625 C-15.50758088 -2.43413072 -6.85636105 -2.96747642 0 0 Z " fill="#000000" transform="translate(446.25,185.4375)"/>
<path d="M0 0 C6.6 0 13.2 0 20 0 C21.87000326 4.67500815 22.26739872 7.84641542 22.1953125 12.70703125 C22.1924826 13.43242599 22.18965271 14.15782074 22.18673706 14.90519714 C22.17559799 17.20780368 22.15050566 19.51001227 22.125 21.8125 C22.11496206 23.37955165 22.10583763 24.94660943 22.09765625 26.51367188 C22.0756793 30.34259978 22.04119339 34.17123256 22 38 C13.40554323 34.11769316 5.12961314 25.7959525 0 18 C-2.00705611 11.72530881 -0.93439498 6.54076486 0 0 Z " fill="#000000" transform="translate(354,100)"/>
<path d="M0 0 C12.31668857 -0.40604468 12.31668857 -0.40604468 17 3 C19.14202387 5.62884748 19.11408927 7.79893143 18.875 11.0625 C18.4269034 13.89868789 18.19923404 14.78702568 16.1875 16.9375 C12.34027285 18.80615319 9.00618335 19.11850241 4.75 19.0625 C3.1825 19.041875 1.615 19.02125 0 19 C0 12.73 0 6.46 0 0 Z " fill="#000000" transform="translate(117,111)"/>
<path d="M0 0 C12.32764382 -0.40640584 12.32764382 -0.40640584 17 3 C19.10101595 5.6740203 18.99846976 7.04284685 18.875 10.5 C17.92256805 14.30972781 17.07793835 15.64628244 14 18 C9.36297289 19.5456757 4.87528349 19.05735628 0 19 C0 12.73 0 6.46 0 0 Z " fill="#000000" transform="translate(71,111)"/>
<path d="M0 0 C0 9.24 0 18.48 0 28 C-4.4247461 26.23010156 -7.62326279 24.24390865 -11.3125 21.375 C-12.13717773 20.74464844 -12.13717773 20.74464844 -12.97851562 20.1015625 C-14.32292168 19.07279961 -15.66201413 18.0370991 -17 17 C-15.68692628 14.10147635 -14.27315362 12.01722783 -12.03125 9.765625 C-11.17466797 8.90517578 -11.17466797 8.90517578 -10.30078125 8.02734375 C-9.70652344 7.44082031 -9.11226563 6.85429687 -8.5 6.25 C-7.90574219 5.64800781 -7.31148438 5.04601562 -6.69921875 4.42578125 C-6.12816406 3.85730469 -5.55710937 3.28882813 -4.96875 2.703125 C-4.44732422 2.18395508 -3.92589844 1.66478516 -3.38867188 1.12988281 C-2 0 -2 0 0 0 Z " fill="#000000" transform="translate(376,367)"/>
<path d="M0 0 C3.84449092 1.92224546 7.24912842 4.16284856 10.75 6.625 C11.35199219 7.04523438 11.95398438 7.46546875 12.57421875 7.8984375 C14.05113043 8.92993137 15.52579194 9.96464579 17 11 C16.45799549 14.8989357 14.76502461 16.54846958 11.875 19.125 C10.75738281 20.14980469 10.75738281 20.14980469 9.6171875 21.1953125 C7 23 7 23 0 25 C0 16.75 0 8.5 0 0 Z " fill="#000000" transform="translate(354,441)"/>
</svg>
