<?xml version="1.0" standalone="no"?>
<!DOCTYPE svg PUBLIC "-//W3C//DTD SVG 20010904//EN"
 "http://www.w3.org/TR/2001/REC-SVG-20010904/DTD/svg10.dtd">
<svg version="1.0" xmlns="http://www.w3.org/2000/svg"
 width="225.000000pt" height="224.000000pt" viewBox="0 0 225.000000 224.000000"
 preserveAspectRatio="xMidYMid meet">

<g transform="translate(0.000000,224.000000) scale(0.100000,-0.100000)"
fill="#000000" stroke="none">
<path d="M1660 2220 c-25 -10 -152 -68 -284 -128 l-238 -109 -261 110 -261
109 -120 -46 c-406 -154 -471 -182 -483 -207 -10 -18 -13 -199 -13 -777 l0
-753 25 -24 c13 -14 35 -25 48 -25 14 0 140 45 281 100 l257 100 252 -105
c249 -103 298 -117 329 -92 14 11 13 19 -15 77 l-32 64 -259 108 c-143 59
-265 108 -272 108 -8 0 -107 -37 -221 -81 -115 -45 -216 -84 -225 -86 -17 -5
-18 30 -18 645 l0 650 147 57 c82 32 185 73 231 91 l82 33 253 -106 c138 -58
263 -106 277 -106 14 0 150 57 303 127 l278 127 187 -43 187 -44 3 -653 2
-654 -38 6 -39 5 -32 -66 c-18 -35 -29 -68 -24 -72 9 -8 193 -50 218 -50 9 0
27 11 40 25 l25 24 0 759 c0 720 -1 761 -18 782 -15 19 -63 33 -268 81 -137
32 -251 58 -254 58 -3 0 -25 -9 -50 -19z"/>
<path d="M1697 1924 c-10 -10 -8 -586 2 -602 5 -8 17 -12 27 -10 18 3 19 18
19 308 0 299 0 305 -20 308 -12 2 -24 0 -28 -4z"/>
<path d="M591 1856 c-8 -9 -10 -147 -9 -492 l3 -479 25 0 25 0 3 484 c2 381 0
486 -10 493 -18 11 -24 10 -37 -6z"/>
<path d="M1121 1676 c-8 -9 -11 -87 -9 -262 l3 -249 25 0 25 0 3 254 c2 197
-1 256 -10 263 -18 11 -24 10 -37 -6z"/>
<path d="M1457 1179 c-185 -44 -309 -229 -276 -413 8 -45 56 -153 183 -411
l173 -350 179 358 179 358 0 102 c0 92 -3 107 -28 157 -79 154 -249 237 -410
199z m161 -179 c128 -78 73 -284 -76 -284 -91 0 -156 65 -156 156 0 113 134
187 232 128z"/>
</g>
</svg>
