<?xml version="1.0" standalone="no"?>
<!DOCTYPE svg PUBLIC "-//W3C//DTD SVG 20010904//EN"
 "http://www.w3.org/TR/2001/REC-SVG-20010904/DTD/svg10.dtd">
<svg version="1.0" xmlns="http://www.w3.org/2000/svg"
 width="512.000000pt" height="512.000000pt" viewBox="0 0 512.000000 512.000000"
 preserveAspectRatio="xMidYMid meet">

<g transform="translate(0.000000,512.000000) scale(0.100000,-0.100000)"
fill="#000000" stroke="none">
<path d="M2934 5026 c-12 -9 -38 -61 -63 -129 l-43 -114 -70 -22 c-39 -12
-108 -39 -154 -61 -45 -22 -87 -40 -92 -40 -5 0 -55 20 -111 45 -56 25 -114
45 -128 45 -22 0 -59 -32 -184 -157 -95 -95 -160 -169 -164 -185 -5 -19 6 -56
42 -139 l49 -112 -37 -75 c-21 -42 -50 -113 -65 -157 l-27 -81 -114 -44 c-93
-35 -117 -48 -128 -71 -12 -22 -15 -74 -15 -243 0 -259 -7 -246 150 -305 l105
-39 27 -78 c15 -44 45 -115 66 -159 l38 -80 -47 -105 c-27 -58 -48 -116 -48
-129 -1 -19 39 -65 161 -188 190 -191 176 -186 329 -118 l101 45 81 -39 c45
-21 117 -51 159 -66 l77 -27 41 -106 c23 -59 48 -115 57 -124 15 -16 39 -18
253 -18 205 0 239 2 251 16 8 9 34 65 59 126 l45 110 75 25 c41 13 111 42 156
64 l80 39 104 -46 c57 -26 117 -47 134 -46 24 1 56 27 187 158 87 87 160 168
164 182 4 16 -9 59 -43 137 l-49 113 34 69 c19 38 49 109 66 157 l32 89 107
41 c59 22 115 49 125 59 16 16 18 42 21 234 2 147 -1 225 -8 244 -13 30 -42
46 -172 94 l-76 29 -27 80 c-15 45 -45 115 -66 158 l-38 76 50 112 c37 83 49
120 44 139 -4 15 -73 92 -164 184 -132 132 -162 157 -187 157 -16 0 -74 -20
-128 -45 -55 -25 -103 -45 -108 -45 -5 0 -46 18 -91 39 -45 21 -114 49 -154
62 l-72 23 -42 109 c-23 60 -51 117 -62 128 -19 18 -38 19 -247 19 -179 0
-230 -3 -246 -14z m429 -251 c21 -55 43 -105 48 -112 6 -6 55 -26 110 -43 55
-17 144 -53 197 -80 53 -28 108 -50 123 -50 15 0 67 18 117 40 49 22 94 40 99
40 4 0 53 -44 107 -99 l98 -98 -46 -105 c-25 -58 -46 -111 -46 -117 0 -6 23
-55 50 -108 28 -54 65 -143 82 -198 17 -55 39 -108 49 -117 11 -9 64 -34 119
-55 l101 -38 -3 -143 -3 -144 -98 -37 c-54 -21 -107 -46 -118 -57 -11 -11 -29
-56 -41 -99 -12 -44 -48 -131 -80 -194 -32 -63 -58 -121 -58 -128 0 -7 20 -59
45 -115 l46 -102 -103 -102 -103 -102 -99 44 c-54 24 -107 44 -117 44 -11 0
-56 -20 -102 -44 -45 -25 -131 -61 -192 -82 -60 -20 -118 -43 -127 -51 -10 -9
-34 -60 -55 -114 l-38 -99 -146 0 -146 0 -38 99 c-20 55 -44 106 -54 114 -9 8
-65 31 -126 51 -60 21 -147 57 -192 82 -46 24 -91 44 -102 44 -10 0 -63 -20
-117 -44 l-99 -44 -103 102 -103 102 39 90 c60 135 60 120 -2 245 -31 61 -68
150 -82 198 -15 47 -34 94 -44 104 -9 10 -61 35 -116 56 l-99 39 -3 144 -3
144 111 43 c124 48 119 42 160 176 11 39 45 120 75 181 30 62 55 115 55 119 0
4 -21 55 -47 112 l-46 104 99 100 c54 54 103 99 107 99 5 0 50 -18 99 -40 50
-22 102 -40 117 -40 15 0 70 22 123 50 53 27 143 63 199 81 l101 31 28 62 c15
33 35 85 46 114 l18 53 145 -3 145 -3 39 -100z"/>
<path d="M3099 4259 c-384 -32 -689 -370 -689 -763 0 -305 168 -572 440 -700
236 -111 500 -98 728 35 93 55 230 200 279 294 71 138 88 209 88 365 -1 156
-15 222 -75 345 -141 287 -441 452 -771 424z m219 -171 c92 -17 209 -83 288
-162 121 -121 173 -236 181 -401 6 -118 -11 -203 -57 -296 l-31 -61 -35 59
c-46 76 -126 157 -192 195 -47 27 -51 32 -39 47 8 9 25 36 38 61 20 38 24 59
24 140 0 84 -3 101 -27 146 -34 65 -111 134 -174 157 -62 22 -165 22 -230 0
-70 -24 -165 -120 -189 -191 -33 -101 -16 -224 40 -298 l25 -32 -53 -30 c-68
-39 -154 -127 -193 -198 l-32 -56 -17 25 c-64 99 -93 304 -61 441 22 94 79
198 149 273 154 164 352 226 585 181z m-47 -282 c50 -34 72 -85 67 -151 -8
-90 -68 -145 -158 -145 -162 0 -225 207 -90 297 47 33 132 32 181 -1z m47
-487 c100 -34 179 -107 227 -211 32 -69 31 -82 -8 -112 -84 -64 -243 -116
-357 -116 -151 0 -390 99 -390 161 0 39 54 134 104 185 113 112 269 146 424
93z"/>
<path d="M1815 2145 c-70 -15 -166 -53 -245 -98 -30 -17 -194 -111 -364 -209
-170 -98 -310 -177 -311 -176 -1 2 -17 29 -34 60 -61 108 -125 146 -229 136
-45 -5 -215 -92 -329 -169 -58 -40 -87 -102 -81 -177 4 -54 25 -95 357 -682
194 -344 364 -642 378 -662 32 -47 111 -88 170 -88 45 0 123 36 295 139 108
63 143 113 143 201 0 47 -8 68 -47 140 l-46 85 65 38 c36 20 71 37 78 37 8 0
265 -68 572 -150 627 -169 673 -178 819 -145 43 10 102 28 129 40 79 35 1626
990 1668 1030 21 20 51 62 65 93 23 49 27 70 27 147 0 109 -20 170 -79 233
-123 134 -338 142 -580 20 -34 -17 -269 -152 -524 -300 -255 -148 -480 -275
-501 -283 l-38 -13 18 49 c23 61 25 159 3 223 -19 56 -101 149 -156 177 -21
11 -87 31 -146 44 -163 37 -325 86 -557 169 -116 41 -237 82 -270 90 -71 19
-168 19 -250 1z m449 -234 c268 -96 415 -141 568 -176 133 -31 160 -44 193
-92 46 -69 28 -175 -38 -217 -62 -41 -122 -33 -488 69 -108 30 -207 55 -221
55 -63 0 -98 -76 -56 -124 19 -22 60 -36 257 -91 335 -93 423 -110 566 -110
132 0 185 11 280 58 33 16 253 142 489 280 236 137 465 267 510 288 194 93
342 84 398 -24 27 -54 22 -149 -10 -194 -25 -35 -1584 -1000 -1674 -1036 -42
-16 -75 -21 -158 -21 -105 0 -107 0 -686 157 -320 86 -590 157 -600 157 -10 0
-58 -23 -107 -51 -74 -43 -91 -49 -102 -38 -6 8 -101 171 -209 363 -160 284
-195 351 -184 361 22 21 659 386 726 417 178 81 238 78 546 -31z m-1297 -701
c459 -810 446 -786 435 -807 -11 -20 -241 -154 -277 -161 -29 -5 2 -57 -409
670 -223 396 -336 605 -334 620 4 30 239 167 282 165 27 -2 45 -31 303 -487z"/>
<path d="M600 1533 c-60 -22 -81 -100 -37 -141 26 -25 82 -29 109 -8 50 37 39
118 -18 142 -18 8 -35 14 -36 13 -2 0 -10 -3 -18 -6z"/>
</g>
</svg>
