<?xml version="1.0" standalone="no"?>
<!DOCTYPE svg PUBLIC "-//W3C//DTD SVG 20010904//EN"
 "http://www.w3.org/TR/2001/REC-SVG-20010904/DTD/svg10.dtd">
<svg version="1.0" xmlns="http://www.w3.org/2000/svg"
 width="512.000000pt" height="512.000000pt" viewBox="0 0 512.000000 512.000000"
 preserveAspectRatio="xMidYMid meet">

<g transform="translate(0.000000,512.000000) scale(0.100000,-0.100000)"
fill="#000000" stroke="none">
<path d="M1466 5104 c-167 -40 -311 -178 -360 -343 -9 -32 -16 -91 -16 -141 0
-145 46 -256 147 -356 150 -148 379 -183 570 -89 172 85 275 251 275 445 0
325 -300 560 -616 484z"/>
<path d="M3431 5109 c-58 -11 -156 -58 -208 -100 -24 -19 -120 -119 -214 -224
-197 -218 -221 -257 -221 -364 0 -92 29 -157 97 -220 92 -83 84 -82 671 -79
l509 3 51 27 c53 28 111 85 141 140 14 25 18 55 18 128 0 85 -3 100 -27 140
-32 54 -342 401 -401 448 -115 92 -270 130 -416 101z"/>
<path d="M805 3798 c-183 -34 -351 -195 -401 -383 -20 -75 -20 -1511 0 -1558
16 -39 61 -82 99 -96 66 -25 164 -4 209 46 48 53 48 47 48 783 l0 690 150 0
150 0 0 -1640 0 -1640 190 0 190 0 0 965 0 965 150 0 150 0 0 -965 0 -965 185
0 185 0 0 1905 0 1905 -627 -1 c-348 -1 -650 -5 -678 -11z"/>
<path d="M2410 1905 l0 -1905 150 0 150 0 0 1905 0 1905 -150 0 -150 0 0
-1905z"/>
<path d="M3010 1905 l0 -1905 185 0 185 0 0 965 0 965 150 0 150 0 0 -965 0
-965 190 0 190 0 0 1640 0 1640 150 0 150 0 0 -690 c0 -736 0 -730 48 -783 59
-66 180 -76 249 -21 77 62 73 10 73 842 l0 743 -25 76 c-48 141 -139 245 -269
308 -39 18 -98 38 -130 44 -39 7 -280 11 -678 11 l-618 0 0 -1905z"/>
</g>
</svg>
