<?xml version="1.0"?>
<svg xmlns="http://www.w3.org/2000/svg" viewBox="0 0 24 24">
    <path style="text-indent:0;text-align:start;line-height:normal;text-transform:none;block-progression:tb;-inkscape-font-specification:Bitstream Vera Sans" d="M 16 2 L 16 4 L 18.5625 4 L 16.59375 5.96875 C 15.709056 5.3610153 14.654645 5 13.5 5 C 10.462 5 8 7.462 8 10.5 C 8 12.901 9.5425 14.9375 11.6875 15.6875 C 12.3415 15.3315 12.83275 14.6935 12.96875 13.9375 C 11.29875 13.6735 10 12.243 10 10.5 C 10 8.57 11.57 7 13.5 7 C 15.43 7 17 8.57 17 10.5 C 17 10.949 16.905 11.38725 16.75 11.78125 C 16.903 12.33425 17 12.899 17 13.5 C 17 13.963 16.93575 14.40775 16.84375 14.84375 C 18.14475 13.83775 19 12.272 19 10.5 C 19 9.3453547 18.638985 8.2909435 18.03125 7.40625 L 20 5.4375 L 20 8 L 22 8 L 22 3 L 22 2 L 21 2 L 16 2 z M 12.3125 8.3125 C 11.6585 8.6685 11.16725 9.3065 11.03125 10.0625 C 12.70125 10.3265 14 11.757 14 13.5 C 14 15.43 12.43 17 10.5 17 C 8.57 17 7 15.43 7 13.5 C 7 13.05 7.095 12.61375 7.25 12.21875 C 7.094 11.66375 7 11.096 7 10.5 C 7 10.037 7.06425 9.59225 7.15625 9.15625 C 5.85525 10.16225 5 11.728 5 13.5 C 5 14.654645 5.3610153 15.709056 5.96875 16.59375 L 5 17.5625 L 3.71875 16.28125 L 2.28125 17.71875 L 3.5625 19 L 2.28125 20.28125 L 3.71875 21.71875 L 5 20.4375 L 6.28125 21.71875 L 7.71875 20.28125 L 6.4375 19 L 7.40625 18.03125 C 8.2909435 18.638985 9.3453547 19 10.5 19 C 13.538 19 16 16.538 16 13.5 C 16 11.099 14.4575 9.0625 12.3125 8.3125 z" overflow="visible" font-family="Bitstream Vera Sans"/>
</svg>
