<?xml version="1.0" encoding="UTF-8"?>
<svg version="1.1" xmlns="http://www.w3.org/2000/svg" width="512" height="512">
<path d="M0 0 C5.84125862 3.30348334 8.42306979 7.81608436 10.5234375 14.1171875 C10.7592788 19.058832 10.20055004 23.33009877 9.04223633 28.12792969 C8.88445709 28.79093582 8.72667786 29.45394196 8.56411743 30.13703918 C8.04384781 32.31462247 7.51232675 34.48928322 6.98046875 36.6640625 C6.61066744 38.20022563 6.24151328 39.73654468 5.87297058 41.27301025 C5.09840705 44.49519765 4.3187433 47.71608984 3.53491211 50.93603516 C2.34956719 55.80546581 1.17716171 60.67795732 0.00585938 65.55078125 C-1.65014297 72.4372031 -3.33547625 79.31595938 -5.0363903 86.19141388 C-6.0243047 90.20559371 -6.95340775 94.22702118 -7.82666016 98.26757812 C-8.02479813 99.13529846 -8.2229361 100.0030188 -8.42707825 100.89703369 C-8.76233468 102.36880213 -9.07603606 103.84585336 -9.35649109 105.32904053 C-10.94820882 112.04692334 -15.76519237 116.32126408 -20.4765625 121.1171875 C-21.28510178 121.95286255 -22.09364105 122.7885376 -22.92668152 123.64953613 C-25.49687732 126.28487104 -28.09007426 128.89540751 -30.69140625 131.5 C-31.6378917 132.44970925 -32.5843065 133.39948891 -33.53065491 134.34933472 C-35.49110006 136.31569905 -37.45353013 138.28005665 -39.41723633 140.24316406 C-41.9363986 142.76222341 -44.4485329 145.2881739 -46.95909786 147.81579781 C-49.36540366 150.23583136 -51.77882111 152.64872648 -54.19140625 155.0625 C-55.54443092 156.42630295 -55.54443092 156.42630295 -56.92478943 157.81765747 C-57.75648148 158.64627289 -58.58817352 159.47488831 -59.44506836 160.32861328 C-60.17737167 161.06234161 -60.90967499 161.79606995 -61.66416931 162.55203247 C-63.4765625 164.1171875 -63.4765625 164.1171875 -65.4765625 164.1171875 C-65.47542334 164.8056921 -65.47428418 165.49419669 -65.4731105 166.20356506 C-65.40597172 207.01276478 -65.35450051 247.82195808 -65.32336651 288.63120192 C-65.31961441 293.53155984 -65.31573144 298.43191764 -65.31176758 303.33227539 C-65.31098065 304.30784563 -65.31019372 305.28341586 -65.30938294 306.28854883 C-65.29633014 322.08344354 -65.27267697 337.87830548 -65.24510411 353.67318075 C-65.21704644 369.88099003 -65.20038547 386.08878214 -65.19429702 402.29661471 C-65.19018133 412.29716633 -65.17718365 422.29762534 -65.1528131 432.29814846 C-65.13695145 439.1565082 -65.13216312 446.01482008 -65.13605837 452.87319683 C-65.13797924 456.82972093 -65.13504101 460.7860832 -65.11894608 464.74257851 C-65.10430544 468.36811375 -65.10363694 471.99337894 -65.11386582 475.61892683 C-65.11572575 477.54491677 -65.10282437 479.47090371 -65.08931857 481.39684719 C-65.14105722 491.4185495 -66.53017277 499.08017994 -73.609375 506.453125 C-79.28527325 511.51156151 -84.95226101 511.65930453 -92.31640625 511.46484375 C-98.43591383 510.79162227 -101.98832449 508.60542551 -106.2890625 504.3046875 C-110.41246047 498.2963076 -111.92788772 493.50068887 -111.83732605 486.25209045 C-111.83988932 485.49065229 -111.8424526 484.72921413 -111.84509355 483.94470209 C-111.85000974 481.40961084 -111.83357482 478.87512368 -111.81713867 476.34008789 C-111.81629193 474.5164186 -111.81676846 472.69274829 -111.81846619 470.86907959 C-111.81932572 465.92947896 -111.80170662 460.99009759 -111.78074431 456.05054784 C-111.76197063 450.88425007 -111.76022652 445.7179471 -111.75666809 440.55162048 C-111.74734967 430.77345664 -111.72273859 420.99539361 -111.69261962 411.21727413 C-111.65906934 400.08311777 -111.64258801 388.94895657 -111.62753332 377.81476223 C-111.59618889 354.9155148 -111.54343229 332.0163568 -111.4765625 309.1171875 C-114.4465625 309.1171875 -117.4165625 309.1171875 -120.4765625 309.1171875 C-120.47195354 310.06141005 -120.46734457 311.00563259 -120.46259594 311.97846794 C-120.35150765 334.97294631 -120.26939086 357.9673898 -120.21750164 380.96208 C-120.19174022 392.082239 -120.15662899 403.20222054 -120.09936523 414.32226562 C-120.04946729 424.01658026 -120.0172565 433.71076635 -120.00612003 443.40520585 C-119.99961213 448.53651289 -119.98435953 453.66745222 -119.94791222 458.7986412 C-119.91385185 463.63317832 -119.90352981 468.46719794 -119.91102409 473.30184364 C-119.90965403 475.07148493 -119.89978152 476.84114438 -119.88053513 478.61068153 C-119.6937002 496.68234826 -119.6937002 496.68234826 -125.4765625 504.1171875 C-132.2634074 510.40014445 -137.69225103 511.55353021 -146.890625 511.44921875 C-153.16134332 510.86859668 -157.27458926 508.73902852 -161.3203125 503.921875 C-165.1805647 498.40462776 -166.59690161 494.32973105 -166.6152277 487.59620285 C-166.62070214 486.46658528 -166.62617659 485.33696771 -166.63181692 484.17311931 C-166.63279503 482.93188532 -166.63377314 481.69065134 -166.63478088 480.4118042 C-166.63971886 479.09348264 -166.64465684 477.77516108 -166.64974445 476.41689038 C-166.66332931 472.75462413 -166.67074492 469.09236718 -166.67717111 465.43008232 C-166.68517352 461.48191107 -166.69887185 457.53375915 -166.71188354 453.58560181 C-166.73364854 446.74413406 -166.75179296 439.90266437 -166.76748848 433.06118011 C-166.79018688 423.16950398 -166.81832976 413.27784926 -166.84780776 403.38619128 C-166.89548402 387.33819947 -166.93874812 371.29019891 -166.97924805 355.2421875 C-167.01860279 339.65168578 -167.06002897 324.06119184 -167.10424805 308.47070312 C-167.10697232 307.50994144 -167.10969659 306.54917976 -167.11250342 305.55930409 C-167.12618289 300.73951559 -167.13990317 295.9197272 -167.15364373 291.09993887 C-167.26760905 251.10570459 -167.37441829 211.11145362 -167.4765625 171.1171875 C-169.1265625 171.1171875 -170.7765625 171.1171875 -172.4765625 171.1171875 C-172.47710727 171.85010702 -172.47765203 172.58302654 -172.47821331 173.33815575 C-172.4932034 191.20052698 -172.53574015 209.06264017 -172.60865307 226.92487144 C-172.64325476 235.5630613 -172.66865225 244.20109237 -172.67211914 252.83935547 C-172.67516576 260.37155346 -172.69574971 267.90346831 -172.73708707 275.43555701 C-172.75835577 279.42104426 -172.77104951 283.40612962 -172.76271629 287.39167404 C-172.75513689 291.14953702 -172.77115446 294.90658832 -172.80462265 298.66430283 C-172.81668849 300.68769037 -172.8043176 302.71117841 -172.79100037 304.73455811 C-172.88818385 312.52441011 -173.88276437 318.66225869 -178.4765625 325.1171875 C-183.47606173 329.82341094 -189.01131821 330.52600921 -195.6171875 330.46484375 C-201.2881059 329.77534684 -204.87125645 326.68024865 -208.8515625 322.8046875 C-213.34909206 315.36646554 -212.76233139 306.95468498 -212.73535156 298.54785156 C-212.73806589 297.18684706 -212.7416293 295.82584403 -212.74597168 294.46484375 C-212.75504888 290.78690611 -212.75156988 287.10908134 -212.74521351 283.43114185 C-212.74012511 279.56637598 -212.7448532 275.70161931 -212.74798584 271.83685303 C-212.75161898 265.34401733 -212.74684535 258.85122721 -212.73730469 252.35839844 C-212.72643974 244.87851871 -212.72993406 237.39874821 -212.7409575 229.91887116 C-212.75007096 223.47440484 -212.75129536 217.02997117 -212.74608016 210.58550048 C-212.74298031 206.74660059 -212.74249559 202.90775179 -212.74915314 199.06885529 C-212.75498466 195.45396388 -212.75082505 191.83921132 -212.73936462 188.22433472 C-212.73551201 186.28487329 -212.74135518 184.34539996 -212.74761963 182.40594482 C-212.66852431 165.81570203 -209.651144 152.59372151 -197.8984375 140.30859375 C-190.97810911 134.04681274 -181.67437972 128.83479834 -172.10588074 128.96070862 C-170.56596432 129.04279018 -169.02689509 129.14208285 -167.48901367 129.25610352 C-165.72533887 129.35284133 -163.96160252 129.44846192 -162.19781494 129.54312134 C-161.27406319 129.59799335 -160.35031143 129.65286537 -159.3985672 129.70940018 C-109.34992616 134.72798013 -109.34992616 134.72798013 -64.68383789 117.61425781 C-46.50148516 99.15875314 -40.44378087 74.62914206 -36.43115234 49.77587891 C-35.19200308 42.16622526 -33.40946626 34.7049908 -31.55285645 27.22616577 C-31.05757946 25.19319436 -30.59590248 23.15544565 -30.14355469 21.11254883 C-28.22694434 12.81402212 -26.14739553 6.17621502 -19.4765625 0.6171875 C-13.62270803 -2.23928853 -6.05521945 -2.15848517 0 0 Z " fill="#000000" transform="translate(372.4765625,0.8828125)"/>
<path d="M0 0 C10.12756902 -0.06973371 20.25508024 -0.12292946 30.38284111 -0.15543652 C35.08636882 -0.171044 39.78973137 -0.1921917 44.49316406 -0.22631836 C49.03840873 -0.25908815 53.58349527 -0.27688994 58.12884903 -0.28463173 C59.85666515 -0.29014377 61.58447334 -0.30090692 63.31222153 -0.31719017 C79.16557632 -0.46056029 92.03158525 1.85759325 104.08203125 12.921875 C116.19987987 26.051601 117.14593294 40.60325926 117.16113281 57.62280273 C117.16577081 58.97734713 117.17079676 60.33189024 117.17617798 61.68643188 C117.18920399 65.34141204 117.19572685 68.99637392 117.20018864 72.65137362 C117.20313348 74.94018783 117.20724071 77.22899718 117.21169281 79.51780891 C117.22533791 86.69496587 117.23502082 93.87211157 117.2388947 101.04928058 C117.24337726 109.30576625 117.26094684 117.56208652 117.2898953 125.81852192 C117.31156143 132.2222071 117.3216015 138.62584588 117.32293582 145.0295673 C117.32397972 148.84496104 117.32979937 152.66019868 117.34775543 156.47555351 C117.36432337 160.0650391 117.3663498 163.65425259 117.35761642 167.24376297 C117.35648839 169.17407982 117.37013545 171.10438801 117.3843689 173.03465271 C117.34691825 180.90457176 117.09659535 189.04809504 112.0625 195.47265625 C111.381875 195.99730469 110.70125 196.52195312 110 197.0625 C109.319375 197.61035156 108.63875 198.15820312 107.9375 198.72265625 C102.89577445 202.04653579 96.79146349 201.76071268 91 201 C85.6901396 198.69674178 81.2934806 195.44701643 79 190 C77.96252001 186.65994664 77.86320611 183.57928074 77.84178162 180.09014893 C77.8319928 178.88142624 77.82220398 177.67270355 77.81211853 176.42735291 C77.80621481 175.09121744 77.80040433 173.75508155 77.79467773 172.41894531 C77.78509573 171.00950332 77.77508546 169.60006419 77.76467896 168.19062805 C77.73765872 164.36662498 77.71663357 160.54260961 77.69667697 156.71856403 C77.67479964 152.72134983 77.6474195 148.72417344 77.62062073 144.72698975 C77.57071747 137.15875144 77.52576986 129.59049212 77.48259836 122.02221274 C77.43320576 113.40557217 77.37829513 104.78896954 77.32291877 96.17236567 C77.20913507 78.44827901 77.10228816 60.72415654 77 43 C75.02 42.505 75.02 42.505 73 42 C72.99902319 42.67119712 72.99804638 43.34239424 72.99703997 44.03393066 C72.93875369 83.82449185 72.8649461 123.61499722 72.77101372 163.40549093 C72.75974571 168.18438952 72.74860723 172.96328841 72.73754883 177.7421875 C72.73534514 178.69357051 72.73314146 179.64495352 72.730871 180.62516631 C72.6955095 196.02490144 72.67063888 211.42463653 72.64965298 226.82439719 C72.6278818 242.62883138 72.59481884 258.43321294 72.55129844 274.23760235 C72.52480445 283.98783901 72.50709248 293.7380101 72.50065396 303.48828097 C72.49539319 310.17661275 72.47915307 316.86486206 72.45433434 323.55314963 C72.44034296 327.41053623 72.43113968 331.26777527 72.43499184 335.12518883 C72.43904663 339.3126093 72.41995436 343.49961263 72.39872742 347.6869812 C72.40357499 348.89906529 72.40842257 350.11114938 72.41341704 351.3599633 C72.32855316 361.51068305 71.0379138 369.90873908 63.8125 377.375 C58.60502591 382.04376988 52.83366847 383.1447373 46 383 C39.08334535 381.92534622 33.42473443 378.40578415 29 373 C26.43181728 367.91681738 25.56822067 363.81269624 25.63923645 358.09693909 C25.63667318 357.33141737 25.6341099 356.56589566 25.63146895 355.77717632 C25.62655242 353.22826677 25.64298827 350.67995792 25.65942383 348.13110352 C25.66027056 346.29758213 25.65979405 344.46405973 25.65809631 342.63053894 C25.65723675 337.66408016 25.67485632 332.69783943 25.69581819 327.73143125 C25.71459138 322.5371062 25.71633594 317.34277598 25.71989441 312.14842224 C25.72921297 302.31713471 25.75382425 292.48594744 25.78394288 282.65470403 C25.81749271 271.46008926 25.83397437 260.26546966 25.84902918 249.07081711 C25.88037393 226.04715586 25.93313082 203.02358355 26 180 C23.03 180 20.06 180 17 180 C17.00276538 180.93483687 17.00553076 181.86967375 17.00837994 182.83283901 C17.07501767 205.59333851 17.12429584 228.35382533 17.15543652 251.11440182 C17.17089669 262.12130643 17.19197003 273.12814655 17.22631836 284.13500977 C17.25624665 293.73006454 17.27558118 303.3250726 17.28226548 312.92017275 C17.28617191 317.99936588 17.29533498 323.07842537 17.31719017 328.15757561 C17.33760946 332.94195557 17.34382279 337.72614731 17.33932304 342.51056671 C17.34014581 344.26287167 17.34607895 346.01518317 17.35761642 347.76745033 C17.47553755 366.60692449 17.47553755 366.60692449 12.1875 374.8125 C6.87636481 380.12363519 1.26756935 382.91697351 -6.23046875 383.03515625 C-13.34832525 382.53286345 -18.76326752 380.23673248 -23.8125 375.1875 C-29.16839792 367.38319161 -29.44569277 361.24807287 -29.44151306 351.9319458 C-29.4514226 350.597299 -29.46260217 349.26266113 -29.4749375 347.92803454 C-29.50486596 344.27096265 -29.51612625 340.61403842 -29.52410543 336.9568615 C-29.53585341 333.00848043 -29.56458477 329.06021489 -29.59074402 325.11190796 C-29.6499166 315.58414902 -29.68021525 306.05638109 -29.70692739 296.52848446 C-29.72009151 292.0380543 -29.7361875 287.54763468 -29.751894 283.05721283 C-29.80291028 268.12548145 -29.84639425 253.19375655 -29.86814022 238.26195145 C-29.87386954 234.39078004 -29.8796306 230.5196087 -29.88549805 226.6484375 C-29.88694927 225.68632224 -29.88840049 224.72420698 -29.88989569 223.73293671 C-29.91480316 208.14322066 -29.99083276 192.55419466 -30.08824008 176.96478 C-30.18749487 160.94882568 -30.24148977 144.93322204 -30.25107294 128.91695857 C-30.25756333 119.92838743 -30.28373325 110.94082373 -30.36045647 101.9525528 C-30.42563774 94.2990033 -30.44970189 86.646706 -30.42055612 78.99291041 C-30.40693716 75.08985625 -30.41249588 71.18938422 -30.47084045 67.28668594 C-30.83670713 41.4045611 -30.83670713 41.4045611 -24.84967095 35.2282722 C-22.39739418 33.20261874 -19.733454 31.61713641 -17 30 C-9.02393511 22.41626353 -4.86529147 14.65472206 -1.43310547 4.31665039 C-1.16432587 3.50780899 -0.89554626 2.69896759 -0.61862183 1.86561584 C-0.41447662 1.24996262 -0.21033142 0.63430939 0 0 Z " fill="#000000" transform="translate(378,102)"/>
<path d="M0 0 C1.11170059 -0.00671722 2.22340118 -0.01343445 3.36878967 -0.02035522 C7.02886478 -0.03928779 10.68875598 -0.04325727 14.34887695 -0.04541016 C16.90704929 -0.05184208 19.46522091 -0.05857073 22.02339172 -0.06558228 C27.38215129 -0.07754373 32.74084302 -0.08135032 38.09960938 -0.08007812 C44.26286834 -0.07887894 50.42577588 -0.09994571 56.58894604 -0.13156545 C62.55085655 -0.16104499 68.5126616 -0.16804942 74.47464943 -0.16685867 C76.99543503 -0.16920735 79.51622368 -0.17798917 82.03696251 -0.19352341 C115.03454468 -0.37781296 115.03454468 -0.37781296 127.6496582 11.29052734 C128.91918945 13.50927734 128.91918945 13.50927734 129.6496582 15.29052734 C128.8040332 15.53287109 127.9584082 15.77521484 127.0871582 16.02490234 C109.91145721 21.09954127 96.46974145 29.81258697 87.2746582 45.72802734 C80.7477956 58.56479314 80.49926804 71.9083279 80.50439453 86.02685547 C80.50139579 87.38154695 80.49799163 88.73623758 80.49421692 90.09092712 C80.48544853 93.74172104 80.48304194 97.39249147 80.48240113 101.04329491 C80.4816869 103.32993687 80.47954564 105.616573 80.47690392 107.9032135 C80.46767641 115.89641698 80.46356604 123.88960387 80.46435547 131.8828125 C80.46495657 139.30937126 80.45439176 146.73585746 80.43861181 154.16239786 C80.42550328 160.56185701 80.42017291 166.96129252 80.42081088 173.36076498 C80.42106476 177.17275142 80.41827438 180.98467318 80.40763283 184.79664612 C80.39789501 188.38199904 80.39791124 191.96722613 80.40514946 195.55258369 C80.40667977 197.48049154 80.39838977 199.40839954 80.38970947 201.33628845 C80.42536687 211.27280091 81.10852737 220.75205884 86.6496582 229.29052734 C87.4559668 230.08136719 87.4559668 230.08136719 88.27856445 230.88818359 C89.6496582 232.29052734 89.6496582 232.29052734 89.6496582 234.29052734 C90.2271582 234.55865234 90.8046582 234.82677734 91.3996582 235.10302734 C93.77331568 236.35579101 95.6692319 237.46924794 97.6496582 239.29052734 C98.15022945 241.57108498 98.15022945 241.57108498 98.15086365 244.29824829 C98.16069778 245.33272095 98.17053192 246.3671936 98.18066406 247.43301392 C98.17099609 248.56758026 98.16132813 249.70214661 98.15136719 250.87109375 C98.15947166 252.66423004 98.15947166 252.66423004 98.16773987 254.49359131 C98.1781176 257.77513673 98.17050455 261.05602967 98.15402865 264.33753252 C98.1401743 267.7766514 98.14663939 271.21573999 98.15016174 274.65487671 C98.15286576 280.43699555 98.1393795 286.21890708 98.11621094 292.00097656 C98.08967524 298.66915371 98.08782925 305.33698255 98.0995993 312.00519431 C98.11041752 318.43113411 98.10415358 324.85694893 98.09004402 331.28287888 C98.08431151 334.01073566 98.08434541 336.73850015 98.08910942 339.46635818 C98.09203085 343.2889808 98.07546589 347.11104216 98.05371094 350.93359375 C98.06046341 352.61722519 98.06046341 352.61722519 98.06735229 354.33486938 C97.98629829 362.93887319 96.98275397 370.95743158 90.6496582 377.29052734 C84.96221714 381.81462819 79.37172564 383.6751741 72.1496582 383.16552734 C64.74520845 382.04402721 59.68553616 378.93617119 54.8762207 373.26708984 C51.78565931 368.28675843 51.36165863 363.27117727 51.40914917 357.54568481 C51.40744032 356.78510108 51.40573147 356.02451734 51.40397084 355.24088562 C51.4006874 352.70281101 51.41166062 350.16500321 51.42260742 347.62695312 C51.42317178 345.80343126 51.42285449 343.97990893 51.42172241 342.15638733 C51.42114888 337.21264552 51.43290342 332.26900087 51.44687033 327.32528162 C51.45937746 322.15630238 51.46054817 316.98732089 51.46292114 311.81832886 C51.46913595 302.03307544 51.48554681 292.24786674 51.50562012 282.46263301 C51.52797906 271.3212369 51.53897255 260.17983865 51.54901099 249.03842568 C51.56991302 226.12243478 51.60508905 203.20648357 51.6496582 180.29052734 C48.6796582 180.29052734 45.7096582 180.29052734 42.6496582 180.29052734 C42.65426717 181.23474989 42.65887613 182.17897243 42.66362476 183.15180779 C42.77471305 206.14628615 42.85682984 229.14072964 42.90871906 252.13541985 C42.93448048 263.25557885 42.96959172 274.37556038 43.02685547 285.49560547 C43.07675341 295.18992011 43.1089642 304.8841062 43.12010068 314.57854569 C43.12660857 319.70985273 43.14186118 324.84079207 43.17830849 329.97198105 C43.21236885 334.80651816 43.2226909 339.64053778 43.21519661 344.47518349 C43.21656667 346.24482477 43.22643918 348.01448423 43.24568558 349.78402138 C43.36062744 360.90180849 42.80321473 369.65757021 34.9621582 378.22802734 C28.6507785 382.15775433 22.2334945 384.10994672 14.80981445 382.85302734 C7.99768085 381.07916254 4.0020339 378.17900107 -0.1237793 372.48583984 C-2.65405089 367.95713719 -3.59998389 363.6933541 -3.61205482 358.53906441 C-3.61952032 357.40894814 -3.62698581 356.27883187 -3.63467753 355.11446965 C-3.63274279 353.88295229 -3.63080806 352.65143494 -3.6288147 351.38259888 C-3.6346071 350.06665202 -3.6403995 348.75070516 -3.64636743 347.39488113 C-3.66215235 343.74851637 -3.66559728 340.10222871 -3.66701603 336.45583391 C-3.67071271 332.52132001 -3.68586954 328.58684826 -3.69963074 324.65235901 C-3.72189895 317.83766243 -3.73691488 311.02298085 -3.74699783 304.20825577 C-3.76158656 294.35532625 -3.78712395 284.50244902 -3.81532912 274.64955018 C-3.86079357 258.66367881 -3.89740982 242.67779991 -3.9284668 226.69189453 C-3.95865375 211.16356077 -3.9930047 195.63524543 -4.03295898 180.10693359 C-4.03542053 179.14968435 -4.03788208 178.19243511 -4.04041822 177.20617832 C-4.05279285 172.40391508 -4.06524938 167.60165205 -4.07774663 162.79938912 C-4.18130924 122.96312739 -4.27051421 83.1268433 -4.3503418 43.29052734 C-6.29637454 42.6998272 -6.29637454 42.6998272 -8.3503418 42.29052734 C-10.09589134 44.03607688 -9.47880364 46.45058135 -9.48164368 48.82374573 C-9.48565186 50.0251973 -9.48966003 51.22664886 -9.49378967 52.46450806 C-9.49331451 53.8082886 -9.49277838 55.15206912 -9.4921875 56.49584961 C-9.49521749 57.90171925 -9.49873849 59.30758792 -9.50271606 60.7134552 C-9.51062038 63.74895399 -9.51575585 66.78444094 -9.51900673 69.8199482 C-9.52490848 74.62356805 -9.54144284 79.42711346 -9.56034851 84.23069763 C-9.56668654 85.87456985 -9.57301216 87.51844211 -9.57932568 89.16231441 C-9.58249149 89.98580407 -9.5856573 90.80929373 -9.58891904 91.65773761 C-9.63099791 102.84464691 -9.66394791 114.03152276 -9.67626953 125.21850586 C-9.68465957 132.75834349 -9.70718937 140.2979981 -9.7456252 147.83774418 C-9.76536268 151.82758305 -9.77779838 155.81714846 -9.77279091 159.80703926 C-9.76813173 163.56561705 -9.78201841 167.32367779 -9.80980301 171.08215141 C-9.819968 173.1106935 -9.8104826 175.13930464 -9.80030823 177.16784668 C-9.88337017 185.30365688 -10.56396638 191.19879907 -16.2878418 197.38427734 C-22.5382483 201.64591814 -27.88851464 202.33667765 -35.3503418 201.29052734 C-40.63790956 199.62592268 -44.55116198 196.05419179 -47.3503418 191.29052734 C-49.66344931 184.13191899 -49.63330954 177.29114692 -49.60913086 169.81298828 C-49.61184524 168.46183586 -49.61540868 167.11068492 -49.61975098 165.75953674 C-49.62882758 162.10845747 -49.62534942 158.45749192 -49.61899281 154.80641079 C-49.61390407 150.96967211 -49.6186326 147.13294271 -49.62176514 143.29620361 C-49.62539819 136.85044624 -49.62062488 130.40473477 -49.61108398 123.95898438 C-49.60021919 116.53363595 -49.60371328 109.10839755 -49.6147368 101.68305182 C-49.62385067 95.28529418 -49.62507445 88.88756942 -49.61985946 82.48980737 C-49.61675982 78.67885302 -49.6162743 74.86795014 -49.62293243 71.05699921 C-49.62876455 67.46837226 -49.62460329 63.87988516 -49.61314392 60.29127312 C-49.60929189 58.36612509 -49.61513397 56.44096505 -49.62139893 54.51582336 C-49.54246176 38.07652349 -46.9269273 24.50086752 -35.3503418 12.29052734 C-24.9321362 2.88183779 -13.76930145 -0.01205226 0 0 Z " fill="#000000" transform="translate(66.350341796875,101.70947265625)"/>
<path d="M0 0 C8.341068 8.0080308 12.38258931 17.5402202 13.1484375 28.95703125 C13.07851595 38.96746634 10.60815786 47.6519762 4.125 55.3125 C3.5990625 55.94800781 3.073125 56.58351563 2.53125 57.23828125 C-3.92107871 64.34497349 -13.28335485 68.82679983 -22.84375 69.53125 C-34.93613096 69.87028872 -44.54200589 67.05637838 -53.5625 58.875 C-54.325625 58.029375 -55.08875 57.18375 -55.875 56.3125 C-57.1434375 54.9821875 -57.1434375 54.9821875 -58.4375 53.625 C-64.92124929 45.72996143 -66.60481127 35.21314725 -65.875 25.3125 C-64.24049315 13.93093399 -59.06557019 5.14936639 -50.17578125 -2.15234375 C-34.48102209 -12.62439867 -14.66022212 -12.15125793 0 0 Z " fill="#000000" transform="translate(282.875,48.6875)"/>
<path d="M0 0 C1.16595703 0.63615234 1.16595703 0.63615234 2.35546875 1.28515625 C11.33515565 6.68500147 17.33683373 14.86838921 20 25 C22.32045274 38.85446781 19.70872623 49.75406211 11.75 61.25 C8.15665266 64.84334734 4.40021409 67.47749402 0 70 C-0.72832031 70.41765625 -1.45664063 70.8353125 -2.20703125 71.265625 C-10.83489992 75.43992603 -21.26923402 75.46842756 -30.4453125 73.1171875 C-41.68297411 68.7773233 -49.89486171 61.82202267 -54.99609375 50.859375 C-59.30798267 40.04870612 -58.70962803 29.84891216 -55 19 C-50.558208 9.27233714 -43.52532723 2.67606973 -34 -2 C-23.05216586 -5.70727391 -10.18688854 -5.80815492 0 0 Z " fill="#000000" transform="translate(132,16)"/>
<path d="M0 0 C11.80897872 -0.82228865 21.87846892 2.32434763 31 10 C38.0367344 17.14893745 42.55191007 27.50734728 43.0625 37.51171875 C42.78185607 48.68485529 38.97871476 59.05843699 31.375 67.375 C21.28850423 76.70208778 10.06897807 78.63758288 -3.06787109 78.15820312 C-7.0439871 77.8326379 -10.35789967 76.56090014 -14 75 C-13.3858796 67.99406028 -12.02787336 61.41867484 -10.3125 54.60546875 C-9.77326365 52.41085 -9.23420673 50.21618716 -8.6953125 48.02148438 C-7.8492352 44.60457717 -7.00023367 41.18843583 -6.14746094 37.77319336 C-5.31954886 34.44835411 -4.50300307 31.12087 -3.6875 27.79296875 C-3.30621948 26.28768867 -3.30621948 26.28768867 -2.91723633 24.7519989 C-0.91321817 16.53887185 0 8.45463025 0 0 Z " fill="#000000" transform="translate(396,12)"/>
<path d="M0 0 C0.07018166 17.3159722 0.12303293 34.6318998 0.15543652 51.94798183 C0.17088413 59.9887258 0.19193322 68.02938123 0.22631836 76.07006836 C0.25628538 83.08097538 0.2755903 90.09181826 0.28226548 97.10278755 C0.28616542 100.81266446 0.29528648 104.5223579 0.31719017 108.23217583 C0.3414838 112.38069562 0.34196532 116.52889948 0.34057617 120.67749023 C0.351362 121.89813171 0.36214783 123.11877319 0.3732605 124.37640381 C0.34423877 132.39798805 -0.15106364 139.45807912 -5.3125 145.875 C-11.10369822 150.45408696 -14.86647762 151.13929797 -22 151 C-22.46977717 134.2660848 -22.82109972 117.53434553 -23.03624344 100.79540634 C-23.13885363 93.02068876 -23.27837535 85.25009458 -23.50878906 77.47802734 C-23.70982231 70.69368366 -23.83754134 63.91232657 -23.8817699 57.12508702 C-23.90758798 53.53804452 -23.96695815 49.95953411 -24.11460114 46.37526703 C-25.03962186 23.03685297 -25.03962186 23.03685297 -17.48474121 13.65539551 C-4.78778589 0 -4.78778589 0 0 0 Z " fill="#000000" transform="translate(342,152)"/>
</svg>
